<?xml version="1.0" encoding="UTF-8"?>
<svg id="Good_Guy" data-name="Good Guy" xmlns="http://www.w3.org/2000/svg" viewBox="0 0 309.43 291.06">
  <defs>
    <style>
      .cls-1, .cls-2 {
        stroke-width: 7px;
      }

      .cls-1, .cls-2, .cls-3 {
        fill: none;
        stroke-linecap: round;
        stroke-miterlimit: 10;
      }

      .cls-1, .cls-3 {
        stroke: #589da0;
      }

      .cls-2 {
        stroke: #58595b;
      }

      .cls-4 {
        fill: #9bd2d2;
        stroke-width: 0px;
      }

      .cls-3 {
        stroke-width: 5px;
      }
    </style>
  </defs>
  <path class="cls-4" d="M273.12,135.74c0,85.78-53.01,155.32-118.4,155.32S36.31,221.52,36.31,135.74,89.32,0,154.72,0s118.4,49.96,118.4,135.74Z"/>
  <path class="cls-1" d="M88.8,136.88c11.35,11.35,29.73,11.35,41.08,0"/>
  <path class="cls-1" d="M176.54,136.88c11.35,11.35,29.73,11.35,41.08,0"/>
  <path class="cls-2" d="M129.88,97.32c-22.67-8.31-46.61.22-53.52,19.06"/>
  <path class="cls-2" d="M175.9,97.32c22.67-8.31,46.61.22,53.52,19.06"/>
  <path class="cls-1" d="M113.64,202.76c18.33,18.33,63.83,18.33,82.16,0"/>
  <line class="cls-1" x1="150.29" y1="141.14" x2="141.32" y2="187.32"/>
  <line class="cls-1" x1="162.86" y1="187.92" x2="141.32" y2="187.32"/>
  <path class="cls-4" d="M308.07,156.12c-4.91,19.38-21.65,31.86-37.37,27.87-15.73-3.99-24.5-22.93-19.58-42.31,4.91-19.38,21.65-31.86,37.37-27.87,15.73,3.99,24.5,22.93,19.58,42.31"/>
  <path class="cls-3" d="M290.58,157.64c.87,7.15-4.22,13.65-11.36,14.52"/>
  <path class="cls-3" d="M276.06,146.28c7.15-.87,13.65,4.22,14.52,11.36"/>
  <path class="cls-3" d="M275.91,154.75c-6.82-10.83-4.1-27.33,2.14-30.2,4.44-2.04,10.91.04,15.91,4.71"/>
  <g>
    <path class="cls-4" d="M1.36,156.12c4.91,19.38,21.65,31.86,37.37,27.87s24.5-22.93,19.58-42.31c-4.91-19.38-21.65-31.86-37.37-27.87-15.73,3.99-24.5,22.93-19.58,42.31"/>
    <path class="cls-3" d="M18.81,158.58c-.87,7.15,4.22,13.65,11.36,14.52"/>
    <path class="cls-3" d="M33.33,147.22c-7.15-.87-13.65,4.22-14.52,11.36"/>
    <path class="cls-3" d="M33.48,155.69c6.82-10.83,4.1-27.33-2.14-30.2-4.44-2.04-10.91.04-15.91,4.71"/>
  </g>
</svg>