<?xml version="1.0" encoding="UTF-8"?>
<svg id="Good_Guy" data-name="Good Guy" xmlns="http://www.w3.org/2000/svg" xmlns:xlink="http://www.w3.org/1999/xlink" viewBox="0 0 373 265.53">
  <defs>
    <style>
      .cls-1 {
        fill: #3a3a3a;
      }

      .cls-1, .cls-2, .cls-3, .cls-4, .cls-5 {
        stroke-width: 0px;
      }

      .cls-6 {
        clip-path: url(#clippath);
      }

      .cls-2, .cls-7 {
        fill: none;
      }

      .cls-3 {
        fill: #c22d40;
      }

      .cls-8 {
        clip-path: url(#clippath-1);
      }

      .cls-4 {
        fill: #e26d7b;
      }

      .cls-5 {
        fill: #fff;
      }

      .cls-7 {
        stroke: #c22d40;
        stroke-linecap: round;
        stroke-miterlimit: 10;
        stroke-width: 8px;
      }
    </style>
    <clipPath id="clippath">
      <path class="cls-2" d="M289.42,93.6s-19.56,25.46-43.69,25.46-43.69-25.46-43.69-25.46c0,0,19.56-24.2,43.69-24.2s43.69,24.2,43.69,24.2Z"/>
    </clipPath>
    <clipPath id="clippath-1">
      <path class="cls-2" d="M167.25,91.91s-19.56,25.46-43.69,25.46-43.69-25.46-43.69-25.46c0,0,19.56-24.2,43.69-24.2s43.69,24.2,43.69,24.2Z"/>
    </clipPath>
  </defs>
  <g>
    <circle class="cls-3" cx="188.35" cy="134.48" r="113.2"/>
    <g>
      <path class="cls-4" d="M372.28,179.55c1.2-13.63,2.13-24.76-8.1-32.37,7.41-6.24,7.44-16.87,8.36-27.29,1.85-20.89-8.58-37.75-29.47-39.59-.33-.03-.65-.04-.97-.06.87-2.68,1.46-5.49,1.72-8.41,1.85-20.89-13.59-39.32-34.48-41.17-4.44-.39-8.76,0-12.85,1.06-3.01-16.37-16.61-29.4-34-30.93-20.89-1.85-55.56-2.17-57.41,18.72,0,0-.47,2.48-.47,2.49-.09.97.46,5.28-.49,5.53-15.07,3.95-11.24,26.82-12.69,43.22-.96,10.86,2.76,21.06,9.49,28.6-7.94,6.25-8.38,15.59-9.34,26.46-1,11.36-1.9,22.03,5.41,29.66-8.54,6.23-7.4,17.43-8.4,28.79-1.85,20.89,6.54,37.87,27.43,39.71.32.03.64.04.96.06-.86,2.66-1.45,5.45-1.7,8.36-1.85,20.89,15.06,30.61,35.95,32.46,15.55,1.37,28.26,1.88,35.26-11.02,6.67,10.15,11.6,9.53,24.96,9.66,18.51.17,32.34-13.94,37.7-31.66,2.07-6.82,4.99-7.56,2.16-17.46,15-3.99,19.53-18.46,20.97-34.82Z"/>
      <path class="cls-7" d="M220.31,48.01c0,15.8,12.78,28.58,28.58,28.58"/>
      <path class="cls-7" d="M221.97,154.75c-5.28,14.89,2.5,31.21,17.39,36.49"/>
      <path class="cls-7" d="M338.11,181.64c0-15.8-12.78-28.58-28.58-28.58"/>
      <path class="cls-7" d="M234.61,132.35c12.16,10.08,30.16,8.4,40.25-3.76"/>
      <path class="cls-7" d="M275.8,209.71c-15.68,1.92-26.82,16.16-24.9,31.84"/>
      <path class="cls-7" d="M302.94,172.99c10.12-12.13,8.49-30.14-3.64-40.26"/>
      <path class="cls-7" d="M280.94,79.09c15.8,0,28.58,12.78,28.58,28.58"/>
      <path class="cls-7" d="M248.9,47.89c15.85,0,28.7,12.85,28.7,28.7s-12.85,28.7-28.7,28.7"/>
      <path class="cls-7" d="M313.57,204.47c-10.42,11.94-28.55,13.17-40.49,2.75-11.94-10.42-13.17-28.55-2.75-40.49"/>
    </g>
    <g>
      <path class="cls-4" d="M.72,179.55c-1.2-13.63-2.13-24.76,8.1-32.37-7.41-6.24-7.44-16.87-8.36-27.29-1.85-20.89,8.58-37.75,29.47-39.59.33-.03.65-.04.97-.06-.87-2.68-1.46-5.49-1.72-8.41-1.85-20.89,13.59-39.32,34.48-41.17,4.44-.39,8.76,0,12.85,1.06C79.52,15.36,93.12,2.33,110.5.79c20.89-1.85,55.56-2.17,57.41,18.72,0,0,.47,2.48.47,2.49.09.97-.46,5.28.49,5.53,15.07,3.95,11.24,26.82,12.69,43.22.96,10.86-2.76,21.06-9.49,28.6,7.94,6.25,8.38,15.59,9.34,26.46,1,11.36,1.9,22.03-5.41,29.66,8.54,6.23,7.4,17.43,8.4,28.79,1.85,20.89-6.54,37.87-27.43,39.71-.32.03-.64.04-.96.06.86,2.66,1.45,5.45,1.7,8.36,1.85,20.89-15.06,30.61-35.95,32.46-15.55,1.37-28.26,1.88-35.26-11.02-6.67,10.15-11.6,9.53-24.96,9.66-18.51.17-32.34-13.94-37.7-31.66-2.07-6.82-4.99-7.56-2.16-17.46-15-3.99-19.53-18.46-20.97-34.82Z"/>
      <path class="cls-7" d="M152.69,48.01c0,15.8-12.78,28.58-28.58,28.58"/>
      <path class="cls-7" d="M151.03,154.75c5.28,14.89-2.5,31.21-17.39,36.49"/>
      <path class="cls-7" d="M34.89,181.64c0-15.8,12.78-28.58,28.58-28.58"/>
      <path class="cls-7" d="M138.4,132.35c-12.16,10.08-30.16,8.4-40.25-3.76"/>
      <path class="cls-7" d="M97.2,209.71c15.68,1.92,26.82,16.16,24.9,31.84"/>
      <path class="cls-7" d="M70.06,172.99c-10.12-12.13-8.49-30.14,3.64-40.26"/>
      <path class="cls-7" d="M92.06,79.09c-15.8,0-28.58,12.78-28.58,28.58"/>
      <path class="cls-7" d="M124.1,47.89c-15.85,0-28.7,12.85-28.7,28.7s12.85,28.7,28.7,28.7"/>
      <path class="cls-7" d="M59.43,204.47c10.42,11.94,28.55,13.17,40.49,2.75,11.94-10.42,13.17-28.55,2.75-40.49"/>
    </g>
  </g>
  <g>
    <g class="cls-6">
      <path class="cls-5" d="M289.42,93.6s-19.56,25.46-43.69,25.46-43.69-25.46-43.69-25.46c0,0,19.56-24.2,43.69-24.2s43.69,24.2,43.69,24.2Z"/>
      <circle class="cls-1" cx="245.73" cy="94.74" r="16.97"/>
    </g>
    <g class="cls-8">
      <path class="cls-5" d="M167.25,91.91s-19.56,25.46-43.69,25.46-43.69-25.46-43.69-25.46c0,0,19.56-24.2,43.69-24.2s43.69,24.2,43.69,24.2Z"/>
      <circle class="cls-1" cx="123.56" cy="93.05" r="16.97"/>
    </g>
  </g>
</svg>