<?xml version="1.0" encoding="UTF-8"?>
<svg id="Game_Over" data-name="Game Over" xmlns="http://www.w3.org/2000/svg" viewBox="0 0 197.92 71.44">
  <defs>
    <style>
      .cls-1 {
        fill: #fbb040;
      }

      .cls-1, .cls-2 {
        stroke-width: 0px;
      }

      .cls-2 {
        fill: #fff;
      }
    </style>
  </defs>
  <rect class="cls-1" x="0" y="0" width="197.92" height="71.44" rx="35.72" ry="35.72"/>
  <g>
    <path class="cls-2" d="M58.42,20.49c.73,0,1.14.41,1.3,1.1l2.88,11.82c.08.41.41.41.49,0l2.88-11.82c.16-.69.57-1.1,1.3-1.1h8.41c.81,0,1.22.41,1.22,1.22v25.99c0,.77-.41,1.22-1.22,1.22h-4.55c-.77,0-1.22-.45-1.22-1.22v-16c0-.28-.37-.33-.45-.04l-3.94,16.2c-.16.69-.61,1.06-1.34,1.06h-2.68c-.73,0-1.18-.37-1.34-1.06l-3.94-16.2c-.08-.28-.45-.24-.45.04v16c0,.77-.41,1.22-1.22,1.22h-4.55c-.81,0-1.22-.45-1.22-1.22v-25.99c0-.81.41-1.22,1.22-1.22h8.41Z"/>
    <path class="cls-2" d="M99.22,20.49c.81,0,1.22.41,1.22,1.22v4.55c0,.77-.41,1.22-1.22,1.22h-9.83c-.77,0-1.22.41-1.22,1.22v1.3c0,.77.45,1.22,1.22,1.22h6.29c.81,0,1.22.41,1.22,1.22v4.55c0,.77-.41,1.22-1.22,1.22h-6.29c-.77,0-1.22.41-1.22,1.22v1.3c0,.77.45,1.22,1.22,1.22h9.83c.81,0,1.22.41,1.22,1.22v4.55c0,.81-.41,1.22-1.22,1.22h-17.05c-.77,0-1.22-.45-1.22-1.22v-25.99c0-.81.45-1.22,1.22-1.22h17.05Z"/>
    <path class="cls-2" d="M110.75,20.49c.69,0,1.14.28,1.42.93l5.52,13.52c.16.37.49.28.49-.12v-13.11c0-.81.45-1.22,1.22-1.22h4.55c.81,0,1.22.41,1.22,1.22v25.99c0,.77-.41,1.22-1.22,1.22h-5.97c-.69,0-1.14-.28-1.42-.93l-5.52-13.52c-.16-.37-.49-.28-.49.12v13.12c0,.77-.41,1.22-1.22,1.22h-4.55c-.77,0-1.22-.45-1.22-1.22v-25.99c0-.81.45-1.22,1.22-1.22h5.97Z"/>
    <path class="cls-2" d="M134.75,20.49c.81,0,1.22.41,1.22,1.22v15.92c0,3.13.2,5.04,3.21,5.04s3.21-1.91,3.21-5.04v-15.92c0-.81.45-1.22,1.22-1.22h4.55c.81,0,1.22.41,1.22,1.22v18.07c0,2.68-.57,9.87-10.19,9.87s-10.19-7.19-10.19-9.87v-18.07c0-.81.45-1.22,1.22-1.22h4.55Z"/>
  </g>
</svg>