<?xml version="1.0" encoding="UTF-8"?>
<svg id="Game_Over" data-name="Game Over" xmlns="http://www.w3.org/2000/svg" viewBox="0 0 197.92 71.44">
  <defs>
    <style>
      .cls-1 {
        fill: #fbb040;
      }

      .cls-1, .cls-2 {
        stroke-width: 0px;
      }

      .cls-2 {
        fill: #fff;
      }
    </style>
  </defs>
  <rect class="cls-1" x="0" y="0" width="197.92" height="71.44" rx="35.72" ry="35.72"/>
  <g>
    <path class="cls-2" d="M65.26,20.49c7.23,0,10.15,3.09,10.15,9.75s-2.92,9.75-10.15,9.75h-1.95c-.77,0-1.22.41-1.22,1.22v6.5c0,.81-.41,1.22-1.22,1.22h-4.55c-.77,0-1.22-.45-1.22-1.22v-25.95c0-.81.41-1.22,1.22-1.26h8.93ZM65.51,33c1.95,0,2.92-.24,2.92-2.76s-.97-2.76-2.92-2.76h-2.19c-.77,0-1.22.41-1.22,1.22v3.09c0,.77.45,1.22,1.22,1.22h2.19Z"/>
    <path class="cls-2" d="M83.69,20.49c.81,0,1.22.41,1.22,1.22v19c0,.77.45,1.22,1.22,1.22h9.05c.81,0,1.22.41,1.22,1.22v4.55c0,.81-.41,1.22-1.22,1.22h-16.04c-.77,0-1.22-.45-1.22-1.22v-25.99c0-.81.45-1.22,1.22-1.22h4.55Z"/>
    <path class="cls-2" d="M118.61,47.54c0,.89-.41,1.38-1.22,1.38h-4.55c-.77,0-1.22-.41-1.22-1.22v-3.53c0-.81-.41-1.22-1.22-1.22h-3.49c-.77,0-1.22.41-1.22,1.22v3.53c0,.81-.41,1.22-1.22,1.22h-4.55c-.77,0-1.22-.49-1.22-1.38v-17.22c0-5.12.81-10.56,9.95-10.56s9.95,5.44,9.95,10.56v17.22ZM111.63,30.32c0-1.95-.28-2.92-2.96-2.92s-2.96.97-2.96,2.92v4.43c0,.77.45,1.22,1.22,1.22h3.49c.81-.04,1.22-.45,1.22-1.26v-4.39Z"/>
    <path class="cls-2" d="M127.99,20.49c.69,0,1.14.28,1.38.93l3,7.55c.16.37.41.37.57,0l3-7.55c.24-.65.69-.93,1.38-.93h5.81c.93,0,1.34.57.93,1.42l-7.27,16.24c-.08.16-.08.32-.08.49v9.05c0,.77-.41,1.22-1.22,1.22h-5.68c-.77,0-1.22-.45-1.22-1.22v-9.05c0-.16,0-.33-.08-.49l-7.31-16.24c-.41-.85,0-1.42.93-1.42h5.85Z"/>
  </g>
</svg>