<?xml version="1.0" encoding="UTF-8"?>
<svg id="Game_Over" data-name="Game Over" xmlns="http://www.w3.org/2000/svg" viewBox="0 0 197.92 71.44">
  <defs>
    <style>
      .cls-1 {
        fill: #fbb040;
      }

      .cls-1, .cls-2 {
        stroke-width: 0px;
      }

      .cls-2 {
        fill: #fff;
      }
    </style>
  </defs>
  <rect class="cls-1" x="0" y="0" width="197.92" height="71.44" rx="35.72" ry="35.72"/>
  <g>
    <path class="cls-2" d="M28.53,24.66c5.45,0,7.65,2.33,7.65,7.35s-2.2,7.35-7.65,7.35h-1.47c-.58,0-.92.31-.92.92v4.9c0,.61-.31.92-.92.92h-3.43c-.58,0-.92-.34-.92-.92v-19.56c0-.61.31-.92.92-.95h6.73ZM28.71,34.08c1.47,0,2.2-.18,2.2-2.08s-.73-2.08-2.2-2.08h-1.65c-.58,0-.92.31-.92.92v2.33c0,.58.34.92.92.92h1.65Z"/>
    <path class="cls-2" d="M42.43,24.66c.61,0,.92.31.92.92v14.33c0,.58.34.92.92.92h6.83c.61,0,.92.31.92.92v3.43c0,.61-.31.92-.92.92h-12.09c-.58,0-.92-.34-.92-.92v-19.59c0-.61.34-.92.92-.92h3.43Z"/>
    <path class="cls-2" d="M68.75,45.04c0,.67-.31,1.04-.92,1.04h-3.43c-.58,0-.92-.31-.92-.92v-2.66c0-.61-.31-.92-.92-.92h-2.63c-.58,0-.92.31-.92.92v2.66c0,.61-.31.92-.92.92h-3.43c-.58,0-.92-.37-.92-1.04v-12.98c0-3.86.61-7.96,7.5-7.96s7.5,4.1,7.5,7.96v12.98ZM63.48,32.06c0-1.47-.21-2.2-2.23-2.2s-2.23.73-2.23,2.2v3.34c0,.58.34.92.92.92h2.63c.61-.03.92-.34.92-.95v-3.31Z"/>
    <path class="cls-2" d="M75.82,24.66c.52,0,.86.21,1.04.7l2.26,5.69c.12.28.31.28.43,0l2.26-5.69c.18-.49.52-.7,1.04-.7h4.38c.7,0,1.01.43.7,1.07l-5.48,12.24c-.06.12-.06.25-.06.37v6.83c0,.58-.31.92-.92.92h-4.29c-.58,0-.92-.34-.92-.92v-6.83c0-.12,0-.25-.06-.37l-5.51-12.24c-.31-.64,0-1.07.7-1.07h4.41Z"/>
    <path class="cls-2" d="M114.08,45.04c0,.67-.31,1.04-.92,1.04h-3.43c-.58,0-.92-.31-.92-.92v-2.66c0-.61-.31-.92-.92-.92h-2.63c-.58,0-.92.31-.92.92v2.66c0,.61-.31.92-.92.92h-3.43c-.58,0-.92-.37-.92-1.04v-12.98c0-3.86.61-7.96,7.5-7.96s7.5,4.1,7.5,7.96v12.98ZM108.81,32.06c0-1.47-.21-2.2-2.23-2.2s-2.23.73-2.23,2.2v3.34c0,.58.34.92.92.92h2.63c.61-.03.92-.34.92-.95v-3.31Z"/>
    <path class="cls-2" d="M116.68,31.54c0-2.02.43-7.44,7.68-7.44,6.43,0,7.5,4.22,7.65,6.61.03.55-.25.89-.8,1.01l-3.46.76c-.61.12-.95-.15-1.01-.8-.12-1.47-.64-2.33-2.39-2.33-2.26,0-2.42,1.44-2.42,3.8v4.41c0,2.36.15,3.8,2.42,3.8s2.42-1.44,2.42-2.94h-1.78c-.58,0-.92-.34-.92-.92v-2.45c0-.61.34-.92.92-.92h6.12c.61,0,.92.31.92.92v4.13c0,2.02-.43,7.44-7.68,7.44s-7.68-5.42-7.68-7.44v-7.65Z"/>
    <path class="cls-2" d="M149.58,45.04c0,.67-.31,1.04-.92,1.04h-3.43c-.58,0-.92-.31-.92-.92v-2.66c0-.61-.31-.92-.92-.92h-2.63c-.58,0-.92.31-.92.92v2.66c0,.61-.31.92-.92.92h-3.43c-.58,0-.92-.37-.92-1.04v-12.98c0-3.86.61-7.96,7.5-7.96s7.5,4.1,7.5,7.96v12.98ZM144.32,32.06c0-1.47-.21-2.2-2.23-2.2s-2.23.73-2.23,2.2v3.34c0,.58.34.92.92.92h2.63c.61-.03.92-.34.92-.95v-3.31Z"/>
    <path class="cls-2" d="M156.78,24.66c.61,0,.92.31.92.92v19.59c0,.58-.31.92-.92.92h-3.37c-.58,0-.92-.34-.92-.92v-19.59c0-.61.34-.92.92-.92h3.37Z"/>
    <path class="cls-2" d="M166.17,24.66c.52,0,.86.21,1.07.7l4.16,10.19c.12.28.37.21.37-.09v-9.89c0-.61.34-.92.92-.92h3.43c.61,0,.92.31.92.92v19.59c0,.58-.31.92-.92.92h-4.5c-.52,0-.86-.21-1.07-.7l-4.16-10.19c-.12-.28-.37-.21-.37.09v9.89c0,.58-.31.92-.92.92h-3.43c-.58,0-.92-.34-.92-.92v-19.59c0-.61.34-.92.92-.92h4.5Z"/>
  </g>
</svg>