<?xml version="1.0" encoding="UTF-8"?>
<svg id="Game_Over" data-name="Game Over" xmlns="http://www.w3.org/2000/svg" viewBox="0 0 197.92 71.44">
  <defs>
    <style>
      .cls-1 {
        fill: #fbb040;
      }

      .cls-1, .cls-2 {
        stroke-width: 0px;
      }

      .cls-2 {
        fill: #fff;
      }
    </style>
  </defs>
  <rect class="cls-1" x="0" y="0" width="197.92" height="71.44" rx="35.72" ry="35.72"/>
  <g>
    <path class="cls-2" d="M56.51,30.56c-.81.16-1.22-.2-1.34-1.02-.28-1.66-1.62-2.72-3.53-2.72-1.58,0-2.56.93-2.4,1.87.57,3.17,13.4,3.09,13.4,12.42,0,1.22-1.38,8.41-11,8.41-8.53,0-10.35-5.6-10.56-8.77-.04-.73.33-1.18,1.06-1.34l4.59-1.02c.81-.16,1.26.2,1.34,1.06.16,1.95,1.67,3.09,3.57,3.09s3.45-1.18,3.21-2.27c-.77-3.45-12.99-2.68-12.99-12.02-.04-1.22.69-8.41,9.79-8.41,8.36,0,10.31,5.44,10.56,8.36.04.73-.33,1.18-1.06,1.34l-4.63,1.02Z"/>
    <path class="cls-2" d="M71.65,28.7c0-.81-.41-1.22-1.22-1.22h-5.68c-.77,0-1.22-.45-1.22-1.22v-4.55c0-.81.45-1.22,1.22-1.22h20.79c.81,0,1.22.41,1.22,1.22v4.55c0,.77-.41,1.22-1.22,1.22h-5.68c-.77,0-1.22.41-1.22,1.22v19c0,.77-.41,1.22-1.22,1.22h-4.55c-.77,0-1.22-.45-1.22-1.22v-19Z"/>
    <path class="cls-2" d="M108.48,47.54c0,.89-.41,1.38-1.22,1.38h-4.55c-.77,0-1.22-.41-1.22-1.22v-3.53c0-.81-.41-1.22-1.22-1.22h-3.49c-.77,0-1.22.41-1.22,1.22v3.53c0,.81-.41,1.22-1.22,1.22h-4.55c-.77,0-1.22-.49-1.22-1.38v-17.22c0-5.12.81-10.56,9.95-10.56s9.95,5.44,9.95,10.56v17.22ZM101.5,30.32c0-1.95-.28-2.92-2.96-2.92s-2.96.97-2.96,2.92v4.43c0,.77.45,1.22,1.22,1.22h3.49c.81-.04,1.22-.45,1.22-1.26v-4.39Z"/>
    <path class="cls-2" d="M133.73,46.72c.57,1.06-.08,2.19-1.34,2.19h-4.63c-.41,0-.77-.2-.93-.57l-4.22-8.16c-.08-.12-.2-.2-.32-.2h-1.62c-.73,0-1.26.53-1.26,1.26v6.42c0,.73-.53,1.26-1.26,1.26h-4.55c-.73,0-1.26-.53-1.26-1.26v-25.91c0-.73.53-1.26,1.26-1.26h8.89c7.23,0,10.15,3.09,10.15,9.75,0,3.78-.93,6.42-3.09,7.96-.16.12-.2.33-.12.53l4.3,8ZM120.66,27.48c-.73,0-1.26.53-1.26,1.26v3c0,.73.53,1.26,1.26,1.26h2.07c1.95,0,2.92-.24,2.92-2.76s-.97-2.76-2.92-2.76h-2.07Z"/>
    <path class="cls-2" d="M142.1,28.7c0-.81-.41-1.22-1.22-1.22h-5.68c-.77,0-1.22-.45-1.22-1.22v-4.55c0-.81.45-1.22,1.22-1.22h20.79c.81,0,1.22.41,1.22,1.22v4.55c0,.77-.41,1.22-1.22,1.22h-5.68c-.77,0-1.22.41-1.22,1.22v19c0,.77-.41,1.22-1.22,1.22h-4.55c-.77,0-1.22-.45-1.22-1.22v-19Z"/>
  </g>
</svg>