<?xml version="1.0" encoding="UTF-8"?>
<svg id="Bad_guy" data-name="Bad guy" xmlns="http://www.w3.org/2000/svg" xmlns:xlink="http://www.w3.org/1999/xlink" viewBox="0 0 570.79 535.76">
  <defs>
    <style>
      .cls-1 {
        fill: #3a3a3a;
      }

      .cls-1, .cls-2, .cls-3, .cls-4, .cls-5 {
        stroke-width: 0px;
      }

      .cls-6 {
        stroke: #000;
      }

      .cls-6, .cls-2, .cls-7, .cls-8 {
        fill: none;
      }

      .cls-6, .cls-7, .cls-8, .cls-9 {
        stroke-miterlimit: 10;
      }

      .cls-6, .cls-8, .cls-9 {
        stroke-width: 5px;
      }

      .cls-10 {
        clip-path: url(#clippath);
      }

      .cls-7 {
        stroke: #ed0677;
        stroke-width: 30px;
      }

      .cls-11, .cls-9, .cls-5 {
        fill: #fff;
      }

      .cls-12 {
        clip-path: url(#clippath-1);
      }

      .cls-13 {
        clip-path: url(#clippath-3);
      }

      .cls-14 {
        clip-path: url(#clippath-2);
      }

      .cls-3 {
        fill: #6d2c91;
      }

      .cls-8, .cls-9 {
        stroke: #e6e7e8;
      }

      .cls-4 {
        fill: #ed0677;
      }
    </style>
    <clipPath id="clippath">
      <path class="cls-2" d="M299.46,334.05c-25.16,0-50.32-9.58-69.47-28.73-9.44-9.44-9.44-24.75,0-34.19,9.44-9.44,24.75-9.44,34.19,0,19.46,19.46,51.12,19.46,70.57,0,9.44-9.44,24.75-9.44,34.19,0,9.44,9.44,9.44,24.75,0,34.19-19.15,19.15-44.31,28.73-69.47,28.73Z"/>
    </clipPath>
    <clipPath id="clippath-1">
      <path class="cls-5" d="M299.46,334.05c-25.16,0-50.32-9.58-69.47-28.73-9.44-9.44-9.44-24.75,0-34.19,9.44-9.44,24.75-9.44,34.19,0,19.46,19.46,51.12,19.46,70.57,0,9.44-9.44,24.75-9.44,34.19,0,9.44,9.44,9.44,24.75,0,34.19-19.15,19.15-44.31,28.73-69.47,28.73Z"/>
    </clipPath>
    <clipPath id="clippath-2">
      <path class="cls-2" d="M375.57,176.11s4.17,31.83-12.89,48.89c-17.06,17.06-48.89,12.89-48.89,12.89,0,0-3.28-30.94,13.78-48,17.06-17.06,48-13.78,48-13.78Z"/>
    </clipPath>
    <clipPath id="clippath-3">
      <path class="cls-2" d="M274.63,237.89s-31.83,4.17-48.89-12.89c-17.06-17.06-12.89-48.89-12.89-48.89,0,0,30.94-3.28,48,13.78s13.78,48,13.78,48Z"/>
    </clipPath>
  </defs>
  <circle class="cls-4" cx="279.65" cy="228.86" r="153.72"/>
  <g>
    <path class="cls-7" d="M409.58,177.8c15.87,119.63,100.07,130.42,115.26-7.48"/>
    <circle class="cls-4" cx="524.84" cy="170.32" r="44.94"/>
  </g>
  <g>
    <path class="cls-7" d="M160.21,210.66c-15.87-119.63-100.07-130.42-115.26,7.48"/>
    <circle class="cls-4" cx="44.95" cy="218.14" r="44.94"/>
  </g>
  <g>
    <path class="cls-7" d="M354.92,325.48c92.37,4.11,138.8,54.11,38.62,103.72"/>
    <ellipse class="cls-4" cx="403.51" cy="450.27" rx="27.19" ry="41.66" transform="translate(-131.84 169.26) rotate(-20.44)"/>
  </g>
  <g>
    <path class="cls-7" d="M209.32,336.22c44.35,42.11,81.5,142.31-37.31,129.03"/>
    <ellipse class="cls-4" cx="161.61" cy="488.72" rx="41.66" ry="27.19" transform="translate(-352.98 476.07) rotate(-70.29)"/>
  </g>
  <polygon class="cls-4" points="185.43 0 253.22 104.7 168.7 123.6 185.43 0"/>
  <polygon class="cls-4" points="329.14 3.83 367.96 122.37 281.42 119.07 329.14 3.83"/>
  <g class="cls-10">
    <line class="cls-6" x1="299.46" y1="280.11" x2="299.46" y2="343.61"/>
    <line class="cls-6" x1="320.27" y1="273.77" x2="349.2" y2="343.61"/>
    <line class="cls-6" x1="278.65" y1="270.94" x2="242.67" y2="346.43"/>
    <g>
      <path class="cls-11" d="M299.46,334.05c-25.16,0-50.32-9.58-69.47-28.73-9.44-9.44-9.44-24.75,0-34.19,9.44-9.44,24.75-9.44,34.19,0,19.46,19.46,51.12,19.46,70.57,0,9.44-9.44,24.75-9.44,34.19,0,9.44,9.44,9.44,24.75,0,34.19-19.15,19.15-44.31,28.73-69.47,28.73Z"/>
      <g class="cls-12">
        <line class="cls-9" x1="299.46" y1="280.11" x2="299.46" y2="343.61"/>
        <line class="cls-9" x1="320.27" y1="273.77" x2="349.2" y2="343.61"/>
        <path class="cls-8" d="M229.41,262.08c10.11,55.23,110.69,63.22,143.51,10.11"/>
        <line class="cls-9" x1="278.65" y1="270.94" x2="242.67" y2="346.43"/>
      </g>
    </g>
    <ellipse class="cls-3" cx="370.47" cy="272.19" rx="9.74" ry="22.33" transform="translate(-89.13 261.74) rotate(-35)"/>
    <ellipse class="cls-3" cx="226.12" cy="275.76" rx="22.33" ry="9.74" transform="translate(-129.47 302.8) rotate(-55)"/>
  </g>
  <g class="cls-14">
    <path class="cls-5" d="M375.57,176.11s4.17,31.83-12.89,48.89c-17.06,17.06-48.89,12.89-48.89,12.89,0,0-3.28-30.94,13.78-48,17.06-17.06,48-13.78,48-13.78Z"/>
    <path class="cls-1" d="M349.51,203.06c6.63,6.63,14.24,9.76,7.61,16.39-6.63,6.63-8.93-1.82-15.55-8.45-6.63-6.63-15.07-8.93-8.45-15.55,6.63-6.63,9.76.98,16.39,7.61Z"/>
  </g>
  <g class="cls-13">
    <path class="cls-5" d="M274.63,237.89s-31.83,4.17-48.89-12.89c-17.06-17.06-12.89-48.89-12.89-48.89,0,0,30.94-3.28,48,13.78s13.78,48,13.78,48Z"/>
    <path class="cls-1" d="M247.46,211.62c-6.63,6.63-8.65,15.35-15.27,8.73-6.63-6.63,1.42-9.32,8.05-15.95,6.63-6.63,9.32-14.68,15.95-8.05,6.63,6.63-2.1,8.65-8.73,15.27Z"/>
  </g>
</svg>