<?xml version="1.0" encoding="UTF-8"?>
<svg id="Start_Screen" data-name="Start Screen" xmlns="http://www.w3.org/2000/svg" xmlns:xlink="http://www.w3.org/1999/xlink" viewBox="0 0 3105.4 1746.79">
  <defs>
    <style>
      .cls-1 {
        stroke: #58595b;
      }

      .cls-1, .cls-2 {
        stroke-width: 15px;
      }

      .cls-1, .cls-2, .cls-3, .cls-4, .cls-5, .cls-6, .cls-7, .cls-8 {
        fill: none;
      }

      .cls-1, .cls-2, .cls-3, .cls-5, .cls-6, .cls-7, .cls-8 {
        stroke-miterlimit: 10;
      }

      .cls-1, .cls-2, .cls-6, .cls-8 {
        stroke-linecap: round;
      }

      .cls-9 {
        font-size: 88.31px;
      }

      .cls-9, .cls-10, .cls-11 {
        font-family: Cubano-Regular, Cubano;
      }

      .cls-9, .cls-10, .cls-11, .cls-12 {
        fill: #fff;
      }

      .cls-13 {
        fill: #3a3a3a;
      }

      .cls-13, .cls-14, .cls-15, .cls-16, .cls-17, .cls-4, .cls-18, .cls-19, .cls-20, .cls-21, .cls-22, .cls-23, .cls-24, .cls-25, .cls-26, .cls-27, .cls-28, .cls-29, .cls-12, .cls-30 {
        stroke-width: 0px;
      }

      .cls-2, .cls-6 {
        stroke: #589da0;
      }

      .cls-14 {
        fill: #939598;
      }

      .cls-3 {
        stroke: #fff;
      }

      .cls-3, .cls-6 {
        stroke-width: 10px;
      }

      .cls-15 {
        fill: #1988a8;
      }

      .cls-10 {
        font-size: 190px;
      }

      .cls-16 {
        fill: #3e5c45;
      }

      .cls-17 {
        fill: #725e94;
      }

      .cls-31 {
        clip-path: url(#clippath);
      }

      .cls-32 {
        letter-spacing: -.02em;
      }

      .cls-18 {
        fill: #c22d40;
      }

      .cls-19 {
        fill: #589da0;
      }

      .cls-20 {
        fill: url(#linear-gradient);
      }

      .cls-5 {
        stroke: #414042;
      }

      .cls-5, .cls-7 {
        stroke-width: 20px;
      }

      .cls-21 {
        fill: #a7a9ac;
      }

      .cls-22 {
        fill: #9bd2d2;
      }

      .cls-23 {
        fill: #6d6e71;
      }

      .cls-24 {
        fill: #8a73b4;
      }

      .cls-33 {
        clip-path: url(#clippath-1);
      }

      .cls-34 {
        clip-path: url(#clippath-2);
      }

      .cls-25 {
        fill: #e26d7b;
      }

      .cls-26 {
        fill: #dabf9d;
      }

      .cls-27 {
        fill: #58595b;
      }

      .cls-11 {
        font-size: 240.74px;
      }

      .cls-35 {
        letter-spacing: 0em;
      }

      .cls-28 {
        fill: #655385;
      }

      .cls-7 {
        stroke: #2e5e63;
      }

      .cls-29 {
        fill: #487c7c;
      }

      .cls-36 {
        letter-spacing: 0em;
      }

      .cls-37 {
        letter-spacing: 0em;
      }

      .cls-30 {
        fill: #2e5e63;
      }

      .cls-38 {
        letter-spacing: 0em;
      }

      .cls-8 {
        stroke: #c22d40;
        stroke-width: 8px;
      }
    </style>
    <linearGradient id="linear-gradient" x1="-2884.57" y1="-4692.76" x2="-2884.57" y2="-4477.42" gradientTransform="translate(-610.66 -3701.68) rotate(-70) scale(1 -1)" gradientUnits="userSpaceOnUse">
      <stop offset="0" stop-color="#587d61"/>
      <stop offset="1" stop-color="#82783d"/>
    </linearGradient>
    <clipPath id="clippath">
      <path class="cls-4" d="M2159.41,838.73v171.73c0,16.31,94.06,29.52,210.08,29.52s210.08-13.22,210.08-29.52v-171.73h-420.16Z"/>
    </clipPath>
    <clipPath id="clippath-1">
      <path class="cls-4" d="M2472.4,975.73s-19.56,25.46-43.69,25.46-43.69-25.46-43.69-25.46c0,0,19.56-24.2,43.69-24.2s43.69,24.2,43.69,24.2Z"/>
    </clipPath>
    <clipPath id="clippath-2">
      <path class="cls-4" d="M2350.24,974.04s-19.56,25.46-43.69,25.46-43.69-25.46-43.69-25.46c0,0,19.56-24.2,43.69-24.2s43.69,24.2,43.69,24.2Z"/>
    </clipPath>
  </defs>
  <rect class="cls-26" y="-5.15" width="3105.4" height="1751.94"/>
  <path class="cls-28" d="M3655.62-376.48c-145.98-156.71-170.83-98.83-384.98-96.77-214.16,2.06-213,122.06-427.16,124.12-214.15,2.06-215.31-117.93-429.46-115.87-214.16,2.06-213,122.06-427.16,124.12-214.16,2.06-215.31-117.93-429.47-115.87s-235.28-47.35-384.77,106c-107.73,110.52-2.01,118.56,87.75,244.12,89.76,125.55,187.38,55.76,277.14,181.31,89.76,125.55-7.86,195.34,81.9,320.89,89.76,125.55,187.38,55.76,277.14,181.32,89.76,125.55-7.86,195.34,81.91,320.9,89.76,125.55,167.03,62.38,272.23,175.31,18.54,19.9-16.7,100.9,10.5,100.9s27.2-120,54.4-120,27.2,120,54.4,120,27.2-120,54.4-120,27.2,120,54.41,120-7.55-82.4,11.44-101.88c111.97-114.87,187.89-49.38,285.08-176.99,97.19-127.61,1.73-200.32,98.92-327.93,97.19-127.61,192.66-54.91,289.85-182.52,97.19-127.62,1.73-200.32,98.92-327.94,97.19-127.62,152.12-73.17,278.89-171.46,123.91-96.08,223.06-144.38,113.72-261.75Z"/>
  <path class="cls-17" d="M3289.41-415.8c-90.63-128.32-108.09-94.61-265.18-94.61s-157.1,120-314.19,120c-157.09,0-157.09-120-314.19-120-157.1,0-157.1,120-314.2,120-157.1,0-157.1-120-314.2-120s-172.64-30.79-265.92,95.62c-84.48,114.49-39.16,118.53,23.78,246.14,62.93,127.61,170.56,74.53,233.49,202.15,62.94,127.61-44.69,180.69,18.25,308.3s170.56,74.54,233.5,202.15c62.94,127.62-44.69,180.69,18.25,308.31,62.94,127.62,146.6,77.85,228.69,194.08,15.69,22.22-21.81,94.61,5.39,94.61s27.2-120,54.4-120,27.2,120,54.4,120,27.2-120,54.4-120,27.2,120,54.41,120-10.02-73.73,6.13-95.62c85.57-115.96,168.37-64.11,235.33-191.73,66.96-127.61-39.3-183.37,27.66-310.98,66.96-127.61,173.22-71.86,240.18-199.47s-39.3-183.37,27.66-310.99c66.96-127.62,140.02-78.5,232.92-188.68,86.12-102.14,122.18-141.58,39.04-259.29Z"/>
  <g id="Plant_1" data-name="Plant 1">
    <path class="cls-20" d="M2610.29,540.43c-9.07,24.94,25.68,90.01,53.06,98.82,34.84,11.21,136.9,8.9,149.41-25.49,12.52-34.39-63.91-102.46-98.08-115.57-21.68-8.32-95.32,17.31-104.4,42.25Z"/>
    <path class="cls-16" d="M2812.76,613.76c-35.11-8.12-69.28-19.16-103.26-30.94-33.9-12.01-67.47-24.75-99.95-40.37,35.12,8.1,69.29,19.14,103.26,30.94,33.89,12.03,67.46,24.77,99.95,40.37h0Z"/>
    <path class="cls-16" d="M2739.3,587.97c7.21-6.83,15.29-12.42,23.63-17.7,8.4-5.18,16.96-9.99,26.27-13.46-7.21,6.84-15.28,12.43-23.63,17.7-8.4,5.17-16.97,9.98-26.27,13.46h0Z"/>
    <path class="cls-16" d="M2699.04,573.32c9.88-8.5,20.62-15.75,31.6-22.68,11.04-6.83,22.26-13.3,34.25-18.44-9.88,8.51-20.61,15.76-31.6,22.68-11.05,6.82-22.27,13.29-34.25,18.44h0Z"/>
    <path class="cls-16" d="M2654.09,556.96c12.33-10.04,25.52-18.81,38.93-27.26,13.48-8.36,27.14-16.35,41.58-23.03-12.33,10.05-25.51,18.82-38.93,27.26-13.49,8.35-27.15,16.34-41.58,23.03h0Z"/>
    <path class="cls-16" d="M2697.72,572.19c5.87,11.64,10.3,23.81,14.38,36.14,3.96,12.37,7.53,24.82,9.63,37.69-5.88-11.64-10.31-23.81-14.38-36.14-3.96-12.37-7.52-24.82-9.63-37.69h0Z"/>
    <path class="cls-16" d="M2652.66,557.57c6.49,13.58,11.54,27.67,16.23,41.92,4.58,14.29,8.76,28.66,11.47,43.46-6.5-13.57-11.55-27.67-16.23-41.92-4.57-14.29-8.75-28.66-11.47-43.46h0Z"/>
    <path class="cls-16" d="M2738.94,586.07c4.89,8.65,8.36,17.84,11.48,27.2,3,9.4,5.6,18.87,6.72,28.75-4.9-8.65-8.37-17.83-11.48-27.2-2.99-9.4-5.59-18.87-6.72-28.75h0Z"/>
  </g>
  <path class="cls-24" d="M2916.89-422.11c-47.53-88.84-49.47-85.49-150.19-82.7-100.72,2.79-97.39,122.74-198.11,125.53-100.72,2.79-104.04-117.16-204.76-114.37-100.72,2.79-97.39,122.74-198.11,125.53-100.72,2.79-104.04-117.16-204.76-114.37s-101.37,1.77-145.98,92.12c-57.08,115.61-72.43,114.42-33.82,237.43,38.61,123.01,153.1,87.07,191.72,210.08,38.61,123.01-75.88,158.95-37.27,281.96,38.61,123.01,153.1,87.07,191.72,210.09,38.61,123.01-75.88,158.95-37.27,281.96s126.56,86.07,187.38,199.75c12.83,23.98-25.7,88.3,1.49,88.3s27.2-120,54.4-120,27.2,120,54.4,120,27.2-120,54.4-120,27.2,120,54.41,120-11.44-62.17.61-86.56c57.79-117.06,146.52-83.2,181.42-209,34.9-125.8-80.73-157.88-45.83-283.68,34.9-125.8,150.54-93.72,185.44-219.52,34.9-125.8-80.73-157.88-45.82-283.69,34.9-125.8,133.35-92,183.1-212.7,44.84-108.78,23.02-131.05-38.57-246.17Z"/>
  <g id="Body-2" data-name="Body">
    <path class="cls-22" d="M2752.59,1758.91c0-213.79-173.31-387.1-387.1-387.1s-387.1,173.31-387.1,387.1,774.21,213.79,774.21,0Z"/>
    <path class="cls-19" d="M2211.01,1403.85c109.07,136.89,262.57,34.49,316.14,3.23-205.21,252.4-316.14-3.23-316.14-3.23Z"/>
    <path class="cls-22" d="M2580.98,1008.11c-16.96,13.95-104.55,24.59-210.08,24.59s-193.12-10.63-210.08-24.59c-21.65,41.74-34.09,92.97-34.09,152.63,0,176.91,109.32,320.32,244.17,320.32s244.17-143.41,244.17-320.32c0-59.66-12.45-110.89-34.09-152.63Z"/>
    <path class="cls-2" d="M2234.97,1163.09c23.41,23.41,61.3,23.41,84.71,0"/>
    <path class="cls-2" d="M2415.92,1163.09c23.41,23.41,61.3,23.41,84.71,0"/>
    <path class="cls-1" d="M2319.69,1081.52c-46.76-17.14-96.12.44-110.36,39.31"/>
    <path class="cls-1" d="M2414.59,1081.52c46.76-17.14,96.12.44,110.36,39.31"/>
    <path class="cls-2" d="M2286.18,1298.95c37.8,37.8,131.63,37.8,169.44,0"/>
    <line class="cls-2" x1="2361.78" y1="1171.87" x2="2343.27" y2="1267.12"/>
    <line class="cls-2" x1="2387.7" y1="1268.35" x2="2343.27" y2="1267.12"/>
    <path class="cls-22" d="M2687.15,1202.78c-10.13,39.97-44.64,65.7-77.07,57.48s-50.52-47.29-40.39-87.25,44.64-65.7,77.07-57.48c32.44,8.22,50.52,47.29,40.39,87.25"/>
    <path class="cls-22" d="M2054.65,1214.84c10.13,39.97,44.64,65.7,77.07,57.48s50.52-47.29,40.39-87.25-44.64-65.7-77.07-57.48c-32.44,8.22-50.52,47.29-40.39,87.25"/>
    <path class="cls-6" d="M2651.08,1205.91c1.8,14.74-8.7,28.14-23.44,29.94"/>
    <path class="cls-6" d="M2621.14,1182.48c14.74-1.8,28.14,8.7,29.94,23.44"/>
    <path class="cls-6" d="M2620.83,1199.95c-14.06-22.34-8.46-56.36,4.41-62.29,9.15-4.21,22.5.08,32.82,9.72"/>
    <path class="cls-6" d="M2090.63,1219.92c-1.8,14.74,8.7,28.14,23.44,29.94"/>
    <path class="cls-6" d="M2120.57,1196.48c-14.74-1.8-28.14,8.7-29.94,23.44"/>
    <path class="cls-6" d="M2120.88,1213.96c14.06-22.34,8.46-56.36-4.41-62.29-9.15-4.21-22.5.08-32.82,9.72"/>
    <ellipse class="cls-29" cx="2370.9" cy="1010.22" rx="210.08" ry="29.52"/>
  </g>
  <g id="Plant_2" data-name="Plant 2">
    <path class="cls-30" d="M2212.28,635.53c6.31,34.72-17.93,91.23-27.97,89.41-14.97-2.71-11.59-78.79-11.39-82.91,2.08-42.94,14.44-94.11,20.77-89.2,1.98,1.54,7.05,19.27,18.59,82.7Z"/>
    <path class="cls-30" d="M2253.56,710.78c-8.33,34.29-53.43,76.09-61.87,70.35-12.58-8.56,21.4-76.71,23.26-80.39,19.34-38.4,51.41-80.14,55.2-73.08,1.19,2.21-1.38,20.47-16.59,83.12Z"/>
    <path class="cls-30" d="M2277.31,777.13c-12.46,33.01-62.34,68.98-70.01,62.26-11.44-10.03,30.63-73.52,32.92-76.94,23.89-35.74,60.83-73.25,63.73-65.78.91,2.34-3.87,20.15-26.64,80.46Z"/>
    <path class="cls-30" d="M2280.2,840.37c-9.39,24.87-46.96,51.97-52.74,46.9-8.62-7.56,23.07-55.38,24.8-57.96,18-26.93,45.82-55.18,48.01-49.55.68,1.76-2.92,15.18-20.07,60.62Z"/>
    <path class="cls-30" d="M2279.27,902.85c-6.49,21.1-33.55,43.68-37.86,39.26-6.42-6.59,16.03-46.96,17.25-49.14,12.75-22.73,32.67-46.44,34.36-41.6.53,1.51-1.9,12.92-13.75,51.48Z"/>
    <path class="cls-30" d="M2148.87,693.38c26.35,23.46,42.06,82.92,33.03,87.67-13.46,7.08-57.66-54.94-60.03-58.31-24.81-35.12-46.58-83.04-38.57-83.07,2.51,0,17.43,10.84,65.57,53.7Z"/>
    <path class="cls-30" d="M2108.59,792.67c25.36,24.53,85.83,35.76,89.89,26.39,6.06-13.95-59.09-53.39-62.62-55.51-36.87-22.12-86.28-40.26-85.71-32.27.18,2.5,12.11,16.57,58.45,61.38Z"/>
    <path class="cls-30" d="M2137.6,853.3c23.87,15.8,73.77,15.77,75.62,7.7,2.76-12.03-55.06-33.81-58.19-34.97-32.69-12.16-74.8-19.29-73.16-13,.51,1.97,12.12,11.42,55.74,40.28Z"/>
    <path class="cls-30" d="M2179.97,908.57c17.83,10.22,56.66,7.85,58.48,1.96,2.71-8.77-41.25-21.69-43.64-22.38-24.87-7.2-57.3-10.33-56.32-5.89.31,1.39,8.89,7.63,41.47,26.31Z"/>
    <path class="cls-7" d="M2241.95,957.64c4.63-88.98-65.92-111.51-56.65-253.36"/>
  </g>
  <g id="Brain">
    <g class="cls-31">
      <g>
        <g>
          <circle class="cls-18" cx="2371.34" cy="1016.61" r="113.2"/>
          <g>
            <path class="cls-25" d="M2555.27,1061.69c1.2-13.63,2.13-24.76-8.1-32.37,7.41-6.24,7.44-16.87,8.36-27.29,1.85-20.89-8.58-37.75-29.47-39.59-.33-.03-.65-.04-.97-.06.87-2.68,1.46-5.49,1.72-8.41,1.85-20.89-13.59-39.32-34.48-41.17-4.44-.39-8.76,0-12.85,1.06-3.01-16.37-16.61-29.4-34-30.93-20.89-1.85-55.56-2.17-57.41,18.72,0,0-.47,2.48-.47,2.49-.09.97.46,5.28-.49,5.53-15.07,3.95-11.24,26.82-12.69,43.22-.96,10.86,2.76,21.06,9.49,28.6-7.94,6.25-8.38,15.59-9.34,26.46-1,11.36-1.9,22.03,5.41,29.66-8.54,6.23-7.4,17.43-8.4,28.79-1.85,20.89,6.54,37.87,27.43,39.71.32.03.64.04.96.06-.86,2.66-1.45,5.45-1.7,8.36-1.85,20.89,15.06,30.61,35.95,32.46,15.55,1.37,28.26,1.88,35.26-11.02,6.67,10.15,11.6,9.53,24.96,9.66,18.51.17,32.34-13.94,37.7-31.66,2.07-6.82,4.99-7.56,2.16-17.46,15-3.99,19.53-18.46,20.97-34.82Z"/>
            <path class="cls-8" d="M2403.3,930.14c0,15.8,12.78,28.58,28.58,28.58"/>
            <path class="cls-8" d="M2404.95,1036.88c-5.28,14.89,2.5,31.21,17.39,36.49"/>
            <path class="cls-8" d="M2521.09,1063.77c0-15.8-12.78-28.58-28.58-28.58"/>
            <path class="cls-8" d="M2417.59,1014.48c12.16,10.08,30.16,8.4,40.25-3.76"/>
            <path class="cls-8" d="M2458.79,1091.84c-15.68,1.92-26.82,16.16-24.9,31.84"/>
            <path class="cls-8" d="M2485.92,1055.13c10.12-12.13,8.49-30.14-3.64-40.26"/>
            <path class="cls-8" d="M2463.93,961.23c15.8,0,28.58,12.78,28.58,28.58"/>
            <path class="cls-8" d="M2431.88,930.02c15.85,0,28.7,12.85,28.7,28.7s-12.85,28.7-28.7,28.7"/>
            <path class="cls-8" d="M2496.55,1086.6c-10.42,11.94-28.55,13.17-40.49,2.75-11.94-10.42-13.17-28.55-2.75-40.49"/>
          </g>
          <g>
            <path class="cls-25" d="M2183.7,1061.69c-1.2-13.63-2.13-24.76,8.1-32.37-7.41-6.24-7.44-16.87-8.36-27.29-1.85-20.89,8.58-37.75,29.47-39.59.33-.03.65-.04.97-.06-.87-2.68-1.46-5.49-1.72-8.41-1.85-20.89,13.59-39.32,34.48-41.17,4.44-.39,8.76,0,12.85,1.06,3.01-16.37,16.61-29.4,34-30.93,20.89-1.85,55.56-2.17,57.41,18.72,0,0,.47,2.48.47,2.49.09.97-.46,5.28.49,5.53,15.07,3.95,11.24,26.82,12.69,43.22.96,10.86-2.76,21.06-9.49,28.6,7.94,6.25,8.38,15.59,9.34,26.46,1,11.36,1.9,22.03-5.41,29.66,8.54,6.23,7.4,17.43,8.4,28.79,1.85,20.89-6.54,37.87-27.43,39.71-.32.03-.64.04-.96.06.86,2.66,1.45,5.45,1.7,8.36,1.85,20.89-15.06,30.61-35.95,32.46-15.55,1.37-28.26,1.88-35.26-11.02-6.67,10.15-11.6,9.53-24.96,9.66-18.51.17-32.34-13.94-37.7-31.66-2.07-6.82-4.99-7.56-2.16-17.46-15-3.99-19.53-18.46-20.97-34.82Z"/>
            <path class="cls-8" d="M2335.67,930.14c0,15.8-12.78,28.58-28.58,28.58"/>
            <path class="cls-8" d="M2334.02,1036.88c5.28,14.89-2.5,31.21-17.39,36.49"/>
            <path class="cls-8" d="M2217.88,1063.77c0-15.8,12.78-28.58,28.58-28.58"/>
            <path class="cls-8" d="M2321.38,1014.48c-12.16,10.08-30.16,8.4-40.25-3.76"/>
            <path class="cls-8" d="M2280.18,1091.84c15.68,1.92,26.82,16.16,24.9,31.84"/>
            <path class="cls-8" d="M2253.05,1055.13c-10.12-12.13-8.49-30.14,3.64-40.26"/>
            <path class="cls-8" d="M2275.04,961.23c-15.8,0-28.58,12.78-28.58,28.58"/>
            <path class="cls-8" d="M2307.09,930.02c-15.85,0-28.7,12.85-28.7,28.7s12.85,28.7,28.7,28.7"/>
            <path class="cls-8" d="M2242.42,1086.6c10.42,11.94,28.55,13.17,40.49,2.75,11.94-10.42,13.17-28.55,2.75-40.49"/>
          </g>
        </g>
        <g>
          <g class="cls-33">
            <path class="cls-12" d="M2472.4,975.73s-19.56,25.46-43.69,25.46-43.69-25.46-43.69-25.46c0,0,19.56-24.2,43.69-24.2s43.69,24.2,43.69,24.2Z"/>
            <circle class="cls-13" cx="2428.72" cy="976.87" r="16.97"/>
          </g>
          <g class="cls-34">
            <path class="cls-12" d="M2350.24,974.04s-19.56,25.46-43.69,25.46-43.69-25.46-43.69-25.46c0,0,19.56-24.2,43.69-24.2s43.69,24.2,43.69,24.2Z"/>
            <circle class="cls-13" cx="2306.55" cy="975.18" r="16.97"/>
          </g>
        </g>
      </g>
    </g>
  </g>
  <g id="Decorations">
    <path class="cls-12" d="M2736.98,762.35c6.88,6.88,36.5,13.5,36.5,13.5,0,0-29.62,6.63-36.5,13.5-6.88,6.88-13.5,36.5-13.5,36.5,0,0-6.63-29.62-13.5-36.5s-36.5-13.5-36.5-13.5c0,0,29.62-6.63,36.5-13.5,6.88-6.88,13.5-36.5,13.5-36.5,0,0,6.63,29.62,13.5,36.5Z"/>
    <path class="cls-12" d="M1782.95,414.83c3.44,3.44,18.25,6.75,18.25,6.75,0,0-14.81,3.31-18.25,6.75s-6.75,18.25-6.75,18.25c0,0-3.31-14.81-6.75-18.25s-18.25-6.75-18.25-6.75c0,0,14.81-3.31,18.25-6.75s6.75-18.25,6.75-18.25c0,0,3.31,14.81,6.75,18.25Z"/>
    <path class="cls-12" d="M1596.32,121.18c6.88,6.88,36.5,13.5,36.5,13.5,0,0-29.62,6.63-36.5,13.5-6.88,6.88-13.5,36.5-13.5,36.5,0,0-6.63-29.62-13.5-36.5s-36.5-13.5-36.5-13.5c0,0,29.62-6.63,36.5-13.5,6.88-6.88,13.5-36.5,13.5-36.5,0,0,6.63,29.62,13.5,36.5Z"/>
    <path class="cls-12" d="M2517.73,177.05c6.88,6.88,36,11.46,36,11.46,0,0-29.62,6.63-36.5,13.5-6.88,6.88-13.5,53.22-13.5,53.22,0,0-6.63-46.34-13.5-53.22-6.88-6.88-36.5-13.5-36.5-13.5,0,0,29.62-6.63,36.5-13.5,6.88-6.88,13.5-55.51,13.5-55.51,0,0,7.12,50.67,14,57.55Z"/>
    <path class="cls-12" d="M2362.06,457.51c6.88,6.88,36,11.46,36,11.46,0,0-29.62,6.63-36.5,13.5-6.88,6.88-13.5,53.22-13.5,53.22,0,0-6.63-46.34-13.5-53.22-6.88-6.88-36.5-13.5-36.5-13.5,0,0,29.62-6.63,36.5-13.5,6.88-6.88,13.5-55.51,13.5-55.51,0,0,7.12,50.67,14,57.55Z"/>
    <path class="cls-12" d="M2038.67,741.58c3.38,3.38,17.7,5.63,17.7,5.63,0,0-14.56,3.26-17.94,6.64-3.38,3.38-6.64,26.16-6.64,26.16,0,0-3.26-22.78-6.64-26.16s-17.94-6.64-17.94-6.64c0,0,14.56-3.26,17.94-6.64s6.64-27.29,6.64-27.29c0,0,3.5,24.91,6.88,28.29Z"/>
    <circle class="cls-12" cx="2477.82" cy="810.69" r="26.34"/>
    <circle class="cls-12" cx="2187.2" cy="245.02" r="26.34"/>
    <circle class="cls-12" cx="3050.98" cy="161.03" r="26.34"/>
    <circle class="cls-3" cx="2566.88" cy="374.65" r="26.34"/>
    <circle class="cls-3" cx="1990.65" cy="554.51" r="26.34"/>
  </g>
  <g>
    <g>
      <path class="cls-25" d="M350.31,507.88c-7.72,0-14.75-2.12-20.57-5.83-5.93,3.74-12.98,5.83-20.6,5.83h-15.89c-7.62,0-14.67-2.1-20.6-5.83-5.82,3.72-12.85,5.83-20.57,5.83h-26.96c-21.22,0-37.22-16-37.22-37.22v-154.07c0-21.22,16-37.22,37.22-37.22h49.83c10.35,0,19.5,3.76,26.24,10.33,6.75-6.56,15.89-10.33,26.24-10.33h49.83c21.22,0,37.22,16,37.22,37.22v154.07c0,21.22-16,37.22-37.22,37.22h-26.96Z"/>
      <rect class="cls-25" x="378.57" y="279.36" width="100.93" height="228.52" rx="37.22" ry="37.22"/>
      <path class="cls-25" d="M559.03,507.88c-9.99,0-18.97-3.41-25.88-9.54-6.55,5.98-15.4,9.54-25.4,9.54h-26.96c-21.22,0-37.22-16-37.22-37.22v-154.07c0-21.22,16-37.22,37.22-37.22h35.39c9.99,0,18.97,3.41,25.88,9.54,6.55-5.98,15.4-9.54,25.4-9.54h26.96c21.22,0,37.22,16,37.22,37.22v154.07c0,21.22-16,37.22-37.22,37.22h-35.39Z"/>
      <path class="cls-25" d="M632.94,507.88c-21.22,0-37.22-16-37.22-37.22v-153.83c0-20.65,15.02-36.39,35.72-37.43.5-.02,1-.04,1.5-.04h53.68c30.75,0,53.13,7.53,68.41,23.01,14.65,14.84,21.77,36.03,21.77,64.77v52.72c0,28.73-7.1,49.94-21.71,64.82-15.31,15.61-37.71,23.19-68.48,23.19h-53.68Z"/>
      <path class="cls-25" d="M898.71,512.21c-55.78,0-90.42-33.91-90.42-88.5v-60.18c0-54.59,34.65-88.5,90.42-88.5,21.76,0,51.91,5.23,71.97,30.15,10.78,13.39,16.89,30.19,18.16,49.94,0,.08.01.17.02.26.38,6.83-.91,13.21-3.57,18.79,2.48,5.06,3.86,10.83,3.86,17.06v32.5c0,54.59-34.65,88.5-90.42,88.5Z"/>
      <path class="cls-25" d="M1062.9,507.88c-9.7,0-18.31-3.34-24.8-9-6.49,5.66-15.1,9-24.8,9h-26.96c-21.22,0-37.22-16.42-37.22-38.18v-102.07c0-18.88,1.7-40.7,14.28-59.41,14.81-22.02,39.94-33.18,74.7-33.18s59.89,11.16,74.7,33.18c12.59,18.72,14.28,40.54,14.28,59.41v102.07c0,21.77-16,38.18-37.22,38.18h-26.96Z"/>
      <path class="cls-25" d="M1211.43,507.88c-11.14,0-21.44-5.05-28.16-13.36-6.82,8.21-17.14,13.36-28.89,13.36h-26.96c-21.01,0-37.46-16.46-37.46-37.46v-153.59c0-21.01,16.46-37.46,37.46-37.46h52.72c29.66,0,51.63,7.42,67.17,22.67,15.48,15.19,23.01,36.49,23.01,65.11,0,21.59-4.49,39.4-13.38,53.24l16.3,30.29c6.65,12.34,6.43,26.72-.57,38.44-7.02,11.75-19.65,18.77-33.79,18.77h-27.44Z"/>
      <path class="cls-25" d="M1269.93,507.88c-21.22,0-37.22-16-37.22-37.22v-153.83c0-20.65,15.02-36.39,35.72-37.43.5-.02,1-.04,1.5-.04h53.68c30.75,0,53.13,7.53,68.41,23.01,14.65,14.84,21.77,36.03,21.77,64.77v52.72c0,28.73-7.1,49.94-21.71,64.82-15.31,15.61-37.71,23.19-68.48,23.19h-53.68Z"/>
      <path class="cls-25" d="M1412.69,507.88c-21.22,0-37.22-16-37.22-37.22v-154.07c0-21.22,16-37.22,37.22-37.22h101.11c21.22,0,37.22,16,37.22,37.22v26.96c0,15.35-8.37,27.97-21.04,33.78.06.93.1,1.87.1,2.81v26.96c0,.95-.03,1.89-.1,2.81,12.67,5.81,21.04,18.43,21.04,33.78v26.96c0,21.22-16,37.22-37.22,37.22h-101.11Z"/>
      <path class="cls-25" d="M1625.02,507.88c-9.99,0-18.97-3.41-25.88-9.54-6.55,5.98-15.4,9.54-25.4,9.54h-26.96c-21.22,0-37.22-16-37.22-37.22v-154.07c0-21.22,16-37.22,37.22-37.22h35.39c9.99,0,18.97,3.41,25.88,9.54,6.55-5.98,15.4-9.54,25.4-9.54h26.96c21.22,0,37.22,16,37.22,37.22v154.07c0,21.22-16,37.22-37.22,37.22h-35.39Z"/>
    </g>
    <text class="cls-11" transform="translate(194.72 462.96)"><tspan x="0" y="0">Mind Garden</tspan></text>
  </g>
  <g>
    <rect class="cls-15" x="537.61" y="765.61" width="947.04" height="299.35" rx="45" ry="45"/>
    <text class="cls-10" transform="translate(736.67 981.67)"><tspan class="cls-37" x="0" y="0">ST</tspan><tspan class="cls-38" x="217.36" y="0">A</tspan><tspan class="cls-32" x="327.56" y="0">R</tspan><tspan x="436.43" y="0">T</tspan></text>
  </g>
  <g>
    <rect class="cls-15" x="537.61" y="1151.92" width="947.04" height="299.35" rx="45" ry="45"/>
    <text class="cls-9" transform="translate(713.44 1327.75) scale(1.12 1)"><tspan x="0" y="0">HOW </tspan><tspan class="cls-36" x="202.4" y="0">T</tspan><tspan class="cls-35" x="253.8" y="0">O PLAY</tspan></text>
  </g>
  <g>
    <rect class="cls-21" x="1798.7" y="529.09" width="182.47" height="82.81" transform="translate(719.3 -1019.13) rotate(36.83)"/>
    <g>
      <circle class="cls-21" cx="1948.38" cy="644.65" r="65.71"/>
      <circle class="cls-14" cx="1948.38" cy="644.65" r="44.98"/>
      <g>
        <circle class="cls-27" cx="1962.83" cy="625.65" r="11.94"/>
        <circle class="cls-27" cx="1934.21" cy="663.86" r="11.94"/>
        <circle class="cls-27" cx="1968.31" cy="659.57" r="11.94"/>
        <circle class="cls-27" cx="1928.45" cy="629.72" r="11.94"/>
      </g>
    </g>
    <g>
      <circle class="cls-21" cx="1802.34" cy="535.26" r="65.71"/>
      <circle class="cls-14" cx="1802.34" cy="535.26" r="44.98"/>
      <g>
        <polygon class="cls-27" points="1787.61 535.43 1773.03 524.51 1783.93 509.96 1798.51 520.88 1799.52 533 1787.61 535.43"/>
        <polygon class="cls-27" points="1806.32 549.44 1820.9 560.36 1831.8 545.82 1817.22 534.9 1805.3 537.33 1806.32 549.44"/>
        <polygon class="cls-27" points="1818.34 529.5 1829.26 514.92 1814.71 504.02 1803.79 518.6 1806.22 530.51 1818.34 529.5"/>
        <polygon class="cls-27" points="1801.42 552.31 1790.5 566.89 1775.95 556 1786.87 541.42 1798.99 540.4 1801.42 552.31"/>
      </g>
    </g>
    <g>
      <rect class="cls-23" x="1858.27" y="574.11" width="20.54" height="6.16" transform="translate(719.04 -1004.97) rotate(36.83)"/>
      <rect class="cls-23" x="1879.26" y="589.83" width="20.54" height="6.16" transform="translate(732.66 -1014.42) rotate(36.83)"/>
    </g>
    <path class="cls-5" d="M1958.43,472.66s4.48,18.8.41,22.79c-6.61,6.49-30.15-1.09-36.62,5.54s-3.53,27.96-8.98,35.24"/>
  </g>
  <rect class="cls-12" x="562.32" y="884.69" width="23.95" height="23.95" rx="11.98" ry="11.98"/>
  <path class="cls-12" d="M1451.04,989.02c-6.59.12-11.75,5.78-11.75,12.37v9.06c0,3.08-2.5,5.57-5.57,5.57h-33.12c-6.59,0-12.25,5.16-12.37,11.75s5.29,12.2,11.98,12.2h40.6c12.4,0,22.45-10.05,22.45-22.45v-16.54c0-6.69-5.48-12.1-12.2-11.98Z"/>
  <path class="cls-12" d="M613.29,806.21c-.12,6.59-5.78,11.75-12.37,11.75h-9.06c-3.08,0-5.57,2.5-5.57,5.57v33.12c0,6.59-5.16,12.25-11.75,12.37-6.72.12-12.2-5.29-12.2-11.98v-40.6c0-12.4,10.05-22.45,22.45-22.45h16.54c6.69,0,12.1,5.48,11.98,12.2Z"/>
  <rect class="cls-12" x="560.67" y="1269.29" width="23.95" height="23.95" rx="11.98" ry="11.98"/>
  <path class="cls-12" d="M1449.39,1373.61c-6.59.12-11.75,5.78-11.75,12.37v9.06c0,3.08-2.5,5.57-5.57,5.57h-33.12c-6.59,0-12.25,5.16-12.37,11.75s5.29,12.2,11.98,12.2h40.6c12.4,0,22.45-10.05,22.45-22.45v-16.54c0-6.69-5.48-12.1-12.2-11.98Z"/>
  <path class="cls-12" d="M611.63,1190.8c-.12,6.59-5.78,11.75-12.37,11.75h-9.06c-3.08,0-5.57,2.5-5.57,5.57v33.12c0,6.59-5.16,12.25-11.75,12.37-6.72.12-12.2-5.29-12.2-11.98v-40.6c0-12.4,10.05-22.45,22.45-22.45h16.54c6.69,0,12.1,5.48,11.98,12.2Z"/>
</svg>