<?xml version="1.0" encoding="UTF-8"?>
<svg id="Good_Guy" data-name="Good Guy" xmlns="http://www.w3.org/2000/svg" viewBox="0 0 309.43 291.06">
  <defs>
    <style>
      .cls-1, .cls-2 {
        stroke-width: 7px;
      }

      .cls-1, .cls-2, .cls-3 {
        fill: none;
        stroke-linecap: round;
        stroke-miterlimit: 10;
      }

      .cls-1, .cls-3 {
        stroke: #589da0;
      }

      .cls-2 {
        stroke: #58595b;
      }

      .cls-4 {
        fill: #9bd2d2;
        stroke-width: 0px;
      }

      .cls-3 {
        stroke-width: 5px;
      }
    </style>
  </defs>
  <path class="cls-4" d="M273.12,135.74c0,85.78-53.01,155.32-118.4,155.32S36.31,221.52,36.31,135.74,89.32,0,154.72,0s118.4,49.96,118.4,135.74Z"/>
  <path class="cls-1" d="M176.54,136.88h41.08"/>
  <path class="cls-2" d="M130.17,115.54c-12.96-20.38-37.15-28.15-54.09-17.38"/>
  <path class="cls-2" d="M175.24,114.29c13.88-19.76,38.41-26.41,54.83-14.87"/>
  <line class="cls-1" x1="150.29" y1="141.14" x2="141.32" y2="187.32"/>
  <line class="cls-1" x1="162.86" y1="187.92" x2="141.32" y2="187.32"/>
  <path class="cls-4" d="M308.07,156.12c-4.91,19.38-21.65,31.86-37.37,27.87s-24.5-22.93-19.58-42.31c4.91-19.38,21.65-31.86,37.37-27.87,15.73,3.99,24.5,22.93,19.58,42.31"/>
  <path class="cls-3" d="M290.58,157.64c.87,7.15-4.22,13.65-11.36,14.52"/>
  <path class="cls-3" d="M276.06,146.28c7.15-.87,13.65,4.22,14.52,11.36"/>
  <path class="cls-3" d="M275.91,154.75c-6.82-10.83-4.1-27.33,2.14-30.2,4.44-2.04,10.91.04,15.91,4.71"/>
  <g>
    <path class="cls-4" d="M1.36,156.12c4.91,19.38,21.65,31.86,37.37,27.87s24.5-22.93,19.58-42.31c-4.91-19.38-21.65-31.86-37.37-27.87-15.73,3.99-24.5,22.93-19.58,42.31"/>
    <path class="cls-3" d="M18.81,158.58c-.87,7.15,4.22,13.65,11.36,14.52"/>
    <path class="cls-3" d="M33.33,147.22c-7.15-.87-13.65,4.22-14.52,11.36"/>
    <path class="cls-3" d="M33.48,155.69c6.82-10.83,4.1-27.33-2.14-30.2-4.44-2.04-10.91.04-15.91,4.71"/>
  </g>
  <path class="cls-1" d="M100.47,219.49c11,0,11,14,22.01,14s11-14,22.01-14,11.01,14,22.01,14,11.01-14,22.01-14,11.01,14,22.01,14"/>
  <line class="cls-1" x1="176.54" y1="136.85" x2="210.53" y2="151.04"/>
  <line class="cls-1" x1="176.54" y1="136.88" x2="210.53" y2="122.69"/>
  <path class="cls-1" d="M131.52,136.88h-41.08"/>
  <line class="cls-1" x1="131.52" y1="136.85" x2="97.54" y2="151.04"/>
  <line class="cls-1" x1="131.52" y1="136.88" x2="97.54" y2="122.69"/>
</svg>