<?xml version="1.0" encoding="utf-8"?>
<!-- Generator: Adobe Illustrator 28.3.0, SVG Export Plug-In . SVG Version: 6.00 Build 0)  -->
<svg version="1.1" id="Good_Guy" xmlns="http://www.w3.org/2000/svg" xmlns:xlink="http://www.w3.org/1999/xlink" x="0px" y="0px"
	 viewBox="0 0 1600 900" style="enable-background:new 0 0 1600 900;" xml:space="preserve">
<style type="text/css">
	.st0{clip-path:url(#SVGID_00000015337917396178063450000001584230374456777364_);}
	.st1{fill:#655385;}
	.st2{opacity:0.3;}
	.st3{fill:#725E94;}
	.st4{fill:#8A73B4;}
	.st5{opacity:0.5;}
	.st6{fill:#ACA5D1;}
	.st7{fill:url(#BG_Cloud_00000003807409094142359790000000289086010621082242_);}
	.st8{fill:url(#BG_CLoud_00000088108141503359404780000016614303327914534842_);}
	.st9{fill:#C22D40;}
	.st10{fill:#E26D7B;}
	.st11{fill:none;stroke:#C22D40;stroke-width:20;stroke-linecap:round;stroke-miterlimit:10;}
</style>
<g>
	<defs>
		<rect id="SVGID_1_" width="1600" height="900"/>
	</defs>
	<clipPath id="SVGID_00000172413976372555924570000007168649163978788766_">
		<use xlink:href="#SVGID_1_"  style="overflow:visible;"/>
	</clipPath>
	<g style="clip-path:url(#SVGID_00000172413976372555924570000007168649163978788766_);">
		<rect class="st1" width="1600" height="2227.1"/>
		<g class="st2">
			
				<image style="overflow:visible;enable-background:new    ;" width="8304" height="3364" xlink:href="7CD2105514062521.png"  transform="matrix(0.2401 0 0 0.2401 -211.86 80.4928)">
			</image>
		</g>
		<path class="st3" d="M1739.4,368.5c-95.9-259.9-173.5-165.9-452.9-52.1c-231,94.1-371.5-298.3-695-90.4
			c-341.1,219.3-502.5-76.2-641.8,1C-357.4,397.2-3.5,900-3.5,900h1600C1596.5,900,1780.8,480.6,1739.4,368.5z"/>
		<g class="st2">
			
				<image style="overflow:visible;enable-background:new    ;" width="7549" height="2173" xlink:href="7CD2105514062527.png"  transform="matrix(0.2401 0 0 0.2401 -106.2601 358.2864)">
			</image>
		</g>
		<path class="st4" d="M-59.9,689.4C36,509,243.9,393.6,491.4,478.4c225,77.1,423.8,166.5,587.9,190.5
			c325.1,47.5,451.6-177.5,566.1-95.2C1721.5,628.3,1600,900,1600,900H0C0,900-101.3,767.2-59.9,689.4z"/>
		<g id="Decoration" class="st5">
			<path class="st6" d="M350.4,528.2c-2.7-2.7-14.2-5.3-14.2-5.3s11.5-2.6,14.2-5.3c2.7-2.7,5.3-14.2,5.3-14.2s2.6,11.6,5.3,14.2
				c2.7,2.7,14.2,5.3,14.2,5.3s-11.5,2.6-14.2,5.3s-5.3,14.2-5.3,14.2S353.1,530.9,350.4,528.2z"/>
			<path class="st6" d="M722.4,663.7c-1.3-1.3-7.1-2.6-7.1-2.6s5.8-1.3,7.1-2.6s2.6-7.1,2.6-7.1s1.3,5.8,2.6,7.1s7.1,2.6,7.1,2.6
				s-5.8,1.3-7.1,2.6s-2.6,7.1-2.6,7.1S723.7,665,722.4,663.7z"/>
			<path class="st6" d="M144.6,583.7c-2.7-2.7-14.2-5.3-14.2-5.3s11.6-2.6,14.2-5.3s5.3-21.6,5.3-21.6s2.6,18.9,5.3,21.6
				s14.2,5.3,14.2,5.3s-11.6,2.6-14.2,5.3s-5.3,24.5-5.3,24.5S147.3,586.3,144.6,583.7z"/>
			<path class="st6" d="M435.9,756.4c-2.7-2.7-14-4.5-14-4.5s11.5-2.6,14.2-5.3s5.3-20.8,5.3-20.8s2.6,18.1,5.3,20.8
				s14.2,5.3,14.2,5.3s-11.5,2.6-14.2,5.3s-5.3,21.6-5.3,21.6S438.6,759.1,435.9,756.4L435.9,756.4z"/>
			<path class="st6" d="M496.6,647c-2.7-2.7-14-4.5-14-4.5s11.5-2.6,14.2-5.3c2.7-2.7,5.3-20.8,5.3-20.8s2.6,18.1,5.3,20.8
				s14.2,5.3,14.2,5.3s-11.5,2.6-14.2,5.3s-5.3,21.6-5.3,21.6S499.3,649.7,496.6,647L496.6,647z"/>
			<path class="st6" d="M613.1,439c-1.3-1.3-6.9-2.2-6.9-2.2s5.7-1.3,7-2.6s2.6-10.2,2.6-10.2s1.3,8.9,2.6,10.2s7,2.6,7,2.6
				s-5.7,1.3-7,2.6s-2.6,10.6-2.6,10.6S614.4,440.3,613.1,439z"/>
			<circle class="st6" cx="451.5" cy="509.4" r="10.3"/>
			<circle class="st6" cx="564.8" cy="729.9" r="10.3"/>
			<circle class="st6" cx="228" cy="762.6" r="10.3"/>
			<circle class="st6" cx="317.5" cy="648.5" r="10.3"/>
			<circle class="st6" cx="641.4" cy="609.2" r="10.3"/>
			<path class="st6" d="M1475.1,666.7c2.7,2.7,14.2,5.3,14.2,5.3s-11.6,2.6-14.2,5.3s-5.3,14.2-5.3,14.2s-2.6-11.5-5.3-14.2
				s-14.2-5.3-14.2-5.3s11.6-2.6,14.2-5.3s5.3-14.2,5.3-14.2S1472.5,664,1475.1,666.7z"/>
			<path class="st6" d="M874.3,627.8c1.3,1.3,7.1,2.6,7.1,2.6s-5.8,1.3-7.1,2.6s-2.6,7.1-2.6,7.1s-1.3-5.8-2.6-7.1s-7.1-2.6-7.1-2.6
				s5.8-1.3,7.1-2.6s2.6-7.1,2.6-7.1S872.9,626.5,874.3,627.8z"/>
			<path class="st6" d="M801.5,513.3c2.7,2.7,14.2,5.3,14.2,5.3s-11.5,2.6-14.2,5.3s-5.3,14.2-5.3,14.2s-2.6-11.5-5.3-14.2
				s-14.2-5.3-14.2-5.3s11.5-2.6,14.2-5.3s5.3-14.2,5.3-14.2S798.8,510.6,801.5,513.3z"/>
			<path class="st6" d="M1240.3,518.9c2.7,2.7,14,4.5,14,4.5s-11.6,2.6-14.2,5.3s-5.3,20.8-5.3,20.8s-2.6-18.1-5.3-20.8
				s-14.2-5.3-14.2-5.3s11.6-2.6,14.2-5.3c2.7-2.7,5.3-21.6,5.3-21.6S1237.7,516.2,1240.3,518.9L1240.3,518.9z"/>
			<path class="st6" d="M1100,644.4c2.7,2.7,14,4.5,14,4.5s-11.6,2.6-14.2,5.3c-2.7,2.7-5.3,20.8-5.3,20.8s-2.6-18.1-5.3-20.8
				s-14.2-5.3-14.2-5.3s11.6-2.6,14.2-5.3s5.3-21.6,5.3-21.6S1097.3,641.8,1100,644.4L1100,644.4z"/>
			<path class="st6" d="M974,755.2c1.3,1.3,6.9,2.2,6.9,2.2s-5.7,1.3-7,2.6s-2.6,10.2-2.6,10.2s-1.3-8.9-2.6-10.2s-7-2.6-7-2.6
				s5.7-1.3,7-2.6s2.6-10.6,2.6-10.6S972.6,753.9,974,755.2z"/>
			<circle class="st6" cx="1234.9" cy="752.4" r="10.3"/>
			<circle class="st6" cx="1031.9" cy="561.6" r="10.3"/>
			<circle class="st6" cx="1428.2" cy="460.3" r="10.3"/>
			<circle class="st6" cx="1308.1" cy="612.1" r="10.3"/>
			<circle class="st6" cx="955.2" cy="682.3" r="10.3"/>
		</g>
		<g class="st5">
			
				<linearGradient id="BG_Cloud_00000106827449409988326520000010210340616469821071_" gradientUnits="userSpaceOnUse" x1="1431.8201" y1="2" x2="1431.8201" y2="485.3101" gradientTransform="matrix(1 0 0 -1 0 902)">
				<stop  offset="0" style="stop-color:#8A73B4"/>
				<stop  offset="0" style="stop-color:#8A73B4"/>
				<stop  offset="0.2" style="stop-color:#9989C0"/>
				<stop  offset="0.41" style="stop-color:#A398C9"/>
				<stop  offset="0.66" style="stop-color:#AAA2CF"/>
				<stop  offset="1" style="stop-color:#ACA5D1"/>
			</linearGradient>
			<path id="BG_Cloud" style="fill:url(#BG_Cloud_00000106827449409988326520000010210340616469821071_);" d="M2042.4,900
				c0.1-2.2,0.2-4.4,0.2-6.7c0-80.5-53.3-148.5-126.5-170.8c5.8-13.6,9-28.6,9-44.3c0-62.4-50.6-113.1-113.1-113.1
				c-12.4,0-24.3,2-35.5,5.7c5-12.8,7.8-26.7,7.8-41.2c0-62.5-50.6-113.1-113.1-113.1c-41.5,0-77.8,22.4-97.4,55.7
				c-16.8-5.3-34.7-8.1-53.3-8.1c-98.6,0-178.5,79.9-178.5,178.5c0,20.8,3.6,40.8,10.1,59.3c-11.5-4-23.8-6.1-36.7-6.1
				c-0.8,0-1.7,0-2.5,0.1c-14.2-84.4-87.6-148.7-176-148.7c-98.6,0-178.5,79.9-178.5,178.5c0,25.9,5.6,50.5,15.5,72.7
				c-12.4-4.7-25.8-7.2-39.9-7.2c-61,0-110.6,48.2-113,108.6L2042.4,900L2042.4,900z"/>
			
				<linearGradient id="BG_CLoud_00000153693880476849393880000000011429533200552333_" gradientUnits="userSpaceOnUse" x1="242.38" y1="-4.64" x2="242.38" y2="318.65" gradientTransform="matrix(1 0 0 -1 0 902)">
				<stop  offset="0" style="stop-color:#8A73B4"/>
				<stop  offset="0" style="stop-color:#8A73B4"/>
				<stop  offset="0.2" style="stop-color:#9989C0"/>
				<stop  offset="0.41" style="stop-color:#A398C9"/>
				<stop  offset="0.66" style="stop-color:#AAA2CF"/>
				<stop  offset="1" style="stop-color:#ACA5D1"/>
			</linearGradient>
			<path id="BG_CLoud" style="fill:url(#BG_CLoud_00000153693880476849393880000000011429533200552333_);" d="M-166.1,906.6
				c-0.1-1.5-0.1-3-0.1-4.5c0-53.8,35.6-99.3,84.6-114.2c-3.9-9.1-6-19.1-6-29.6c0-41.8,33.9-75.6,75.6-75.6
				c8.3,0,16.3,1.4,23.8,3.8C8.5,678,6.6,668.7,6.6,659c0-41.8,33.9-75.6,75.6-75.6c27.8,0,52,15,65.2,37.3
				c11.3-3.5,23.2-5.4,35.7-5.4c65.9,0,119.4,53.5,119.4,119.4c0,13.9-2.4,27.3-6.8,39.7c7.7-2.6,15.9-4.1,24.5-4.1
				c0.6,0,1.1,0,1.7,0c9.5-56.4,58.6-99.4,117.7-99.4c65.9,0,119.4,53.5,119.4,119.4c0,17.3-3.7,33.8-10.3,48.6
				c8.3-3.1,17.3-4.8,26.7-4.8c40.8,0,74,32.3,75.6,72.7H-166.1z"/>
		</g>
		<g>
			<path class="st9" d="M957.5,1057.6h-315c0,0-48.3-225.2,0-273.5c55.7-55.7,259.3-55.7,315,0
				C1005.8,832.5,957.5,1057.6,957.5,1057.6z"/>
			<g>
				<path class="st10" d="M1227,919.8c-2.8-32.1-26.9-57.2-57.1-62.7c1.9-7.5,2.7-15.5,1.9-23.7c-3.4-38.5-37.4-67-75.9-63.6
					c-5.4,0.5-10.6,1.6-15.5,3.2c0-0.6-0.1-1.2-0.1-1.8c-3.4-38.5-34.5-57.8-73-54.4c-19.2,1.7-38.8,1.8-50.3,15.4
					c-14-18.9-34.6-17.2-59.7-14.9c-30.2,2.7-56.9,11-64.2,38.7c-0.4,1.2-0.7,2.3-1,3.4c-8.7,1.7-20.9,5.4-24.9,15.8
					c-2.3,5.9,0,25.4,0,25.4v157c0,0-1.1,25.4,3.2,34.3c2.7,5.6-1.6,11,4.8,12.6c-4.1-0.3,1.2,0.4,0,0c0,0.4,0,0.8,0.1,1.2
					c3.4,38.5,34.7,54,73.3,50.6c21-1.8,41.6,0.3,53.1-15.5c14.1,13.5,33.8,11.8,54.7,10c20-1.8,37.3-2.6,48.8-17.2
					c13.9,12.4,32.7,19.3,52.8,17.5c30.3-2.7,72.5,4.4,79.8-23.4c0.5-1.7,8.4-0.7,10.2-0.9c0,0,4.6-0.9,4.6-0.9
					C1231,1022.3,1230.4,958.3,1227,919.8L1227,919.8z"/>
				<path class="st11" d="M882.1,790.3c29.2,0,52.7,23.6,52.7,52.7"/>
				<path class="st11" d="M973.1,981.3c-18.6-22.4-15.5-55.7,6.9-74.2"/>
				<path class="st11" d="M898.1,855.2c22.4-18.7,55.6-15.7,74.3,6.7"/>
				<path class="st11" d="M1071.3,895.8c0-29.2-23.6-52.7-52.7-52.7"/>
				<path class="st11" d="M1128.9,954.9c0-29.2-23.7-53-52.9-53s-53,23.7-53,53"/>
				<path class="st11" d="M854,834.7c-22,19.2-24.3,52.7-5.1,74.7s52.7,24.3,74.7,5.1"/>
				<path class="st11" d="M915.8,802.8c15.3-24.8,47.8-32.4,72.6-17.1"/>
				<path class="st11" d="M1056.3,855.5c15.3-24.8,47.8-32.4,72.6-17.1"/>
				<path class="st11" d="M1029.9,780.4c29.2,0,52.7,23.6,52.7,52.7"/>
			</g>
			<g>
				<path class="st10" d="M373,920.2c2.8-32.1,26.9-57.2,57.1-62.7c-2-7.5-2.7-15.5-2-23.7c3.4-38.5,37.4-67,76-63.6
					c5.4,0.5,10.6,1.6,15.5,3.2c0-0.6,0.1-1.2,0.1-1.8c3.4-38.5,34.5-57.8,73-54.4c19.2,1.7,38.8,1.8,50.3,15.4
					c14-18.9,34.6-17.2,59.7-14.9c30.2,2.7,56.9,11,64.2,38.7c0.4,1.2,0.7,2.3,1,3.4c8.7,1.7,20.9,5.4,24.9,15.8
					c2.3,5.9,0,25.4,0,25.4v157c0,0,1.1,25.4-3.2,34.3c-2.7,5.6,1.6,11-4.8,12.6c4.1-0.3-1.2,0.4,0,0c0,0.4,0,0.8-0.1,1.2
					c-3.4,38.5-34.7,54-73.3,50.6c-21-1.8-41.6,0.3-53.1-15.5c-14.1,13.5-33.8,11.8-54.7,10c-20-1.8-37.3-2.6-48.8-17.2
					c-13.9,12.4-32.7,19.3-52.8,17.5c-30.3-2.7-72.5,4.4-79.8-23.4c-0.5-1.7-8.4-0.7-10.2-0.9c0,0-4.6-0.9-4.6-0.9
					C369,1022.7,369.6,958.8,373,920.2L373,920.2z"/>
				<path class="st11" d="M706.7,780.7c-29.2,0-52.7,23.6-52.7,52.7"/>
				<path class="st11" d="M664.2,801.8c-15.3-24.8-47.8-32.4-72.6-17.1"/>
				<path class="st11" d="M532.7,845.9c-15.3-24.8-47.8-32.4-72.6-17.1"/>
				<path class="st11" d="M615.7,971.7c18.6-22.4,15.5-55.7-6.9-74.2"/>
				<path class="st11" d="M690.7,845.6c-22.4-18.7-55.6-15.7-74.3,6.7"/>
				<path class="st11" d="M517.5,886.2c0-29.2,23.6-52.7,52.7-52.7"/>
				<path class="st11" d="M522.8,829.5c-5.3-28.7,13.5-56.2,42.2-61.5"/>
				<path class="st11" d="M459.9,945.3c0-29.2,23.7-53,52.9-53s53,23.7,53,53"/>
				<path class="st11" d="M734.8,825.1c22,19.2,24.3,52.7,5.1,74.7s-52.7,24.3-74.7,5.1"/>
			</g>
		</g>
	</g>
</g>
</svg>
