<?xml version="1.0" encoding="UTF-8"?>
<svg id="Bad_guy" data-name="Bad guy" xmlns="http://www.w3.org/2000/svg" xmlns:xlink="http://www.w3.org/1999/xlink" viewBox="0 0 570.79 535.76">
  <defs>
    <style>
      .cls-1 {
        fill: #3a3a3a;
      }

      .cls-1, .cls-2, .cls-3, .cls-4, .cls-5 {
        stroke-width: 0px;
      }

      .cls-6 {
        clip-path: url(#clippath);
      }

      .cls-2, .cls-7, .cls-8, .cls-9 {
        fill: none;
      }

      .cls-7 {
        stroke: #000;
      }

      .cls-7, .cls-8, .cls-9, .cls-10 {
        stroke-miterlimit: 10;
      }

      .cls-7, .cls-9, .cls-10 {
        stroke-width: 5.23px;
      }

      .cls-8 {
        stroke: #ed0677;
        stroke-width: 30px;
      }

      .cls-11, .cls-10, .cls-5 {
        fill: #fff;
      }

      .cls-12 {
        clip-path: url(#clippath-1);
      }

      .cls-13 {
        clip-path: url(#clippath-3);
      }

      .cls-14 {
        clip-path: url(#clippath-2);
      }

      .cls-3 {
        fill: #6d2c91;
      }

      .cls-9, .cls-10 {
        stroke: #e6e7e8;
      }

      .cls-4 {
        fill: #ed0677;
      }
    </style>
    <clipPath id="clippath">
      <path class="cls-2" d="M237.46,340.31c26.3,0,52.61-10.01,72.63-30.04,9.87-9.87,9.87-25.87,0-35.74-9.87-9.87-25.87-9.87-35.74,0-20.34,20.34-53.44,20.34-73.78,0-9.87-9.87-25.87-9.87-35.74,0-9.87,9.87-9.87,25.87,0,35.74,20.02,20.02,46.33,30.04,72.63,30.04Z"/>
    </clipPath>
    <clipPath id="clippath-1">
      <path class="cls-5" d="M237.46,340.31c26.3,0,52.61-10.01,72.63-30.04,9.87-9.87,9.87-25.87,0-35.74-9.87-9.87-25.87-9.87-35.74,0-20.34,20.34-53.44,20.34-73.78,0-9.87-9.87-25.87-9.87-35.74,0-9.87,9.87-9.87,25.87,0,35.74,20.02,20.02,46.33,30.04,72.63,30.04Z"/>
    </clipPath>
    <clipPath id="clippath-2">
      <path class="cls-2" d="M157.89,175.19s-4.36,33.28,13.48,51.11c17.84,17.84,51.11,13.48,51.11,13.48,0,0,3.43-32.35-14.4-50.18-17.84-17.84-50.18-14.4-50.18-14.4Z"/>
    </clipPath>
    <clipPath id="clippath-3">
      <path class="cls-2" d="M263.42,239.78s33.28,4.36,51.11-13.48c17.84-17.84,13.48-51.11,13.48-51.11,0,0-32.35-3.43-50.18,14.4-17.84,17.84-14.4,50.18-14.4,50.18Z"/>
    </clipPath>
  </defs>
  <circle class="cls-4" cx="188.06" cy="69.64" r="27.02"/>
  <g>
    <circle class="cls-4" cx="269.95" cy="276.03" r="104.2"/>
    <circle class="cls-4" cx="384.52" cy="325.83" r="70.78"/>
    <circle class="cls-4" cx="146.98" cy="270.57" r="60.1"/>
    <circle class="cls-4" cx="381.79" cy="211.38" r="60.1"/>
    <circle class="cls-4" cx="288.74" cy="139.52" r="81.32"/>
    <circle class="cls-4" cx="173.03" cy="172.75" r="59.63"/>
    <circle class="cls-4" cx="297.31" cy="391.54" r="59.63"/>
    <circle class="cls-4" cx="194.74" cy="366.74" r="76.71"/>
  </g>
  <circle class="cls-4" cx="219.78" cy="14.06" r="13.86"/>
  <circle class="cls-4" cx="404.47" cy="113.12" r="16.45"/>
  <circle class="cls-4" cx="381.79" cy="69.64" r="8.03"/>
  <g>
    <g class="cls-6">
      <line class="cls-7" x1="237.46" y1="283.92" x2="237.46" y2="350.3"/>
      <line class="cls-7" x1="215.7" y1="277.28" x2="185.46" y2="350.3"/>
      <line class="cls-7" x1="259.22" y1="274.33" x2="296.83" y2="353.25"/>
      <g>
        <path class="cls-11" d="M237.46,340.31c26.3,0,52.61-10.01,72.63-30.04,9.87-9.87,9.87-25.87,0-35.74-9.87-9.87-25.87-9.87-35.74,0-20.34,20.34-53.44,20.34-73.78,0-9.87-9.87-25.87-9.87-35.74,0-9.87,9.87-9.87,25.87,0,35.74,20.02,20.02,46.33,30.04,72.63,30.04Z"/>
        <g class="cls-12">
          <line class="cls-10" x1="237.46" y1="283.92" x2="237.46" y2="350.3"/>
          <line class="cls-10" x1="215.7" y1="277.28" x2="185.46" y2="350.3"/>
          <path class="cls-9" d="M310.69,265.07c-10.57,57.74-115.72,66.1-150.04,10.57"/>
          <line class="cls-10" x1="259.22" y1="274.33" x2="296.83" y2="353.25"/>
        </g>
      </g>
      <ellipse class="cls-3" cx="163.23" cy="275.64" rx="23.34" ry="10.19" transform="translate(-156.18 251.23) rotate(-55)"/>
      <ellipse class="cls-3" cx="314.13" cy="279.37" rx="10.19" ry="23.34" transform="translate(-103.43 230.72) rotate(-35)"/>
    </g>
    <g class="cls-14">
      <path class="cls-5" d="M157.89,175.19s-4.36,33.28,13.48,51.11c17.84,17.84,51.11,13.48,51.11,13.48,0,0,3.43-32.35-14.4-50.18-17.84-17.84-50.18-14.4-50.18-14.4Z"/>
      <path class="cls-1" d="M185.13,203.36c-6.93,6.93-14.88,10.21-7.96,17.14,6.93,6.93,9.33-1.9,16.26-8.83,6.93-6.93,15.76-9.33,8.83-16.26-6.93-6.93-10.21,1.03-17.14,7.96Z"/>
    </g>
    <g class="cls-13">
      <path class="cls-5" d="M263.42,239.78s33.28,4.36,51.11-13.48c17.84-17.84,13.48-51.11,13.48-51.11,0,0-32.35-3.43-50.18,14.4-17.84,17.84-14.4,50.18-14.4,50.18Z"/>
      <path class="cls-1" d="M291.82,212.31c6.93,6.93,9.04,16.05,15.97,9.12,6.93-6.93-1.49-9.75-8.42-16.67-6.93-6.93-9.75-15.35-16.67-8.42-6.93,6.93,2.19,9.04,9.12,15.97Z"/>
    </g>
  </g>
  <g>
    <path class="cls-8" d="M419.73,209.54c49.37-110.12,133.14-96.42,108.32,40.08"/>
    <circle class="cls-4" cx="528.06" cy="249.61" r="44.94"/>
  </g>
  <g>
    <path class="cls-8" d="M132.08,203.11c-95.05,74.36-162.75,23.14-77.1-86"/>
    <circle class="cls-4" cx="54.98" cy="117.11" r="44.94"/>
  </g>
  <g>
    <path class="cls-8" d="M349.52,385.39c1.12,92.45,49.59,140.48,102.42,41.96"/>
    <ellipse class="cls-4" cx="472.67" cy="438" rx="27.19" ry="41.66" transform="translate(-111.9 709.18) rotate(-67.71)"/>
  </g>
  <g>
    <path class="cls-8" d="M170.89,348.36c-60.85,6.05-151.66,62.39-49.68,124.79"/>
    <ellipse class="cls-4" cx="115.02" cy="498.06" rx="41.66" ry="27.19" transform="translate(-394.1 452.37) rotate(-71.87)"/>
  </g>
</svg>