<?xml version="1.0" encoding="UTF-8"?>
<svg id="Good_Guy" data-name="Good Guy" xmlns="http://www.w3.org/2000/svg" viewBox="0 0 381 273.53">
  <defs>
    <style>
      .cls-1 {
        fill: none;
        stroke: #e26d7b;
        stroke-miterlimit: 10;
        stroke-width: 8px;
      }
    </style>
  </defs>
  <path class="cls-1" d="M368.19,151.18c7.41-6.24,7.44-16.87,8.36-27.29,1.85-20.89-8.58-37.75-29.47-39.59-.33-.03-.65-.04-.97-.06.87-2.68,1.46-5.49,1.72-8.41,1.85-20.89-13.59-39.32-34.48-41.17-4.44-.39-8.76,0-12.85,1.06-3.01-16.37-16.61-29.4-34-30.93-20.89-1.85-55.56-2.17-57.41,18.72,0,0-.47,2.48-.47,2.49,0,.11-.01.26,0,.44-5.31-.76-10.74-1.17-16.26-1.17-6.82,0-13.5.6-19.98,1.76.02-.45.03-.82.01-1.03,0,0-.47-2.48-.47-2.49-1.85-20.89-36.52-20.57-57.41-18.72-17.39,1.54-30.99,14.56-34,30.93-4.08-1.06-8.41-1.45-12.85-1.06-20.89,1.85-36.33,20.28-34.48,41.17.26,2.92.85,5.73,1.72,8.41-.32.02-.65.03-.97.06-20.89,1.85-31.31,18.7-29.47,39.59.92,10.41.95,21.05,8.36,27.29-10.23,7.61-9.3,18.74-8.1,32.37,1.44,16.36,5.97,30.83,20.97,34.82-2.83,9.91.09,10.64,2.16,17.46,5.37,17.72,19.19,31.83,37.71,31.66,13.36-.12,18.28.5,24.96-9.66,7,12.89,19.72,12.39,35.26,11.02,16.88-1.49,31.14-8.13,35.03-21.63,10.02,2.9,20.6,4.46,31.55,4.46,9.71,0,19.14-1.23,28.14-3.53,4.27,12.88,18.26,19.24,34.74,20.7,15.55,1.37,28.26,1.88,35.26-11.02,6.67,10.15,11.6,9.53,24.96,9.66,18.51.17,32.34-13.94,37.71-31.66,2.07-6.82,4.99-7.56,2.16-17.46,15-3.99,19.53-18.46,20.97-34.82,1.2-13.63,2.13-24.76-8.1-32.37Z"/>
</svg>