<?xml version="1.0" encoding="UTF-8"?>
<svg id="Good_Guy" data-name="Good Guy" xmlns="http://www.w3.org/2000/svg" xmlns:xlink="http://www.w3.org/1999/xlink" viewBox="0 0 1600 900">
  <defs>
    <style>
      .cls-1 {
        fill: url(#linear-gradient);
      }

      .cls-1, .cls-2 {
        stroke-width: 0px;
      }

      .cls-2 {
        fill: url(#linear-gradient-2);
      }
    </style>
    <linearGradient id="linear-gradient" x1="1581.01" y1="900" x2="1581.01" y2="641.53" gradientUnits="userSpaceOnUse">
      <stop offset="0" stop-color="#8a73b4"/>
      <stop offset="0" stop-color="#8a73b4"/>
      <stop offset=".2" stop-color="#9989c0"/>
      <stop offset=".41" stop-color="#a398c9"/>
      <stop offset=".66" stop-color="#aaa2cf"/>
      <stop offset="1" stop-color="#aca5d1"/>
    </linearGradient>
    <linearGradient id="linear-gradient-2" x1="99.71" y1="900" x2="99.71" y2="706.44" xlink:href="#linear-gradient"/>
  </defs>
  <path id="FG_Cloud" data-name="FG Cloud" class="cls-1" d="M1907.56,900c.04-1.18.09-2.36.09-3.56,0-43.05-28.5-79.43-67.65-91.33,3.1-7.27,4.81-15.27,4.81-23.67,0-33.4-27.07-60.47-60.47-60.47-6.64,0-13.02,1.09-19,3.06,2.67-6.83,4.16-14.26,4.16-22.03,0-33.4-27.07-60.47-60.47-60.47-22.2,0-41.6,11.97-52.11,29.81-9-2.81-18.58-4.33-28.51-4.33-52.72,0-95.46,42.74-95.46,95.46,0,11.13,1.92,21.8,5.42,31.73-6.15-2.11-12.75-3.27-19.62-3.27-.45,0-.9.02-1.35.03-7.6-45.12-46.83-79.51-94.11-79.51-52.72,0-95.46,42.74-95.46,95.46,0,13.85,2.97,26.99,8.28,38.87-6.63-2.5-13.81-3.88-21.32-3.88-32.6,0-59.16,25.8-60.41,58.1h653.18Z"/>
  <path id="FG_Cloud-2" data-name="FG Cloud" class="cls-2" d="M344.25,900c.03-.89.07-1.77.07-2.66,0-32.24-21.34-59.48-50.66-68.4,2.32-5.45,3.6-11.44,3.6-17.73,0-25.01-20.27-45.28-45.28-45.28-4.97,0-9.75.81-14.23,2.29,2-5.11,3.11-10.68,3.11-16.5,0-25.01-20.27-45.28-45.28-45.28-16.63,0-31.15,8.97-39.03,22.32-6.74-2.11-13.91-3.25-21.35-3.25-39.48,0-71.49,32.01-71.49,71.49,0,8.33,1.44,16.32,4.06,23.76-4.61-1.58-9.55-2.45-14.69-2.45-.34,0-.68.02-1.01.03-5.69-33.79-35.07-59.54-70.48-59.54-39.48,0-71.49,32.01-71.49,71.49,0,10.37,2.23,20.22,6.2,29.11-4.97-1.87-10.34-2.9-15.96-2.9-24.41,0-44.3,19.32-45.24,43.51h489.15Z"/>
</svg>