<?xml version="1.0" encoding="UTF-8"?>
<svg id="Game_Over" data-name="Game Over" xmlns="http://www.w3.org/2000/svg" xmlns:xlink="http://www.w3.org/1999/xlink" viewBox="0 0 1600 900">
  <defs>
    <style>
      .cls-1 {
        clip-path: url(#clippath);
      }

      .cls-2, .cls-3, .cls-4, .cls-5, .cls-6, .cls-7, .cls-8, .cls-9, .cls-10, .cls-11, .cls-12, .cls-13, .cls-14, .cls-15, .cls-16, .cls-17, .cls-18, .cls-19, .cls-20, .cls-21, .cls-22, .cls-23, .cls-24, .cls-25 {
        stroke-width: 0px;
      }

      .cls-2, .cls-26, .cls-27, .cls-28, .cls-29, .cls-30 {
        fill: none;
      }

      .cls-3 {
        fill: #589da0;
      }

      .cls-4 {
        fill: #aca5d1;
      }

      .cls-5 {
        fill: url(#linear-gradient);
      }

      .cls-6 {
        fill: #fbb040;
      }

      .cls-7 {
        fill: url(#linear-gradient-11);
      }

      .cls-8 {
        fill: url(#linear-gradient-12);
      }

      .cls-9 {
        fill: url(#linear-gradient-13);
      }

      .cls-10 {
        fill: url(#linear-gradient-10);
      }

      .cls-11 {
        fill: url(#linear-gradient-15);
      }

      .cls-12 {
        fill: url(#linear-gradient-14);
      }

      .cls-13 {
        fill: #9bd2d2;
      }

      .cls-26 {
        stroke-width: 3.39px;
      }

      .cls-26, .cls-27, .cls-28 {
        stroke: #589da0;
      }

      .cls-26, .cls-27, .cls-28, .cls-29, .cls-30 {
        stroke-linecap: round;
        stroke-miterlimit: 10;
      }

      .cls-27, .cls-30 {
        stroke-width: 3.69px;
      }

      .cls-31 {
        clip-path: url(#clippath-1);
      }

      .cls-32 {
        clip-path: url(#clippath-2);
      }

      .cls-14 {
        fill: #2a284c;
      }

      .cls-15 {
        fill: #504b72;
      }

      .cls-16 {
        fill: #00a79d;
      }

      .cls-28 {
        stroke-width: 2.63px;
      }

      .cls-29 {
        stroke: #9bd2d2;
        stroke-width: 31.62px;
      }

      .cls-17 {
        fill: url(#linear-gradient-4);
      }

      .cls-18 {
        fill: url(#linear-gradient-2);
      }

      .cls-19 {
        fill: url(#linear-gradient-3);
      }

      .cls-20 {
        fill: url(#linear-gradient-8);
      }

      .cls-21 {
        fill: url(#linear-gradient-9);
      }

      .cls-22 {
        fill: url(#linear-gradient-7);
      }

      .cls-23 {
        fill: url(#linear-gradient-5);
      }

      .cls-24 {
        fill: url(#linear-gradient-6);
      }

      .cls-30 {
        stroke: #58595b;
      }

      .cls-25 {
        fill: #35355c;
      }
    </style>
    <linearGradient id="linear-gradient" x1="1460.01" y1="-331.89" x2="1460.01" y2="-151.38" gradientTransform="translate(2401.12 -405.92) rotate(160.9)" gradientUnits="userSpaceOnUse">
      <stop offset="0" stop-color="#414042"/>
      <stop offset=".48" stop-color="#434244"/>
      <stop offset=".77" stop-color="#4a4a4c"/>
      <stop offset="1" stop-color="#58595b"/>
    </linearGradient>
    <linearGradient id="linear-gradient-2" x1="1161.5" y1="480.99" x2="1161.5" y2="335.21" gradientUnits="userSpaceOnUse">
      <stop offset="0" stop-color="#004f79"/>
      <stop offset="1" stop-color="#173654"/>
    </linearGradient>
    <linearGradient id="linear-gradient-3" x1="1303.86" y1="519.16" x2="1303.86" y2="377.87" gradientUnits="userSpaceOnUse">
      <stop offset="0" stop-color="#8a73b4"/>
      <stop offset="1" stop-color="#aca5d1"/>
    </linearGradient>
    <linearGradient id="linear-gradient-4" x1="1348.6" y1="487.47" x2="1348.6" y2="642.38" gradientUnits="userSpaceOnUse">
      <stop offset="0" stop-color="#fbb040"/>
      <stop offset=".34" stop-color="#faad3e"/>
      <stop offset=".54" stop-color="#f9a53b"/>
      <stop offset=".7" stop-color="#f79635"/>
      <stop offset=".85" stop-color="#f5822d"/>
      <stop offset=".98" stop-color="#f26823"/>
      <stop offset="1" stop-color="#f26522"/>
    </linearGradient>
    <linearGradient id="linear-gradient-5" x1="902.5" y1="732.75" x2="902.5" y2="582.07" gradientUnits="userSpaceOnUse">
      <stop offset="0" stop-color="#004f79"/>
      <stop offset="1" stop-color="#00a79d"/>
    </linearGradient>
    <linearGradient id="linear-gradient-6" x1="816.23" y1="538.98" x2="1051.08" y2="538.98" gradientTransform="matrix(1,0,0,1,0,0)" xlink:href="#linear-gradient"/>
    <linearGradient id="linear-gradient-7" x1="1046.45" y1="364.25" x2="1046.45" y2="519.16" xlink:href="#linear-gradient-4"/>
    <linearGradient id="linear-gradient-8" x1="964.76" y1="470.8" x2="964.76" y2="284.94" xlink:href="#linear-gradient-3"/>
    <linearGradient id="linear-gradient-9" x1="957.73" y1="756.3" x2="957.73" y2="936.81" gradientTransform="translate(107.16 -172.17) rotate(5.9)" xlink:href="#linear-gradient-4"/>
    <linearGradient id="linear-gradient-10" x1="1249.21" y1="274.39" x2="1249.21" y2="454.9" gradientTransform="translate(107.16 -172.17) rotate(5.9)" xlink:href="#linear-gradient-4"/>
    <linearGradient id="linear-gradient-11" x1="1464.37" y1="581.79" x2="1464.37" y2="762.3" gradientTransform="translate(-151.92 988.21) rotate(-34.17)" xlink:href="#linear-gradient"/>
    <clipPath id="clippath">
      <ellipse class="cls-2" cx="1151.1" cy="740.52" rx="73.81" ry="105.63"/>
    </clipPath>
    <clipPath id="clippath-1">
      <path class="cls-2" d="M1293.64,543.07c12.58,11.11,13.7,39.68,2.49,63.81-11.21,24.13-30.49,34.69-43.07,23.58-12.58-11.11-13.7-39.68-2.49-63.81,11.21-24.13,30.49-34.69,43.07-23.58Z"/>
    </clipPath>
    <clipPath id="clippath-2">
      <path class="cls-2" d="M1007.73,543.57c-12.58,11.11-13.7,39.68-2.49,63.81,11.21,24.13,30.49,34.69,43.07,23.58,12.58-11.11,13.7-39.68,2.49-63.81-11.21-24.13-30.49-34.69-43.07-23.58Z"/>
    </clipPath>
    <linearGradient id="linear-gradient-12" x1="1180.1" y1="874.81" x2="1180.1" y2="723.54" xlink:href="#linear-gradient-3"/>
    <linearGradient id="linear-gradient-13" x1="1451.74" y1="533.3" x2="1451.74" y2="382.03" gradientTransform="translate(87.04 1204.4) rotate(-43.44)" xlink:href="#linear-gradient-2"/>
    <linearGradient id="linear-gradient-14" x1="1355.09" y1="804.31" x2="1355.09" y2="618.45" xlink:href="#linear-gradient-5"/>
    <linearGradient id="linear-gradient-15" x1="1426.54" y1="468.37" x2="1426.54" y2="329.87" xlink:href="#linear-gradient-5"/>
  </defs>
  <rect class="cls-15" x="0" y="-2.77" width="1600" height="905.54"/>
  <path class="cls-25" d="M991.56,976.37c-140.5,0-263.43-17.4-365.38-51.71-94.05-31.66-168.86-77.07-222.32-134.98-65.04-70.45-95.53-156.5-88.15-248.86,3.11-38.94,12.07-101.17,37.09-176.49,23.35-70.29,54.71-133.97,93.22-189.3,45.26-65.02,99.11-116.23,160.04-152.2,70.2-41.44,149.69-62.45,236.27-62.45,70.02,0,145.67,13.84,224.85,41.13,99.34,34.24,195.48,58.59,280.3,80.08,115.32,29.21,214.92,54.44,283.85,94.48,77.75,45.16,110.78,106.13,103.93,191.86-1.47,18.4-2.62,36.85-3.84,56.39-3.56,57.22-7.25,116.4-19.36,174.43-13.9,66.61-37.12,121.36-70.98,167.38-41.09,55.85-97.44,99.12-172.26,132.29-82.64,36.64-189.63,60.57-318,71.12-55.03,4.53-108.61,6.82-159.26,6.82Z"/>
  <path class="cls-14" d="M1089.84,800.88c-63.72,0-121.49-6.85-171.7-20.37-47.22-12.71-87.87-31.31-120.82-55.29-31.32-22.79-55.41-50.17-71.58-81.39-15.53-29.98-23.41-62.72-23.41-97.3,0-68.11,19.03-171.48,72.43-257.31,28.87-46.4,64.69-82.95,106.49-108.66,48.23-29.66,104.32-44.7,166.7-44.7,37.64,0,78.15,5.52,120.4,16.41,67.15,17.31,131.67,28.28,188.6,37.96,77.4,13.16,144.24,24.52,191.7,47.24,53.52,25.62,78.45,64,78.45,120.76,0,12.18.21,24.38.44,37.29,1.29,74.15,2.76,158.2-41.48,229.61-50.41,81.36-152.41,133.56-311.83,159.57-65.72,10.72-127.76,16.16-184.39,16.16Z"/>
  <g>
    <path class="cls-5" d="M992.75,343.35c6.73,19.43,28.13,29.67,47.8,22.85,4.89-1.69,9.21-4.28,12.84-7.51.06,3.36.64,6.76,1.8,10.11,5.99,17.3,25.05,26.41,42.56,20.35,12.83-4.44,21.26-15.8,22.51-28.35,10.43,12.74,28.21,18.27,44.84,12.51,21.25-7.36,32.58-30.34,25.31-51.33-.85-2.46-1.93-4.77-3.18-6.94,1.59-.31,3.19-.73,4.77-1.28,17.76-6.15,27.23-25.35,21.15-42.9-4.33-12.49-15.37-20.76-27.78-22.28,2.14-6.9,2.18-14.49-.35-21.81-6.39-18.44-26.69-28.15-45.36-21.69-8.3,2.87-14.88,8.47-19.06,15.41-10.63-9.88-26.33-13.69-41.13-8.57s-25.57,18.86-27.26,33.88c-8.82-5.43-19.98-7-30.61-3.32-18.67,6.46-28.62,26.65-22.24,45.09,1.71,4.93,4.41,9.23,7.81,12.76-13.68,9.31-20.05,26.79-14.44,43Z"/>
    <path class="cls-18" d="M1223.94,383.15c.75-3,1.16-6.15,1.16-9.38,0-21.29-17.26-38.55-38.55-38.55-15.42,0-28.72,9.06-34.89,22.14-6.21-7.69-15.7-12.61-26.36-12.61-18.7,0-33.86,15.16-33.86,33.86,0,3.05.41,6,1.16,8.81-12.82,5.41-21.82,18.1-21.82,32.89,0,19.71,15.98,35.69,35.69,35.69,4.67,0,9.12-.9,13.2-2.53,3.69,15.78,17.84,27.53,34.74,27.53,17.95,0,32.79-13.25,35.31-30.5,6.58,5.23,14.9,8.36,23.96,8.36,21.29,0,38.55-17.26,38.55-38.55,0-17.74-11.98-32.66-28.29-37.16Z"/>
    <path class="cls-19" d="M1405.81,442.26c1.13-19.33-13.63-35.93-32.96-37.06-4.58-.27-9,.36-13.1,1.73-2.71-15.69-15.92-28.03-32.5-29-17.6-1.03-32.93,11.11-36.39,27.89-6.15-5.51-14.14-9.06-23.02-9.58-20.89-1.22-38.81,14.72-40.03,35.6-.12,1.99-.07,3.96.11,5.89-14.17,3.13-25.13,15.34-26.02,30.54-1.07,18.35,12.93,34.09,31.28,35.16,8.16.48,15.8-2.03,21.87-6.58,5.62,12.42,17.76,21.37,32.31,22.23,15.13.89,28.69-7.24,35.49-19.71,5.65,7.9,14.68,13.27,25.13,13.88,18.35,1.07,34.09-12.93,35.16-31.28.17-2.99-.06-5.91-.64-8.71,12.89-4.57,22.45-16.5,23.3-31.01Z"/>
    <path class="cls-17" d="M1448.15,560.17c0-17.65-14.48-31.96-32.35-31.96-4.44,0-8.67.88-12.52,2.48.89-2.74,1.38-5.67,1.38-8.7,0-15.71-12.89-28.45-28.8-28.45-11.65,0-21.68,6.84-26.21,16.67-4.88-13.26-17.74-22.74-32.85-22.74-19.3,0-34.94,15.45-34.94,34.52,0,2.23.22,4.41.63,6.52-1.38-.2-2.79-.3-4.22-.3-16.13,0-29.2,12.91-29.2,28.85,0,11.34,6.63,21.15,16.27,25.87-3.67,5-5.84,11.14-5.84,17.78,0,16.75,13.74,30.32,30.69,30.32,7.54,0,14.44-2.69,19.78-7.15,5.84,10.99,17.51,18.5,30.95,18.5s26.03-8.11,31.62-19.82c5.63,6.88,14.23,11.29,23.89,11.29,16.95,0,30.69-13.58,30.69-30.32,0-4.48-.99-8.72-2.75-12.54,13.71-3.71,23.78-16.1,23.78-30.81Z"/>
    <path class="cls-23" d="M956.49,622.55c.15-3.09-.06-6.25-.69-9.43-4.14-20.88-24.43-34.45-45.32-30.31-15.13,3-26.41,14.47-29.91,28.5-7.59-6.33-17.86-9.31-28.31-7.24-18.34,3.64-30.27,21.46-26.63,39.81.59,2.99,1.57,5.8,2.86,8.41-11.52,7.8-17.88,22-15,36.51,3.84,19.33,22.62,31.9,41.95,28.06,4.58-.91,8.77-2.66,12.46-5.05,6.69,14.76,22.86,23.54,39.44,20.25,17.6-3.49,29.59-19.38,28.7-36.79,7.47,3.85,16.24,5.3,25.13,3.54,20.88-4.14,34.45-24.43,30.31-45.32-3.45-17.4-18.11-29.71-34.98-30.94Z"/>
    <path class="cls-24" d="M1035.16,553.27c2.98-3.15,5.64-6.7,7.87-10.65,14.66-25.98,5.47-58.92-20.51-73.58-18.82-10.61-41.28-8.72-57.81,3-2.28-13.65-10.48-26.2-23.48-33.53-22.82-12.87-51.76-4.81-64.63,18.01-2.1,3.72-3.63,7.6-4.64,11.55-19.37-2.22-39.09,7.07-49.27,25.12-13.57,24.05-5.07,54.55,18.98,68.11,5.69,3.21,11.75,5.17,17.85,6-6.36,21.79,2.81,45.88,23.44,57.51,21.9,12.35,49.14,6.41,64.08-12.91,4.43,10.91,12.43,20.46,23.48,26.69,25.98,14.66,58.92,5.47,73.58-20.51,12.21-21.64,7.86-48.11-8.94-64.82Z"/>
    <path class="cls-22" d="M1145.99,436.94c0-17.65-14.48-31.96-32.35-31.96-4.44,0-8.67.88-12.52,2.48.89-2.74,1.38-5.67,1.38-8.7,0-15.71-12.89-28.45-28.8-28.45-11.65,0-21.68,6.84-26.21,16.67-4.88-13.26-17.74-22.74-32.85-22.74-19.3,0-34.94,15.45-34.94,34.52,0,2.23.22,4.41.63,6.52-1.38-.2-2.79-.3-4.22-.3-16.13,0-29.2,12.91-29.2,28.85,0,11.34,6.63,21.15,16.27,25.87-3.67,5-5.84,11.14-5.84,17.78,0,16.75,13.74,30.32,30.69,30.32,7.54,0,14.44-2.69,19.78-7.15,5.84,10.99,17.51,18.5,30.95,18.5s26.03-8.11,31.62-19.82c5.63,6.88,14.23,11.29,23.89,11.29,16.95,0,30.69-13.58,30.69-30.32,0-4.48-.99-8.72-2.75-12.54,13.71-3.71,23.78-16.1,23.78-30.81Z"/>
    <path class="cls-20" d="M1018.97,325.96c-.48-3.74-1.42-7.48-2.85-11.15-9.45-24.15-36.68-36.07-60.83-26.63-17.49,6.84-28.56,23.02-29.75,40.59-10.45-5.97-23.41-7.34-35.49-2.61-21.21,8.3-31.69,32.22-23.39,53.44,1.35,3.46,3.12,6.62,5.23,9.47-12.14,11.83-16.72,30.21-10.16,46.99,8.74,22.36,33.96,33.39,56.32,24.65,5.29-2.07,9.94-5.07,13.85-8.73,11.19,16.26,32.45,23.32,51.62,15.82,20.36-7.96,31.32-29.58,26.52-50.26,9.78,3.01,20.61,2.87,30.89-1.15,24.15-9.45,36.07-36.68,26.63-60.83-7.87-20.12-28.08-31.74-48.58-29.6Z"/>
    <path class="cls-21" d="M1088.71,774.79c2.11-20.46-12.96-38.78-33.66-40.92-5.14-.53-10.15-.01-14.81,1.38,1.36-3.07,2.28-6.4,2.64-9.92,1.88-18.21-11.54-34.53-29.97-36.43-13.5-1.4-25.95,5.33-32.38,16.18-4.06-15.96-17.84-28.48-35.35-30.29-22.37-2.31-42.35,13.73-44.64,35.82-.27,2.59-.27,5.14-.05,7.64-1.58-.39-3.2-.69-4.86-.86-18.69-1.93-35.39,11.47-37.3,29.94-1.36,13.15,5.15,25.31,15.76,31.93-4.85,5.35-8.1,12.21-8.9,19.91-2.01,19.41,12.29,36.79,31.94,38.82,8.74.9,17.06-1.39,23.79-5.91,5.46,13.44,18.07,23.54,33.66,25.15,16.2,1.67,31.14-6.28,39.03-19.19,5.7,8.65,15.15,14.79,26.34,15.95,19.65,2.03,37.2-12.06,39.21-31.47.54-5.19-.1-10.23-1.69-14.87,16.33-2.66,29.49-15.81,31.26-32.87Z"/>
    <path class="cls-10" d="M1428.21,325.41c2.11-20.46-12.96-38.78-33.66-40.92-5.14-.53-10.15-.01-14.81,1.38,1.36-3.07,2.28-6.4,2.64-9.92,1.88-18.21-11.54-34.53-29.97-36.43-13.5-1.4-25.95,5.33-32.38,16.18-4.06-15.96-17.84-28.48-35.35-30.29-22.37-2.31-42.35,13.73-44.64,35.82-.27,2.59-.27,5.14-.05,7.64-1.58-.39-3.2-.69-4.86-.86-18.69-1.93-35.39,11.47-37.3,29.94-1.36,13.15,5.15,25.31,15.76,31.93-4.85,5.35-8.1,12.21-8.9,19.91-2.01,19.41,12.29,36.79,31.94,38.82,8.74.9,17.06-1.39,23.79-5.91,5.46,13.44,18.07,23.54,33.66,25.15,16.2,1.67,31.14-6.28,39.03-19.19,5.7,8.65,15.15,14.79,26.34,15.95,19.65,2.03,37.2-12.06,39.21-31.47.54-5.19-.1-10.23-1.69-14.87,16.33-2.66,29.49-15.81,31.26-32.87Z"/>
    <path class="cls-7" d="M1529.98,652.08c-11.55-17.02-34.88-21.33-52.1-9.64-4.28,2.9-7.78,6.52-10.44,10.59-.94-3.23-2.38-6.36-4.37-9.29-10.28-15.15-31.05-18.99-46.39-8.58-11.23,7.62-16.43,20.78-14.36,33.23-13.38-9.6-31.99-10.31-46.55-.42-18.61,12.63-23.57,37.77-11.1,56.15,1.46,2.15,3.1,4.11,4.88,5.88-1.46.71-2.89,1.53-4.27,2.47-15.55,10.55-19.7,31.56-9.27,46.92,7.42,10.94,20.24,16.06,32.62,14.29-.27,7.22,1.66,14.56,6.01,20.97,10.96,16.15,33.09,20.24,49.44,9.15,7.27-4.93,12.16-12.05,14.4-19.84,12.83,6.78,28.99,6.38,41.95-2.42,13.48-9.15,19.79-24.86,17.51-39.81,9.93,2.95,21.11,1.57,30.42-4.75,16.34-11.09,20.71-33.18,9.75-49.32-2.93-4.31-6.66-7.76-10.86-10.29,10.79-12.55,12.39-31.08,2.76-45.27Z"/>
    <g>
      <path class="cls-29" d="M1041.91,605.95c-3.33,23.55-25.11,95.21-9.9,104.57,17.18,10.57,56.78-20.43,90.1-47.69"/>
      <path class="cls-29" d="M1260.29,605.95c3.33,23.55,25.11,95.21,9.9,104.57-17.18,10.57-56.78-20.43-90.1-47.69"/>
      <g class="cls-1">
        <ellipse class="cls-13" cx="1151.1" cy="740.52" rx="73.81" ry="105.63"/>
        <path class="cls-3" d="M1213.49,585.77c0,45.2-27.93,81.84-62.39,81.84s-62.39-36.64-62.39-81.84,27.93-71.52,62.39-71.52,62.39,26.32,62.39,71.52Z"/>
      </g>
      <g>
        <path class="cls-13" d="M1213.07,575.57c0,45.2-27.93,81.84-62.39,81.84s-62.39-36.64-62.39-81.84,27.93-71.52,62.39-71.52,62.39,26.32,62.39,71.52Z"/>
        <path class="cls-27" d="M1162.19,576.17h21.65"/>
        <path class="cls-30" d="M1137.75,564.92c-6.83-10.74-19.57-14.83-28.5-9.16"/>
        <path class="cls-30" d="M1161.5,564.26c7.32-10.41,20.24-13.91,28.89-7.83"/>
        <line class="cls-27" x1="1148.35" y1="578.41" x2="1143.62" y2="602.75"/>
        <line class="cls-27" x1="1154.98" y1="603.06" x2="1143.62" y2="602.75"/>
        <path class="cls-13" d="M1231.49,586.31c-2.59,10.21-11.41,16.79-19.69,14.69-8.29-2.1-12.91-12.08-10.32-22.29s11.41-16.79,19.69-14.69c8.29,2.1,12.91,12.08,10.32,22.29"/>
        <path class="cls-28" d="M1222.27,587.11c.46,3.77-2.22,7.19-5.99,7.65"/>
        <path class="cls-28" d="M1214.62,581.12c3.77-.46,7.19,2.22,7.65,5.99"/>
        <path class="cls-28" d="M1214.54,585.58c-3.59-5.71-2.16-14.4,1.13-15.91,2.34-1.08,5.75.02,8.38,2.48"/>
        <g>
          <path class="cls-13" d="M1069.88,586.31c2.59,10.21,11.41,16.79,19.69,14.69,8.29-2.1,12.91-12.08,10.32-22.29s-11.41-16.79-19.69-14.69-12.91,12.08-10.32,22.29"/>
          <path class="cls-28" d="M1079.07,587.6c-.46,3.77,2.22,7.19,5.99,7.65"/>
          <path class="cls-28" d="M1086.72,581.61c-3.77-.46-7.19,2.22-7.65,5.99"/>
          <path class="cls-28" d="M1086.8,586.08c3.59-5.71,2.16-14.4-1.13-15.91-2.34-1.08-5.75.02-8.38,2.48"/>
        </g>
        <path class="cls-27" d="M1122.1,619.7c5.8,0,5.8,7.38,11.59,7.38s5.8-7.38,11.6-7.38,5.8,7.38,11.59,7.38,5.8-7.38,11.6-7.38,5.8,7.38,11.6,7.38"/>
        <line class="cls-27" x1="1162.19" y1="576.15" x2="1180.1" y2="583.63"/>
        <line class="cls-27" x1="1162.19" y1="576.17" x2="1180.1" y2="568.69"/>
        <path class="cls-27" d="M1138.47,576.17h-21.65"/>
        <line class="cls-27" x1="1138.47" y1="576.15" x2="1120.56" y2="583.63"/>
        <line class="cls-27" x1="1138.47" y1="576.17" x2="1120.56" y2="568.69"/>
      </g>
      <g>
        <path class="cls-13" d="M1312.82,611.97c1.74,13.52-7.89,27.18-21.5,30.51-13.61,3.33-26.06-4.94-27.79-18.46-1.74-13.52,11.6-7.71,25.21-11.04,13.61-3.33,22.35-14.53,24.08-1.01Z"/>
        <g class="cls-31">
          <path class="cls-13" d="M1293.64,543.07c12.58,11.11,13.7,39.68,2.49,63.81-11.21,24.13-30.49,34.69-43.07,23.58-12.58-11.11-13.7-39.68-2.49-63.81,11.21-24.13,30.49-34.69,43.07-23.58Z"/>
          <path class="cls-26" d="M1293.14,537.05c-12.29,2.55-33.33,19.13-31.77,33.46"/>
          <path class="cls-26" d="M1303.41,544.46c-12.29,2.55-34.25,19.91-32.69,34.24"/>
          <path class="cls-26" d="M1306.06,559.39c-9.01-.77-23.11,12.18-21.88,19.31"/>
        </g>
      </g>
      <g>
        <path class="cls-13" d="M988.55,612.46c-1.74,13.52,7.89,27.18,21.5,30.51,13.61,3.33,26.06-4.94,27.79-18.46,1.74-13.52-11.6-7.71-25.21-11.04-13.61-3.33-22.35-14.53-24.08-1.01Z"/>
        <g class="cls-32">
          <path class="cls-13" d="M1007.73,543.57c-12.58,11.11-13.7,39.68-2.49,63.81,11.21,24.13,30.49,34.69,43.07,23.58s13.7-39.68,2.49-63.81-30.49-34.69-43.07-23.58Z"/>
          <path class="cls-26" d="M1008.23,537.55c12.29,2.55,33.33,19.13,31.77,33.46"/>
          <path class="cls-26" d="M997.96,544.96c12.29,2.55,34.25,19.91,32.69,34.24"/>
          <path class="cls-26" d="M995.31,559.88c9.01-.77,23.11,12.18,21.88,19.31"/>
        </g>
      </g>
      <path class="cls-3" d="M1222.58,714.08c-7.27-5.1-11.35-12.01-11.35-12.01-.71,9.03,12.38,18.62,12.38,18.62l-1.03-6.61Z"/>
      <path class="cls-3" d="M1079.6,714.15c7.27-5.1,11.35-12.01,11.35-12.01.71,9.03-12.38,18.62-12.38,18.62l1.03-6.61Z"/>
    </g>
    <path class="cls-8" d="M1291.83,809.32c5.09-20.47-7.38-41.2-27.85-46.29-4.85-1.21-9.71-1.41-14.37-.78.24-17.34-11.42-33.21-28.98-37.58-18.64-4.64-37.49,5.29-44.55,22.56-5.48-7.13-13.32-12.53-22.73-14.87-22.12-5.5-44.5,7.97-50,30.09-.53,2.11-.87,4.23-1.06,6.33-15.8.51-29.98,11.38-33.98,27.48-4.83,19.43,7,39.09,26.43,43.92,8.64,2.15,17.33.99,24.74-2.65,3.53,14.42,14.73,26.45,30.13,30.28,16.02,3.98,32.17-1.99,41.96-13.99,4.46,9.59,13.06,17.15,24.12,19.91,19.43,4.83,39.09-7,43.92-26.43.79-3.17,1.12-6.34,1.07-9.45,14.72-2.31,27.34-13.17,31.16-28.53Z"/>
    <path class="cls-9" d="M1543.88,468.94c-10.38-18.37-33.69-24.84-52.05-14.45-4.35,2.46-8.02,5.65-10.97,9.32-11.75-12.76-31.13-16.26-46.88-7.36-16.72,9.45-23.58,29.62-16.83,47.02-8.89-1.41-18.29.06-26.73,4.83-19.84,11.22-26.83,36.39-15.61,56.23,1.07,1.89,2.27,3.67,3.58,5.33-11.12,11.23-13.94,28.88-5.78,43.32,9.85,17.43,31.97,23.57,49.39,13.72,7.75-4.38,13.26-11.19,16.13-18.94,12.48,8.05,28.88,9.08,42.7,1.26,14.37-8.12,21.99-23.57,20.84-39.01,9.83,3.89,21.28,3.48,31.2-2.13,17.43-9.85,23.57-31.97,13.72-49.39-1.61-2.84-3.54-5.37-5.72-7.59,9.1-11.8,10.8-28.36,3.01-42.15Z"/>
    <path class="cls-12" d="M1409.31,659.47c-.48-3.74-1.42-7.48-2.85-11.15-9.45-24.15-36.68-36.07-60.83-26.63-17.49,6.84-28.56,23.02-29.75,40.59-10.45-5.97-23.41-7.34-35.49-2.61-21.21,8.3-31.69,32.22-23.39,53.44,1.35,3.46,3.12,6.62,5.23,9.47-12.14,11.83-16.72,30.21-10.16,46.99,8.74,22.36,33.96,33.39,56.32,24.65,5.29-2.07,9.94-5.07,13.85-8.73,11.19,16.26,32.45,23.32,51.62,15.82,20.36-7.96,31.32-29.58,26.52-50.26,9.78,3.01,20.61,2.87,30.89-1.15,24.15-9.45,36.07-36.68,26.63-60.83-7.87-20.12-28.08-31.74-48.58-29.6Z"/>
    <path class="cls-11" d="M1466.94,360.44c-.36-2.79-1.06-5.58-2.13-8.31-7.04-18-27.34-26.88-45.34-19.84-13.04,5.1-21.28,17.15-22.17,30.25-7.79-4.45-17.45-5.47-26.45-1.95-15.81,6.18-23.61,24.01-17.43,39.82,1.01,2.58,2.33,4.93,3.9,7.06-9.05,8.81-12.46,22.52-7.57,35.02,6.52,16.66,25.31,24.89,41.97,18.37,3.94-1.54,7.41-3.78,10.32-6.51,8.34,12.12,24.18,17.38,38.47,11.79,15.17-5.93,23.34-22.04,19.76-37.46,7.29,2.24,15.36,2.14,23.02-.85,18-7.04,26.88-27.34,19.84-45.34-5.86-14.99-20.93-23.65-36.2-22.06Z"/>
    <circle class="cls-6" cx="1239.63" cy="425.41" r="17.31"/>
    <circle class="cls-6" cx="1215.47" cy="473.45" r="12.35"/>
    <circle class="cls-6" cx="1194.18" cy="506.65" r="6.58"/>
    <circle class="cls-6" cx="1046.37" cy="674.97" r="12.35"/>
    <circle class="cls-6" cx="1073.61" cy="646.44" r="6.58"/>
    <circle class="cls-4" cx="1028.4" cy="477.13" r="17.31"/>
    <circle class="cls-4" cx="1069.46" cy="511.85" r="12.35"/>
    <circle class="cls-16" cx="1249.88" cy="650.14" r="12.35"/>
    <circle class="cls-16" cx="1216.68" cy="628.85" r="6.58"/>
  </g>
</svg>