<?xml version="1.0" encoding="UTF-8"?>
<svg id="Game_Over" data-name="Game Over" xmlns="http://www.w3.org/2000/svg" viewBox="0 0 197.92 71.44">
  <defs>
    <style>
      .cls-1 {
        fill: #fbb040;
      }

      .cls-1, .cls-2 {
        stroke-width: 0px;
      }

      .cls-2 {
        fill: #fff;
      }
    </style>
  </defs>
  <rect class="cls-1" x="0" y="0" width="197.92" height="71.44" rx="35.72" ry="35.72"/>
  <g>
    <path class="cls-2" d="M34.62,28.08c.43,0,.69.22.69.61v5.1c0,.39.25.61.68.61h2.19c.46,0,.69-.22.69-.61v-5.1c0-.39.25-.61.68-.61h2.56c.46,0,.69.2.69.61v13.05c0,.39-.23.61-.69.61h-2.56c-.43,0-.68-.22-.68-.61v-3.22c0-.41-.23-.61-.69-.61h-2.19c-.43,0-.68.2-.68.61v3.22c0,.39-.23.61-.69.61h-2.56c-.43,0-.68-.22-.68-.61v-13.05c0-.41.23-.61.68-.61h2.56Z"/>
    <path class="cls-2" d="M56.33,37.76c0,1.35-.32,4.95-5.73,4.95s-5.73-3.61-5.73-4.95v-5.1c0-1.34.32-4.95,5.73-4.95s5.73,3.61,5.73,4.95v5.1ZM52.4,33.74c0-1.57-.11-2.53-1.8-2.53s-1.8.96-1.8,2.53v2.94c0,1.57.11,2.53,1.8,2.53s1.8-.96,1.8-2.53v-2.94Z"/>
    <path class="cls-2" d="M57.56,28.75c-.09-.43.14-.67.62-.67h2.72c.41,0,.71.18.75.53l1.3,8.5c.04.2.23.2.27,0l1.53-8.5c.07-.35.34-.53.75-.53h1.96c.41,0,.69.18.75.53l1.53,8.5c.05.2.23.2.27,0l1.3-8.5c.05-.35.34-.53.75-.53h2.72c.48,0,.71.24.62.67l-2.81,13.07c-.07.35-.34.53-.75.53h-3.22c-.41,0-.66-.18-.75-.53l-1.26-5.01c-.05-.2-.23-.2-.27,0l-1.26,5.01c-.09.35-.34.53-.75.53h-3.22c-.41,0-.68-.18-.75-.53l-2.81-13.07Z"/>
    <path class="cls-2" d="M87.4,32.19c0-.41-.23-.61-.69-.61h-3.2c-.43,0-.69-.22-.69-.61v-2.28c0-.41.25-.61.69-.61h11.7c.46,0,.68.2.68.61v2.28c0,.39-.23.61-.68.61h-3.2c-.43,0-.69.2-.69.61v9.54c0,.39-.23.61-.69.61h-2.56c-.43,0-.69-.22-.69-.61v-9.54Z"/>
    <path class="cls-2" d="M108.28,37.76c0,1.35-.32,4.95-5.73,4.95s-5.73-3.61-5.73-4.95v-5.1c0-1.34.32-4.95,5.73-4.95s5.73,3.61,5.73,4.95v5.1ZM104.35,33.74c0-1.57-.11-2.53-1.8-2.53s-1.8.96-1.8,2.53v2.94c0,1.57.11,2.53,1.8,2.53s1.8-.96,1.8-2.53v-2.94Z"/>
    <path class="cls-2" d="M122.9,28.08c4.07,0,5.71,1.55,5.71,4.89s-1.64,4.89-5.71,4.89h-1.1c-.43,0-.68.2-.68.61v3.26c0,.41-.23.61-.69.61h-2.56c-.43,0-.68-.22-.68-.61v-13.03c0-.41.23-.61.68-.63h5.03ZM123.04,34.36c1.1,0,1.64-.12,1.64-1.39s-.55-1.39-1.64-1.39h-1.23c-.43,0-.68.2-.68.61v1.55c0,.39.25.61.68.61h1.23Z"/>
    <path class="cls-2" d="M133.27,28.08c.46,0,.69.2.69.61v9.54c0,.39.25.61.68.61h5.09c.46,0,.68.2.68.61v2.28c0,.41-.23.61-.68.61h-9.02c-.43,0-.68-.22-.68-.61v-13.05c0-.41.25-.61.68-.61h2.56Z"/>
    <path class="cls-2" d="M152.92,41.65c0,.45-.23.69-.69.69h-2.56c-.43,0-.69-.2-.69-.61v-1.77c0-.41-.23-.61-.69-.61h-1.96c-.43,0-.68.2-.68.61v1.77c0,.41-.23.61-.69.61h-2.56c-.43,0-.68-.24-.68-.69v-8.64c0-2.57.46-5.3,5.6-5.3s5.6,2.73,5.6,5.3v8.64ZM148.99,33.01c0-.98-.16-1.47-1.67-1.47s-1.67.49-1.67,1.47v2.22c0,.39.25.61.68.61h1.96c.46-.02.69-.22.69-.63v-2.2Z"/>
    <path class="cls-2" d="M158.2,28.08c.39,0,.64.14.78.47l1.69,3.79c.09.18.23.18.32,0l1.69-3.79c.14-.33.39-.47.78-.47h3.27c.53,0,.75.29.53.71l-4.09,8.15c-.04.08-.04.16-.04.25v4.55c0,.39-.23.61-.69.61h-3.2c-.43,0-.68-.22-.68-.61v-4.55c0-.08,0-.16-.05-.25l-4.11-8.15c-.23-.43,0-.71.53-.71h3.29Z"/>
  </g>
</svg>