<?xml version="1.0" encoding="UTF-8"?>
<svg id="Level_Complete" data-name="Level Complete" xmlns="http://www.w3.org/2000/svg" xmlns:xlink="http://www.w3.org/1999/xlink" viewBox="0 0 1600 900">
  <defs>
    <style>
      .cls-1, .cls-2 {
        stroke-width: 3.86px;
      }

      .cls-1, .cls-2, .cls-3, .cls-4, .cls-5, .cls-6, .cls-7 {
        fill: none;
      }

      .cls-1, .cls-2, .cls-4, .cls-5, .cls-6, .cls-7 {
        stroke-linecap: round;
      }

      .cls-1, .cls-2, .cls-5, .cls-7 {
        stroke-miterlimit: 10;
      }

      .cls-1, .cls-7 {
        stroke: #589da0;
      }

      .cls-2 {
        stroke: #58595b;
      }

      .cls-8 {
        clip-path: url(#clippath);
      }

      .cls-3, .cls-9, .cls-10, .cls-11, .cls-12 {
        stroke-width: 0px;
      }

      .cls-9 {
        fill: #589da0;
      }

      .cls-10 {
        fill: url(#linear-gradient);
      }

      .cls-4 {
        stroke-width: 18.18px;
      }

      .cls-4, .cls-6 {
        stroke: #9bd3d2;
        stroke-linejoin: round;
      }

      .cls-5 {
        stroke: #9bd2d2;
        stroke-width: 41.75px;
      }

      .cls-11 {
        fill: #9bd2d2;
      }

      .cls-12 {
        fill: #9bd3d2;
      }

      .cls-6 {
        stroke-width: 16.15px;
      }

      .cls-13 {
        opacity: .5;
      }

      .cls-7 {
        stroke-width: 2.66px;
      }
    </style>
    <linearGradient id="linear-gradient" x1="1472.92" y1="-3058.94" x2="1472.92" y2="-2696.93" gradientTransform="translate(-267.64 -2378.86) rotate(4.27) scale(1.12 -1)" gradientUnits="userSpaceOnUse">
      <stop offset="0" stop-color="#8a73b4"/>
      <stop offset="1" stop-color="#aca5d1"/>
    </linearGradient>
    <clipPath id="clippath">
      <ellipse class="cls-3" cx="1159.24" cy="397.86" rx="97.48" ry="139.51"/>
    </clipPath>
  </defs>
  <path class="cls-10" d="M1428.05,644.82c-3.07,41.13-43.47,71.64-90.25,68.15-11.62-.87-22.54-3.76-32.34-8.23,1.86,6.57,2.62,13.47,2.09,20.55-2.73,36.62-38.71,63.79-80.36,60.68-30.5-2.28-55.57-20.17-65.73-43.97-15.07,29.95-50.41,49.52-89.96,46.56-50.52-3.77-88.79-42.85-85.48-87.28.39-5.2,1.35-10.23,2.79-15.08-3.65.19-7.36.16-11.11-.12-42.22-3.15-74.2-35.8-71.43-72.93,1.97-26.44,21.04-48,47.1-57.1-8.74-12.36-13.35-27.1-12.19-42.59,2.91-39.03,41.25-67.98,85.63-64.67,19.74,1.47,37.34,9.09,50.55,20.52,17.21-24.48,49.05-39.69,84.25-37.06,36.59,2.73,66.74,23.99,79.34,52.38,15.93-14.94,39.23-23.53,64.51-21.64,44.38,3.31,78,37.64,75.08,76.66-.78,10.43-4.11,20.13-9.39,28.7,35.24,11.33,59.46,42.16,56.9,76.46Z"/>
  <g>
    <path class="cls-5" d="M1409.53,338.55c-28.76,16.41-61.75,20.83-93,19.69-26.62-.96-74.99-26.98-118.99-62.98"/>
    <path class="cls-5" d="M909.83,338.55c28.76,16.41,61.75,20.83,93,19.69,26.62-.96,74.99-26.98,118.99-62.98"/>
    <g class="cls-8">
      <ellipse class="cls-11" cx="1159.24" cy="397.86" rx="97.48" ry="139.51"/>
      <path class="cls-9" d="M1241.64,193.49c0,59.69-36.89,108.09-82.39,108.09s-82.39-48.39-82.39-108.09,36.89-94.46,82.39-94.46,82.39,34.76,82.39,94.46Z"/>
    </g>
    <g>
      <path class="cls-11" d="M1220.5,205.38c0,45.68-28.23,82.72-63.06,82.72s-63.06-37.03-63.06-82.72,28.23-72.29,63.06-72.29,63.06,26.6,63.06,72.29Z"/>
      <path class="cls-11" d="M1239.12,216.24c-2.62,10.32-11.53,16.97-19.9,14.84-8.38-2.12-13.05-12.21-10.43-22.53,2.62-10.32,11.53-16.97,19.9-14.84,8.38,2.12,13.05,12.21,10.43,22.53"/>
      <path class="cls-7" d="M1229.8,217.04c.46,3.81-2.25,7.27-6.05,7.73"/>
      <path class="cls-7" d="M1222.07,210.99c3.81-.46,7.27,2.25,7.73,6.05"/>
      <path class="cls-7" d="M1221.99,215.51c-3.63-5.77-2.18-14.55,1.14-16.08,2.36-1.09,5.81.02,8.47,2.51"/>
      <g>
        <path class="cls-11" d="M1075.78,216.24c2.62,10.32,11.53,16.97,19.9,14.84,8.38-2.12,13.05-12.21,10.43-22.53-2.62-10.32-11.53-16.97-19.9-14.84-8.38,2.12-13.05,12.21-10.43,22.53"/>
        <path class="cls-7" d="M1085.07,217.55c-.46,3.81,2.25,7.27,6.05,7.73"/>
        <path class="cls-7" d="M1092.8,211.49c-3.81-.46-7.27,2.25-7.73,6.05"/>
        <path class="cls-7" d="M1092.88,216.01c3.63-5.77,2.18-14.55-1.14-16.08-2.36-1.09-5.81.02-8.47,2.51"/>
      </g>
      <g>
        <path class="cls-1" d="M1121.34,204.33c6.25,6.25,16.37,6.25,22.63,0"/>
        <path class="cls-1" d="M1169.67,204.33c6.25,6.25,16.37,6.25,22.63,0"/>
        <path class="cls-2" d="M1143.97,182.55c-12.49-4.58-25.67.12-29.48,10.5"/>
        <path class="cls-2" d="M1169.32,182.55c12.49-4.58,25.67.12,29.48,10.5"/>
        <path class="cls-1" d="M1135.02,240.62c10.1,10.1,35.16,10.1,45.26,0"/>
        <line class="cls-1" x1="1155.21" y1="206.68" x2="1150.27" y2="232.12"/>
        <line class="cls-1" x1="1162.14" y1="232.45" x2="1150.27" y2="232.12"/>
      </g>
    </g>
    <path class="cls-9" d="M1252.63,357.73c-9.6-6.68-15.01-15.75-15.01-15.75-.94,11.93,16.5,23.73,16.5,23.73l-1.49-7.99Z"/>
    <path class="cls-9" d="M1065.63,358.29c9.61-6.74,14.99-15.86,14.99-15.86.94,11.93-16.46,24.56-16.46,24.56l1.47-8.71Z"/>
    <ellipse class="cls-11" cx="1068.04" cy="517.47" rx="59.13" ry="110.78" transform="translate(206.66 1333.87) rotate(-69.31)"/>
    <path class="cls-12" d="M1422.83,285.32c1.47,0,2.15.44,2.37.58,2.84,1.83,4.26,11.07-1.94,20.69-4.82,7.49-11.5,10.91-15.66,10.91-1.47,0-2.15-.44-2.37-.58-1.3-.83-2.2-2.98-2.41-5.74-.36-4.66,1.23-10.1,4.34-14.94,4.82-7.49,11.5-10.91,15.66-10.91h0M1422.83,267.14c-10.99,0-23.11,7.08-30.95,19.25-10.95,17.01-9.38,37.52,3.51,45.82,3.67,2.36,7.85,3.48,12.22,3.48,10.99,0,23.11-7.08,30.95-19.25,10.95-17.01,9.38-37.52-3.51-45.82-3.67-2.36-7.85-3.48-12.22-3.48h0Z"/>
    <path class="cls-4" d="M1409.53,326.24c16.48,10.61,46.33-6.45,66.73-38.14"/>
    <path class="cls-4" d="M1415.69,326.67c11.67,15.75,45.62,10.34,75.91-12.1"/>
    <path class="cls-6" d="M1413.92,333.25c3.54,17.04,32.91,25.32,65.68,18.52"/>
    <path class="cls-12" d="M899.49,283.42c4.16,0,10.83,3.41,15.66,10.91,3.12,4.84,4.7,10.29,4.34,14.94-.21,2.76-1.11,4.91-2.41,5.74-.22.14-.91.58-2.37.58-4.16,0-10.83-3.41-15.66-10.91-6.19-9.62-4.77-18.86-1.94-20.69.22-.14.9-.58,2.37-.58M899.49,265.24c-4.37,0-8.55,1.12-12.22,3.48-12.89,8.3-14.46,28.81-3.51,45.82,7.84,12.17,19.96,19.25,30.95,19.25,4.37,0,8.55-1.12,12.22-3.48,12.89-8.3,14.46-28.81,3.51-45.82-7.84-12.17-19.96-19.25-30.95-19.25h0Z"/>
    <path class="cls-4" d="M912.79,324.34c-16.48,10.61-46.33-6.45-66.73-38.14"/>
    <path class="cls-4" d="M906.63,324.77c-11.67,15.75-45.62,10.34-75.91-12.1"/>
    <path class="cls-6" d="M908.4,331.35c-3.54,17.04-32.91,25.32-65.68,18.52"/>
    <path class="cls-9" d="M1227.63,556.86c23.15,19.81,32.73,46.62,21.38,59.88-11.34,13.26-31.83-7.97-58.63-22.47-44.83-24.24-36.56-36.01-25.21-49.27,11.34-13.26,39.31-7.95,62.46,11.87Z"/>
    <ellipse class="cls-11" cx="1262.61" cy="517.47" rx="110.78" ry="59.13" transform="translate(-101.39 479.36) rotate(-20.69)"/>
    <g>
      <path class="cls-11" d="M1104.96,556.86c-23.15,19.81-32.73,46.62-21.38,59.88,11.34,13.26,31.83-7.97,58.63-22.47,44.83-24.24,36.56-36.01,25.21-49.27-11.34-13.26-39.31-7.95-62.46,11.87Z"/>
      <path class="cls-9" d="M1167.42,545c-18.2-15.94-52.9,3.99-67.24,18.09-6.04,5.94-11.5,12.56-16.12,19.81,5.5-11.78,13.79-22.25,23.82-30.54,10.2-8.27,22.43-14.63,35.64-16,8.58-.83,18.77,1.03,23.91,8.63h0Z"/>
    </g>
    <path class="cls-1" d="M1288.74,483.9c-79.43,4.79-124.67,32.58-129.5,53.46"/>
    <path class="cls-1" d="M1041.12,483.9c79.43,4.79,131.31,35.16,131.31,35.16"/>
    <path class="cls-11" d="M1248.36,582.57c-31.2,5.71-56.14,1.9-71.94-6.93"/>
    <g class="cls-13">
      <path class="cls-9" d="M1248.3,460.41c-5.58.42-10.81,2.27-15.89,4.49-5.1,2.32-10.06,4.86-14.54,8.3-.2.19-.54-.08-.39-.32,5.45-8.9,20.63-16,30.94-13.66.65.16.56,1.15-.11,1.18h0Z"/>
    </g>
    <g class="cls-13">
      <path class="cls-9" d="M1245.85,459.18c-6.05-1.92-12.64-1.57-18.81-.31-.15.05-.26-.16-.13-.25,5.16-3.41,14.15-3.64,19.27-.03.31.23.02.73-.33.59h0Z"/>
    </g>
    <g class="cls-13">
      <path class="cls-9" d="M1071,455.1c3.97-2.73,10.51-2.56,14.51.02.1.07.02.23-.1.19-4.64-.95-9.61-1.21-14.17.23-.26.11-.48-.28-.25-.44h0Z"/>
    </g>
    <g class="cls-13">
      <path class="cls-9" d="M1070.76,455.02c7.96-1.75,19.35,3.58,23.61,10.42.11.18-.14.39-.3.24-3.42-2.62-7.21-4.57-11.09-6.34-3.88-1.69-7.87-3.1-12.13-3.42-.51,0-.59-.79-.09-.9h0Z"/>
    </g>
    <path class="cls-9" d="M1281.6,478.07c-4.42.33-8.57,1.8-12.59,3.56-4.04,1.84-7.97,3.86-11.52,6.58-.16.15-.42-.06-.31-.25,4.42-7.1,16.24-12.64,24.51-10.82.52.12.44.92-.09.93h0Z"/>
    <path class="cls-9" d="M1048.05,477.14c8.26-1.82,20.09,3.71,24.51,10.82.11.19-.14.4-.31.25-3.55-2.72-7.48-4.75-11.52-6.58-4.03-1.76-8.18-3.22-12.59-3.56-.53,0-.61-.82-.09-.93h0Z"/>
  </g>
</svg>