<?xml version="1.0" encoding="UTF-8"?>
<svg id="Level_Complete" data-name="Level Complete" xmlns="http://www.w3.org/2000/svg" xmlns:xlink="http://www.w3.org/1999/xlink" viewBox="0 0 1600 900">
  <defs>
    <style>
      .cls-1 {
        fill: #a978b4;
      }

      .cls-1, .cls-2, .cls-3, .cls-4, .cls-5, .cls-6, .cls-7, .cls-8, .cls-9, .cls-10, .cls-11, .cls-12, .cls-13, .cls-14, .cls-15, .cls-16, .cls-17, .cls-18, .cls-19, .cls-20, .cls-21, .cls-22, .cls-23, .cls-24, .cls-25, .cls-26 {
        stroke-width: 0px;
      }

      .cls-2, .cls-5 {
        fill: #1a6c81;
      }

      .cls-3 {
        fill: #c69189;
      }

      .cls-4 {
        fill: url(#linear-gradient);
      }

      .cls-5 {
        opacity: 0;
      }

      .cls-6 {
        fill: url(#linear-gradient-11);
      }

      .cls-7 {
        fill: url(#linear-gradient-12);
      }

      .cls-8 {
        fill: url(#linear-gradient-13);
      }

      .cls-9 {
        fill: url(#linear-gradient-10);
      }

      .cls-10 {
        fill: url(#linear-gradient-16);
      }

      .cls-11 {
        fill: url(#linear-gradient-15);
      }

      .cls-12 {
        fill: url(#linear-gradient-14);
      }

      .cls-13 {
        fill: #5f9490;
      }

      .cls-14 {
        fill: #504b72;
      }

      .cls-15 {
        fill: #478797;
      }

      .cls-27 {
        opacity: .5;
      }

      .cls-16 {
        fill: url(#linear-gradient-4);
      }

      .cls-17 {
        fill: url(#linear-gradient-2);
      }

      .cls-18 {
        fill: url(#linear-gradient-3);
      }

      .cls-19 {
        fill: url(#linear-gradient-8);
      }

      .cls-20 {
        fill: url(#linear-gradient-9);
      }

      .cls-21 {
        fill: url(#linear-gradient-7);
      }

      .cls-22 {
        fill: url(#linear-gradient-5);
      }

      .cls-23 {
        fill: url(#linear-gradient-6);
      }

      .cls-24 {
        fill: #aca5d1;
        opacity: .95;
      }

      .cls-25 {
        fill: #35355c;
      }

      .cls-26 {
        fill: #fff;
      }
    </style>
    <linearGradient id="linear-gradient" x1="1706.79" y1="179.71" x2="1761.53" y2="179.71" gradientTransform="translate(905.47 -1407.27) rotate(67.07)" gradientUnits="userSpaceOnUse">
      <stop offset="0" stop-color="#00a79d"/>
      <stop offset="1" stop-color="#aca5d1"/>
    </linearGradient>
    <linearGradient id="linear-gradient-2" y1="166.02" y2="166.02" xlink:href="#linear-gradient"/>
    <linearGradient id="linear-gradient-3" x1="945.83" y1="657.61" x2="945.83" y2="748.5" gradientTransform="translate(-313.32 660.83) rotate(-34)" gradientUnits="userSpaceOnUse">
      <stop offset="0" stop-color="#478797"/>
      <stop offset="1" stop-color="#2e5e63"/>
    </linearGradient>
    <linearGradient id="linear-gradient-4" x1="-4677.52" y1="3131.43" x2="-4677.52" y2="3266.01" gradientTransform="translate(-1690.34 -4175.01) rotate(-82.63)" xlink:href="#linear-gradient-3"/>
    <linearGradient id="linear-gradient-5" x1="-3863.58" y1="4645.69" x2="-3863.58" y2="4780.27" gradientTransform="translate(1169.74 -5261.49) rotate(-139.02) scale(1 -1)" xlink:href="#linear-gradient-3"/>
    <linearGradient id="linear-gradient-6" x1="-12142.23" y1="-3984.45" x2="-12142.23" y2="-3888.86" gradientTransform="translate(-11597.33 -1626.47) rotate(-151.29) scale(1 -1)" xlink:href="#linear-gradient-3"/>
    <linearGradient id="linear-gradient-7" x1="-13000.35" y1="-5279.23" x2="-13000.35" y2="-5183.64" gradientTransform="translate(7571.17 -11510.48) rotate(-83.32)" xlink:href="#linear-gradient-3"/>
    <linearGradient id="linear-gradient-8" x1="1403.78" y1="1035.25" x2="1403.78" y2="1116.87" gradientTransform="translate(3155.06 342.72) rotate(-155.96) scale(1 -1)" xlink:href="#linear-gradient-3"/>
    <linearGradient id="linear-gradient-9" x1="-4638.92" y1="3724.56" x2="-4638.92" y2="3845.42" gradientTransform="translate(3675.03 -4658.4) rotate(-107.33) scale(1 -1)" xlink:href="#linear-gradient-3"/>
    <linearGradient id="linear-gradient-10" x1="-4324.65" y1="4306.77" x2="-4324.65" y2="4427.63" gradientTransform="translate(670.15 -5233.89) rotate(-50.94)" xlink:href="#linear-gradient-3"/>
    <linearGradient id="linear-gradient-11" x1="-12674.73" y1="-4215.03" x2="-12674.73" y2="-4129.18" gradientTransform="translate(13873.49 -3861.57) rotate(-38.66)" xlink:href="#linear-gradient-3"/>
    <linearGradient id="linear-gradient-12" x1="-12976.75" y1="-4684.77" x2="-12976.75" y2="-4598.93" gradientTransform="translate(-6715.53 -10281.66) rotate(-106.64) scale(1 -1)" xlink:href="#linear-gradient-3"/>
    <linearGradient id="linear-gradient-13" x1="952.67" y1="-283.27" x2="1062.17" y2="-283.27" gradientTransform="translate(54.48 794.42) rotate(-22.66)" gradientUnits="userSpaceOnUse">
      <stop offset="0" stop-color="#fbb040"/>
      <stop offset="1" stop-color="#ec008c"/>
    </linearGradient>
    <linearGradient id="linear-gradient-14" y1="-310.64" y2="-310.64" xlink:href="#linear-gradient-13"/>
    <linearGradient id="linear-gradient-15" x1="1420.04" y1="323.15" x2="1498.28" y2="323.15" gradientTransform="translate(-79.55 872.48) rotate(-45.31)" gradientUnits="userSpaceOnUse">
      <stop offset="0" stop-color="#004f79"/>
      <stop offset="1" stop-color="#00a79d"/>
    </linearGradient>
    <linearGradient id="linear-gradient-16" y1="303.59" y2="303.59" xlink:href="#linear-gradient-15"/>
  </defs>
  <rect class="cls-25" width="1600" height="900"/>
  <g class="cls-27">
    <path class="cls-24" d="M1484.14,330.9c-.02-.42-.03-.84-.03-1.26,0-15.27,10.11-28.18,24-32.41-1.1-2.58-1.71-5.42-1.71-8.4,0-11.85,9.61-21.45,21.45-21.45,2.36,0,4.62.39,6.74,1.09-.95-2.42-1.48-5.06-1.48-7.82,0-11.85,9.61-21.45,21.45-21.45,7.88,0,14.76,4.25,18.49,10.58,3.19-1,6.59-1.54,10.12-1.54,18.71,0,33.87,15.16,33.87,33.87,0,3.95-.68,7.73-1.92,11.26,2.18-.75,4.52-1.16,6.96-1.16.16,0,.32,0,.48.01,2.7-16.01,16.61-28.21,33.39-28.21,18.71,0,33.87,15.16,33.87,33.87,0,4.91-1.05,9.58-2.94,13.79,2.35-.89,4.9-1.38,7.56-1.38,11.57,0,20.99,9.15,21.43,20.61h-231.74Z"/>
    <path class="cls-24" d="M311.92,148.33c.02-.43.03-.87.03-1.3,0-15.78-10.45-29.11-24.8-33.48,1.13-2.67,1.76-5.6,1.76-8.68,0-12.24-9.92-22.16-22.16-22.16-2.43,0-4.77.4-6.96,1.12.98-2.5,1.52-5.22,1.52-8.08,0-12.24-9.92-22.16-22.16-22.16-8.14,0-15.25,4.39-19.1,10.93-3.3-1.03-6.81-1.59-10.45-1.59-19.32,0-34.99,15.67-34.99,34.99,0,4.08.7,7.99,1.99,11.63-2.26-.77-4.67-1.2-7.19-1.2-.17,0-.33,0-.5.01-2.78-16.54-17.16-29.14-34.49-29.14-19.32,0-34.99,15.67-34.99,34.99,0,5.08,1.09,9.89,3.03,14.25-2.43-.92-5.06-1.42-7.81-1.42-11.95,0-21.68,9.46-22.14,21.29h239.4Z"/>
    <path class="cls-24" d="M1632.37,157.47c.02-.43.03-.87.03-1.3,0-15.78-10.45-29.11-24.8-33.48,1.13-2.67,1.76-5.6,1.76-8.68,0-12.24-9.92-22.16-22.16-22.16-2.43,0-4.77.4-6.96,1.12.98-2.5,1.52-5.22,1.52-8.08,0-12.24-9.92-22.16-22.16-22.16-8.14,0-15.25,4.39-19.1,10.93-3.3-1.03-6.81-1.59-10.45-1.59-19.32,0-34.99,15.67-34.99,34.99,0,4.08.7,7.99,1.99,11.63-2.26-.77-4.67-1.2-7.19-1.2-.17,0-.33,0-.5.01-2.78-16.54-17.16-29.14-34.49-29.14-19.32,0-34.99,15.67-34.99,34.99,0,5.08,1.09,9.89,3.03,14.25-2.43-.92-5.06-1.42-7.81-1.42-11.95,0-21.68,9.46-22.14,21.29h239.4Z"/>
    <path class="cls-24" d="M350.56,261.84c-.02-.66-.05-1.33-.05-2,0-24.21,16.02-44.66,38.04-51.36-1.74-4.09-2.71-8.59-2.71-13.31,0-18.78,15.22-34,34-34,3.73,0,7.32.61,10.68,1.72-1.5-3.84-2.34-8.02-2.34-12.39,0-18.78,15.22-34,34-34,12.48,0,23.39,6.73,29.3,16.76,5.06-1.58,10.45-2.44,16.03-2.44,29.65,0,53.68,24.03,53.68,53.68,0,6.26-1.08,12.26-3.05,17.84,3.46-1.19,7.17-1.84,11.03-1.84.26,0,.51.01.76.02,4.27-25.37,26.33-44.71,52.92-44.71,29.65,0,53.68,24.03,53.68,53.68,0,7.79-1.67,15.18-4.65,21.86,3.73-1.41,7.77-2.18,11.99-2.18,18.33,0,33.27,14.51,33.97,32.67h-367.29Z"/>
  </g>
  <g>
    <circle class="cls-4" cx="1415.69" cy="259.84" r="27.37"/>
    <path class="cls-2" d="M1422.64,256.9c-11.01-26.03-23.45-45.65-27.79-43.82-4.33,1.83,1.08,24.42,12.1,50.45,11.01,26.03,23.45,45.65,27.79,43.82,4.33-1.83-1.08-24.42-12.1-50.45ZM1408.98,262.68c-8.33-19.68-12.55-36.71-9.43-38.03s12.4,13.57,20.73,33.25c8.33,19.68,12.55,36.71,9.43,38.03-3.12,1.32-12.4-13.57-20.73-33.25Z"/>
    <path class="cls-17" d="M1405.02,234.63c13.92-5.89,29.99.62,35.88,14.54,5.89,13.92-.62,29.99-14.54,35.88"/>
  </g>
  <path class="cls-14" d="M1470.21,931.75q-249.5-1.88-450.39-2.21c-93.16-.15,95.65-171.77,48.75-297.75-25.32-68.02-68.66-49.3-139.3-152.18-58.54-85.26-96.07-194-43.4-276.74,40.53-63.66,12-114.88-30.65-142.32-61.93-39.84-117.25-90.43-67.57-90.43,326.24,0,153.55-1.88,442.53-1.88,39.76,0,154.62,16.09,149.48,103.34-6.1,103.4-38.53,130.79-30.18,200.71,10.45,87.53,78.22,83.85,97.51,163.21,32.94,135.56-147.14,219.01-113.76,344.07,25.4,95.16,183.42,152.53,136.97,152.18Z"/>
  <g>
    <path class="cls-3" d="M782.74,802.58c11.65,10.99,18,38.18,13.84,40.22-6.2,3.04-25.44-25.69-26.48-27.25-10.8-16.26-20.05-38.3-16.41-38.2,1.14.03,7.77,5.15,29.05,25.23Z"/>
    <path class="cls-3" d="M818.08,818.98c6.18,14.78.95,42.2-3.68,42.38-6.9.26-12.82-33.81-13.13-35.65-3.26-19.25-2.77-43.14.51-41.58,1.03.49,5.01,7.86,16.31,34.86Z"/>
    <path class="cls-3" d="M844.63,836.85c4.33,15.42-4.23,42-8.84,41.61-6.88-.59-8.59-35.12-8.67-36.99-.88-19.5,2.53-43.15,5.6-41.2.96.61,4.01,8.41,11.92,36.59Z"/>
    <path class="cls-3" d="M862.7,859.2c3.26,11.62-3.18,31.64-6.66,31.34-5.18-.44-6.47-26.46-6.53-27.87-.67-14.69,1.9-32.51,4.22-31.04.72.46,3.02,6.34,8.98,27.56Z"/>
    <path class="cls-3" d="M879.18,882.29c3.31,9.46-.51,25-3.28,24.54-4.12-.68-6.78-21.48-6.92-22.61-1.45-11.74-.55-25.77,1.37-24.46.6.41,2.78,5.24,8.83,22.52Z"/>
    <path class="cls-3" d="M775.12,840.8c15.95,1.49,37.7,19,35.67,23.17-3.02,6.21-35.87-4.57-37.64-5.16-18.52-6.16-39.38-17.82-36.46-19.99.91-.68,9.29-.73,38.43,1.99Z"/>
    <path class="cls-3" d="M787.12,887.94c15.88,2.14,41.01-10.03,39.97-14.54-1.54-6.73-35.98-3.62-37.84-3.44-19.43,1.84-42.38,8.5-40.02,11.27.74.87,8.89,2.8,37.89,6.71Z"/>
    <path class="cls-3" d="M814.05,902.3c12.98-.65,31.22-14.09,29.72-17.54-2.23-5.14-29.23,2.46-30.69,2.88-15.23,4.35-32.54,13.08-30.25,14.94.72.58,7.5.91,31.22-.28Z"/>
    <path class="cls-3" d="M844.41,911.11c9.27-1.06,22.83-12.38,21.91-15.02-1.37-3.94-20.92,3.17-21.98,3.56-11.03,4.06-23.73,11.65-22.18,13.01.49.43,5.3.4,22.24-1.54Z"/>
    <path class="cls-3" d="M880.28,912.37c-22.26-33.78-54.12-23.03-88.9-77.39"/>
  </g>
  <g>
    <path class="cls-15" d="M884.25,751.52c11.3,18.16,21.62,36.93,30.88,56.21,9.23,19.22,17.28,38.62,24.36,58.76,3.98,11.3,7.6,22.73,10.89,34.26.55,1.95,2.65,3.16,4.61,2.62s3.18-2.66,2.62-4.61c-5.9-20.72-12.93-41.11-21.06-61.06-8.14-19.97-17.31-39.51-27.56-58.48-5.76-10.68-11.86-21.18-18.27-31.48-1.07-1.72-3.35-2.39-5.13-1.35s-2.42,3.4-1.35,5.13h0Z"/>
    <g>
      <path class="cls-18" d="M889.25,752.49c-9.29,6.26-39.48-1.32-45.89-11.63-8.15-13.12-17.63-55.15-4.82-63.79,12.81-8.64,48.49,15.7,57.35,28.36,5.62,8.03,2.65,40.8-6.64,47.07Z"/>
      <path class="cls-13" d="M838.54,677.07c17.74,24.59,34.41,49.91,49.96,75.93-17.74-24.58-34.4-49.91-49.96-75.93h0Z"/>
      <path class="cls-13" d="M856.6,704.52c1.3-8.21,3.88-16.21,7.67-23.62-1.29,8.22-3.89,16.21-7.67,23.62h0Z"/>
      <path class="cls-13" d="M866.72,719.51c2.12-10.74,5.51-21.23,10.12-31.17-2.11,10.75-5.52,21.22-10.12,31.17h0Z"/>
      <path class="cls-13" d="M878.01,736.25c2.87-13.07,7.01-25.85,12.37-38.11-2.86,13.07-7.02,25.85-12.37,38.11h0Z"/>
      <path class="cls-13" d="M867.32,719.93c-10.94.54-21.93-.22-32.69-2.29,10.94-.55,21.93.23,32.69,2.29h0Z"/>
      <path class="cls-13" d="M877.91,736.89c-12.65.43-25.33-.44-37.8-2.62,12.65-.44,25.33.45,37.8,2.62h0Z"/>
      <path class="cls-13" d="M857.42,704.47c-8.28.72-16.67.15-24.77-1.74,8.28-.73,16.67-.14,24.77,1.74h0Z"/>
    </g>
    <g>
      <path class="cls-16" d="M948.9,882.88c-2.13,16.45-40.11,42.58-57.84,39.61-22.56-3.78-78.54-34.38-75.6-57.07,2.93-22.68,64.9-38.51,87.63-35.97,14.43,1.61,47.93,36.99,45.81,53.44Z"/>
      <path class="cls-13" d="M815.46,865.42c44.6,4.97,89.04,11.23,133.27,18.79-44.6-4.96-89.03-11.24-133.27-18.79h0Z"/>
      <path class="cls-13" d="M863.65,872.21c-7.34-9.84-13.65-20.46-18.74-31.63,7.35,9.84,13.64,20.46,18.74,31.63h0Z"/>
      <path class="cls-13" d="M890.2,875.65c-9.35-13.22-17.63-27.19-24.73-41.74,9.35,13.22,17.62,27.19,24.73,41.74h0Z"/>
      <path class="cls-13" d="M919.85,879.48c-11.19-16.34-21.3-33.38-30.24-51.04,11.2,16.33,21.29,33.37,30.24,51.04h0Z"/>
      <path class="cls-13" d="M891.26,875.4c-10.57,12.26-22.12,23.68-34.53,34.08,10.57-12.27,22.13-23.67,34.53-34.08h0Z"/>
      <path class="cls-13" d="M920.46,880.22c-12.38,14.06-25.7,27.23-39.9,39.43,12.36-14.06,25.69-27.22,39.9-39.43h0Z"/>
      <path class="cls-13" d="M864.39,871.26c-7.78,9.5-16.56,18.18-26.17,25.83,7.77-9.51,16.56-18.17,26.17-25.83h0Z"/>
    </g>
    <g>
      <path class="cls-22" d="M951.46,881.16c12.52,10.88,58.27,5.16,69.54-8.84,14.34-17.82,35.83-77.89,18.57-92.89-17.27-15-74.09,14.36-89.39,31.36-9.71,10.79-11.24,59.49,1.28,70.37Z"/>
      <path class="cls-13" d="M1039.57,779.43c-28.04,35.04-57.07,69.26-87.1,102.61,28.03-35.04,57.07-69.25,87.1-102.61h0Z"/>
      <path class="cls-13" d="M1008.08,816.53c-3.61-11.74-5.97-23.85-7.02-36.09,3.62,11.74,5.96,23.86,7.02,36.09h0Z"/>
      <path class="cls-13" d="M990.52,836.74c-4.36-15.59-7.47-31.53-9.26-47.62,4.37,15.59,7.46,31.53,9.26,47.62h0Z"/>
      <path class="cls-13" d="M970.91,859.31c-5.05-19.15-8.84-38.59-11.32-58.24,5.06,19.14,8.83,38.59,11.32,58.24h0Z"/>
      <path class="cls-13" d="M989.56,837.25c16.18-.46,32.4.37,48.45,2.51-16.18.47-32.4-.38-48.45-2.51h0Z"/>
      <path class="cls-13" d="M970.94,860.27c18.73-.32,37.44.66,56.02,2.95-18.72.33-37.43-.67-56.02-2.95h0Z"/>
      <path class="cls-13" d="M1006.89,816.31c12.26-.67,24.59-.04,36.72,1.9-12.26.68-24.59.03-36.72-1.9h0Z"/>
    </g>
    <g>
      <path class="cls-23" d="M920.59,794.76c10.33,5.66,41.22-5.22,46.93-16.64,7.26-14.53,13.11-59.47-1.14-67.27-14.25-7.8-49.25,21.15-57.3,35.27-5.11,8.96,1.19,42.99,11.52,48.65Z"/>
      <path class="cls-13" d="M966.37,710.85c-13.83,28.73-28.82,56.87-44.95,84.37,13.82-28.73,28.82-56.86,44.95-84.37h0Z"/>
      <path class="cls-13" d="M950.12,741.35c-4.03-7.73-7.49-15.75-10.32-23.99,4.03,7.73,7.48,15.75,10.32,23.99h0Z"/>
      <path class="cls-13" d="M940.98,758.03c-5.13-10.29-9.68-20.86-13.62-31.65,5.13,10.28,9.68,20.86,13.62,31.65h0Z"/>
      <path class="cls-13" d="M930.78,776.66c-6.13-12.64-11.7-25.56-16.65-38.71,6.14,12.64,11.69,25.56,16.65,38.71h0Z"/>
      <path class="cls-13" d="M940.4,758.54c11.22-2.49,22.58-4.36,34.01-5.57-11.22,2.5-22.58,4.36-34.01,5.57h0Z"/>
      <path class="cls-13" d="M930.95,777.32c13-2.76,26.12-4.91,39.33-6.41-13,2.77-26.12,4.91-39.33,6.41h0Z"/>
      <path class="cls-13" d="M949.26,741.38c8.47-2.04,17.09-3.46,25.77-4.22-8.47,2.05-17.09,3.46-25.77,4.22h0Z"/>
    </g>
    <g>
      <path class="cls-21" d="M910.56,798.83c-1.37,11.7-28.12,30.58-40.74,28.62-16.05-2.5-56.07-23.75-54.18-39.89,1.89-16.14,45.77-27.91,61.93-26.3,10.26,1.02,34.36,25.86,32.99,37.56Z"/>
      <path class="cls-13" d="M815.63,787.57c31.76,2.78,63.39,6.84,94.81,12.21-31.76-2.77-63.38-6.85-94.81-12.21h0Z"/>
      <path class="cls-13" d="M849.91,791.98c-5.61-6.71-10.21-14.24-13.58-22.31,5.61,6.7,10.2,14.25,13.58,22.31h0Z"/>
      <path class="cls-13" d="M868.8,794.19c-7.06-9.09-13.09-18.98-17.92-29.43,7.07,9.09,13.08,18.99,17.92,29.43h0Z"/>
      <path class="cls-13" d="M889.89,796.66c-8.4-11.29-15.75-23.35-21.91-35.99,8.4,11.28,15.74,23.35,21.91,35.99h0Z"/>
      <path class="cls-13" d="M869.55,794.01c-7.12,9.05-15.26,17.29-24.24,24.5,7.11-9.05,15.27-17.28,24.24-24.5h0Z"/>
      <path class="cls-13" d="M890.33,797.19c-8.38,10.33-17.76,19.85-28,28.35,8.37-10.34,17.77-19.84,28-28.35h0Z"/>
      <path class="cls-13" d="M850.43,791.3c-5.15,7.06-11.36,13.34-18.37,18.57,5.15-7.07,11.36-13.33,18.37-18.57h0Z"/>
    </g>
  </g>
  <g>
    <path class="cls-3" d="M1531.34,787.75c-5.11,15.18,2.07,42.16,6.7,42,6.9-.24,10.38-34.64,10.56-36.5,1.88-19.43-.31-43.23-3.48-41.44-.99.56-4.43,8.19-13.78,35.93Z"/>
    <path class="cls-3" d="M1507.86,818.85c1.49,15.95,19.01,37.69,23.18,35.67,6.21-3.02-4.58-35.87-5.17-37.64-6.17-18.52-17.84-39.38-20-36.45-.68.91-.72,9.29,2,38.43Z"/>
    <path class="cls-3" d="M1492.83,847.1c3.43,15.65,23.48,35.08,27.37,32.56,5.8-3.76-8.94-35.04-9.74-36.73-8.39-17.63-22.52-36.9-24.31-33.73-.56.99.42,9.31,6.69,37.9Z"/>
    <path class="cls-3" d="M1487.39,875.32c2.59,11.79,17.69,26.43,20.62,24.53,4.37-2.83-6.73-26.39-7.34-27.67-6.32-13.28-16.97-27.8-18.32-25.41-.42.75.31,7.01,5.04,28.55Z"/>
    <path class="cls-3" d="M1483.7,903.45c1.53,9.91,12.21,21.82,14.43,20.12,3.32-2.54-4.12-22.15-4.53-23.21-4.24-11.05-11.63-23.01-12.71-20.94-.34.65,0,5.93,2.8,24.03Z"/>
    <path class="cls-3" d="M1556.03,817.9c-13.38,8.81-24.34,34.49-20.59,37.22,5.58,4.07,29.51-20.9,30.8-22.25,13.45-14.15,26.38-34.25,22.78-34.79-1.13-.17-8.54,3.72-32.98,19.82Z"/>
    <path class="cls-3" d="M1567.61,865.15c-13,9.36-40.9,10.43-42.12,5.96-1.81-6.67,30.05-20.11,31.78-20.83,18.01-7.52,41.4-12.42,40.62-8.87-.24,1.11-6.53,6.65-30.29,23.74Z"/>
    <path class="cls-3" d="M1550.6,890.48c-11.76,5.53-34.17,2.24-34.48-1.5-.45-5.59,26.96-11.58,28.44-11.89,15.49-3.32,34.87-3.76,33.72-1.04-.36.85-6.19,4.33-27.68,14.44Z"/>
    <path class="cls-3" d="M1496.87,930.51c3.76-40.28,36.93-45.77,42.07-110.11"/>
  </g>
  <g>
    <path class="cls-15" d="M1416.02,787.09c-7.22,17.94-13.47,36.26-18.69,54.88s-9.39,37.36-12.53,56.36c-1.8,10.88-3.27,21.81-4.41,32.77-.19,1.81,1.68,3.37,3.37,3.37,1.98,0,3.18-1.55,3.37-3.37,1.97-18.93,4.99-37.75,9.01-56.35s9.13-37.27,15.19-55.46c3.42-10.25,7.15-20.39,11.18-30.41.68-1.69-.74-3.7-2.35-4.14-1.92-.53-3.46.66-4.14,2.35h0Z"/>
    <g>
      <path class="cls-19" d="M1418.15,790.79c9.19,4.1,34.72-7.3,38.78-17.42,5.17-12.87,7.03-51.52-5.64-57.17-12.67-5.65-40.45,21.42-46.32,33.99-3.73,7.98,3.99,36.5,13.18,40.6Z"/>
      <path class="cls-13" d="M1451.29,716.2c-9.73,25.44-20.52,50.42-32.4,74.92,9.72-25.44,20.53-50.41,32.4-74.92h0Z"/>
      <path class="cls-13" d="M1439.57,743.29c-4.49-5.97-8.03-12.63-10.45-19.7,4.5,5.96,8.03,12.64,10.45,19.7h0Z"/>
      <path class="cls-13" d="M1432.96,758.12c-5.61-8.08-10.25-16.82-13.79-26,5.62,8.07,10.25,16.82,13.79,26h0Z"/>
      <path class="cls-13" d="M1425.57,774.68c-6.64-10.02-12.3-20.67-16.86-31.79,6.64,10.01,12.29,20.68,16.86,31.79h0Z"/>
      <path class="cls-13" d="M1432.49,758.59c9.19-3.49,18.8-5.89,28.56-7.1-9.19,3.5-18.8,5.88-28.56,7.1h0Z"/>
      <path class="cls-13" d="M1425.76,775.23c10.69-3.85,21.77-6.61,33.02-8.19-10.69,3.86-21.77,6.6-33.02,8.19h0Z"/>
      <path class="cls-13" d="M1438.84,743.37c6.88-2.91,14.2-4.75,21.64-5.38-6.87,2.92-14.2,4.74-21.64,5.38h0Z"/>
    </g>
    <g>
      <path class="cls-20" d="M1385.63,915.39c4.44,14.22,42.09,31.43,57.31,26.05,19.37-6.85,64.13-42.61,58.01-62.22-6.12-19.61-63.39-23.99-83.1-18.21-12.51,3.67-36.65,40.16-32.22,54.38Z"/>
      <path class="cls-13" d="M1500.95,879.22c-37.81,13.49-76.43,26.04-114.96,37.32,37.81-13.5,76.43-26.03,114.96-37.32h0Z"/>
      <path class="cls-13" d="M1459.39,892.71c2.78-10.67,6.69-21.05,11.67-30.89-2.77,10.68-6.7,21.04-11.67,30.89h0Z"/>
      <path class="cls-13" d="M1436.44,899.87c4.03-13.97,9.17-27.62,15.39-40.76-4.02,13.98-9.18,27.62-15.39,40.76h0Z"/>
      <path class="cls-13" d="M1410.81,907.87c5.18-17.02,11.45-33.65,18.82-49.84-5.17,17.03-11.46,33.65-18.82,49.84h0Z"/>
      <path class="cls-13" d="M1435.46,899.82c12.59,7.28,24.59,15.57,35.84,24.78-12.59-7.27-24.58-15.58-35.84-24.78h0Z"/>
      <path class="cls-13" d="M1458.58,891.99c9.69,5.28,18.81,11.57,27.16,18.78-9.69-5.27-18.8-11.58-27.16-18.78h0Z"/>
    </g>
    <g>
      <path class="cls-9" d="M1383.1,914.27c-9.38,11.57-50.74,13.62-62.88,2.98-15.45-13.53-43.79-63.33-30.85-79.28,12.94-15.95,67.77,1.19,83.94,13.86,10.26,8.04,19.18,50.88,9.79,62.44Z"/>
      <path class="cls-13" d="M1289.37,837.97c31.61,24.75,62.85,50.69,92.97,77.23-31.62-24.75-62.84-50.7-92.97-77.23h0Z"/>
      <path class="cls-13" d="M1322.99,865.89c-.97-10.99-.78-22.07.6-33.02.98,10.99.77,22.07-.6,33.02h0Z"/>
      <path class="cls-13" d="M1341.66,881.04c-.9-14.51-.65-29.09.79-43.56.91,14.51.64,29.09-.79,43.56h0Z"/>
      <path class="cls-13" d="M1362.51,897.96c-.84-17.77-.53-35.54.97-53.27.85,17.78.52,35.54-.97,53.27h0Z"/>
      <path class="cls-13" d="M1342.58,881.35c-13.86,4.38-28.08,7.65-42.47,9.75,13.86-4.39,28.08-7.64,42.47-9.75h0Z"/>
      <path class="cls-13" d="M1362.63,898.82c-16.1,4.91-32.47,8.69-49.09,11.31,16.1-4.92,32.47-8.68,49.09-11.31h0Z"/>
      <path class="cls-13" d="M1324.01,865.51c-10.43,3.59-21.23,6.08-32.18,7.39,10.43-3.6,21.23-6.07,32.18-7.39h0Z"/>
    </g>
    <g>
      <path class="cls-6" d="M1397,833.05c-8.26,6.61-37.27,1.79-44.09-7.43-8.68-11.73-20.83-50.57-9.44-59.68,11.39-9.12,46.85,11.06,56.16,22.29,5.91,7.13,5.63,38.21-2.63,44.82Z"/>
      <path class="cls-13" d="M1343.47,765.94c18.46,21.74,36.24,44.47,52.86,67.64-18.47-21.73-36.23-44.48-52.86-67.64h0Z"/>
      <path class="cls-13" d="M1362.58,790.39c1.23-7.74,3.03-15.35,5.4-22.82-1.23,7.74-3.03,15.35-5.4,22.82h0Z"/>
      <path class="cls-13" d="M1373.25,803.73c1.82-10.16,4.19-20.22,7.13-30.11-1.8,10.16-4.2,20.22-7.13,30.11h0Z"/>
      <path class="cls-13" d="M1385.16,818.62c2.35-12.4,5.25-24.69,8.72-36.83-2.34,12.4-5.26,24.69-8.72,36.83h0Z"/>
      <path class="cls-13" d="M1373.85,804.08c-10.3.69-20.63.82-30.95.35,10.3-.7,20.63-.81,30.95-.35h0Z"/>
      <path class="cls-13" d="M1385.12,819.23c-11.91.72-23.86.87-35.78.43,11.91-.72,23.86-.86,35.78-.43h0Z"/>
      <path class="cls-13" d="M1363.34,790.29c-7.81.67-15.63.77-23.45.27,7.81-.68,15.63-.76,23.45-.27h0Z"/>
    </g>
    <g>
      <path class="cls-7" d="M1406.5,835.09c3.03,10.14,29.63,22.68,40.48,18.99,13.81-4.7,45.91-29.72,41.73-43.7-4.18-13.98-44.82-17.58-58.87-13.64-8.92,2.5-26.38,28.21-23.35,38.35Z"/>
      <path class="cls-13" d="M1488.71,810.38c-26.86,9.58-54.41,18.17-81.97,25.52,26.86-9.59,54.42-18.16,81.97-25.52h0Z"/>
      <path class="cls-13" d="M1459.08,819.61c1.74-7.65,4.62-15.04,8.55-21.84-1.73,7.66-4.63,15.04-8.55,21.84h0Z"/>
      <path class="cls-13" d="M1442.71,824.5c2.66-9.99,6.44-19.68,11.28-28.82-2.65,10-6.45,19.68-11.28,28.82h0Z"/>
      <path class="cls-13" d="M1424.44,829.96c3.5-12.14,8.11-23.96,13.79-35.24-3.49,12.14-8.12,23.95-13.79,35.24h0Z"/>
      <path class="cls-13" d="M1442.02,824.45c9.06,4.99,17.54,11,25.24,17.9-9.06-4.98-17.54-11.01-25.24-17.9h0Z"/>
      <path class="cls-13" d="M1424.13,830.49c10.37,5.93,20.16,12.88,29.17,20.72-10.38-5.93-20.15-12.88-29.17-20.72h0Z"/>
      <path class="cls-13" d="M1458.51,819.09c7.01,3.54,13.48,8.12,19.13,13.57-7.01-3.53-13.47-8.13-19.13-13.57h0Z"/>
    </g>
  </g>
  <g>
    <circle class="cls-8" cx="875.01" cy="144.91" r="54.75"/>
    <path class="cls-1" d="M869.2,130.98c-52.17,21.78-91.52,46.47-87.9,55.16,3.62,8.68,48.85-1.93,101.02-23.71,52.17-21.78,91.52-46.47,87.9-55.16-3.62-8.68-48.85,1.93-101.02,23.71ZM880.63,158.35c-39.45,16.47-73.54,24.75-76.15,18.5s27.26-24.67,66.7-41.14c39.45-16.47,73.54-24.75,76.15-18.5s-27.26,24.67-66.7,41.14Z"/>
    <path class="cls-12" d="M824.49,166c-11.65-27.9,1.53-59.96,29.43-71.61,27.9-11.65,59.96,1.53,71.61,29.43"/>
  </g>
  <g>
    <circle class="cls-11" cx="1176.42" cy="62.47" r="39.12"/>
    <path class="cls-5" d="M1168.75,54.89c-28.41,28.72-47.57,55.83-42.79,60.56,4.78,4.73,31.69-14.72,60.1-43.43,28.41-28.72,47.57-55.83,42.79-60.56-4.78-4.73-31.69,14.72-60.1,43.43ZM1183.82,69.79c-21.48,21.72-41.69,36.56-45.13,33.16s11.19-23.77,32.67-45.48,41.69-36.56,45.13-33.16c3.44,3.4-11.19,23.77-32.67,45.48Z"/>
    <path class="cls-10" d="M1148.91,90.28c-15.36-15.2-15.49-39.97-.3-55.32,15.2-15.36,39.97-15.49,55.32-.3"/>
  </g>
  <path class="cls-26" d="M1323.86,302.61c1.95-1.95,10.34-3.83,10.34-3.83,0,0-8.39-1.88-10.34-3.83s-3.83-10.34-3.83-10.34c0,0-1.88,8.39-3.83,10.34-1.95,1.95-10.34,3.83-10.34,3.83,0,0,8.39,1.88,10.34,3.83,1.95,1.95,3.83,10.34,3.83,10.34,0,0,1.88-8.39,3.83-10.34Z"/>
  <path class="cls-26" d="M1240.32,118.96c1.95-1.95,10.34-3.83,10.34-3.83,0,0-8.39-1.88-10.34-3.83s-3.83-10.34-3.83-10.34c0,0-1.88,8.39-3.83,10.34-1.95,1.95-10.34,3.83-10.34,3.83,0,0,8.39,1.88,10.34,3.83,1.95,1.95,3.83,10.34,3.83,10.34,0,0,1.88-8.39,3.83-10.34Z"/>
  <path class="cls-26" d="M1409.95,88.06c-.9-.9-4.76-1.76-4.76-1.76,0,0,3.87-.86,4.76-1.76s1.76-4.76,1.76-4.76c0,0,.86,3.87,1.76,4.76s4.76,1.76,4.76,1.76c0,0-3.87.86-4.76,1.76s-1.76,4.76-1.76,4.76c0,0-.86-3.87-1.76-4.76Z"/>
  <path class="cls-26" d="M1385.57,55.37c-3-3-15.7-5-15.7-5,0,0,12.91-2.89,15.91-5.89,3-3,5.89-23.21,5.89-23.21,0,0,2.89,20.21,5.89,23.21,3,3,15.91,5.89,15.91,5.89,0,0-12.91,2.89-15.91,5.89s-5.89,24.2-5.89,24.2c0,0-3.1-22.1-6.1-25.1Z"/>
  <path class="cls-26" d="M1300.76,262.5c3-3,15.7-5,15.7-5,0,0-12.91-2.89-15.91-5.89-3-3-5.89-23.21-5.89-23.21,0,0-2.89,20.21-5.89,23.21-3,3-15.91,5.89-15.91,5.89,0,0,12.91,2.89,15.91,5.89s5.89,24.2,5.89,24.2c0,0,3.1-22.1,6.1-25.1Z"/>
  <path class="cls-26" d="M998.41,177.51c-3-3-15.7-5-15.7-5,0,0,12.91-2.89,15.91-5.89,3-3,5.89-23.21,5.89-23.21,0,0,2.89,20.21,5.89,23.21,3,3,15.91,5.89,15.91,5.89,0,0-12.91,2.89-15.91,5.89s-5.89,24.2-5.89,24.2c0,0-3.1-22.1-6.1-25.1Z"/>
  <path class="cls-26" d="M931.6,262.42c-1.47-1.47-7.68-2.45-7.68-2.45,0,0,6.32-1.41,7.79-2.88,1.47-1.47,2.88-11.35,2.88-11.35,0,0,1.41,9.89,2.88,11.35,1.47,1.47,7.79,2.88,7.79,2.88,0,0-6.32,1.41-7.79,2.88s-2.88,11.84-2.88,11.84c0,0-1.52-10.81-2.99-12.28Z"/>
  <circle class="cls-26" cx="949.55" cy="45.18" r="11.49"/>
  <circle class="cls-14" cx="1369.47" cy="225.04" r="11.49"/>
  <circle class="cls-14" cx="804.31" cy="80.46" r="11.49"/>
  <circle class="cls-14" cx="768.45" cy="128.08" r="23.84"/>
  <circle class="cls-14" cx="912.79" cy="483.56" r="6.66"/>
  <path class="cls-14" d="M931.78,524.63c-8.11-10.37-11.13-21.56-6.75-24.98s7.97,7.32,16.08,17.69c8.11,10.37,17.66,16.45,13.28,19.87s-14.51-2.21-22.61-12.58Z"/>
  <path class="cls-14" d="M1368.14,305.19c-5.2-12.09-5.28-23.68-.17-25.87,5.11-2.2,5.85,9.1,11.05,21.2,5.2,12.09,12.9,20.4,7.79,22.6-5.11,2.2-13.47-5.82-18.67-17.92Z"/>
  <path class="cls-14" d="M1460.74,547.19c-11.1,25.19-28.53,41.37-33.62,39.12-5.09-2.24,11.6-20.39,22.7-45.58s12.4-47.87,17.49-45.63c5.09,2.24,4.53,26.9-6.57,52.09Z"/>
  <circle class="cls-14" cx="834.68" cy="262.64" r="8.03"/>
  <circle class="cls-26" cx="976.58" cy="68.98" r="6.13"/>
  <circle class="cls-14" cx="1375.64" cy="197.51" r="6.13"/>
</svg>