<?xml version="1.0" encoding="UTF-8"?>
<svg id="Start_Screen" data-name="Start Screen" xmlns="http://www.w3.org/2000/svg" viewBox="0 0 373 265.53">
  <defs>
    <style>
      .cls-1 {
        fill: #fff;
        stroke-width: 0px;
      }
    </style>
  </defs>
  <g>
    <path class="cls-1" d="M124.98,107.78c3.59,0,5.38,1.79,5.38,5.38v20.09c0,3.41-1.79,5.38-5.38,5.38H35.82c-4.31,0-5.92-2.69-3.77-6.46l48.98-86.11c.72-1.26.18-2.15-1.26-2.15h-34.26c-3.41,0-5.38-1.97-5.38-5.38v-20.09c0-3.59,1.97-5.38,5.38-5.38h86.47c4.31,0,5.92,2.69,3.77,6.46l-49.87,86.11c-.72,1.26-.18,2.15,1.26,2.15h37.85Z"/>
    <path class="cls-1" d="M226.52,13.06c3.59,0,5.38,1.79,5.38,5.38v20.09c0,3.41-1.79,5.38-5.38,5.38h-43.41c-3.41,0-5.38,1.79-5.38,5.38v5.74c0,3.41,1.97,5.38,5.38,5.38h27.81c3.59,0,5.38,1.79,5.38,5.38v20.09c0,3.41-1.79,5.38-5.38,5.38h-27.81c-3.41,0-5.38,1.79-5.38,5.38v5.74c0,3.41,1.97,5.38,5.38,5.38h43.41c3.59,0,5.38,1.79,5.38,5.38v20.09c0,3.59-1.79,5.38-5.38,5.38h-75.35c-3.41,0-5.38-1.97-5.38-5.38V18.44c0-3.59,1.97-5.38,5.38-5.38h75.35Z"/>
    <path class="cls-1" d="M277.47,13.06c3.05,0,5.02,1.26,6.28,4.13l24.4,59.74c.72,1.61,2.15,1.26,2.15-.54V18.44c0-3.59,1.97-5.38,5.38-5.38h20.09c3.59,0,5.38,1.79,5.38,5.38v114.81c0,3.41-1.79,5.38-5.38,5.38h-26.37c-3.05,0-5.02-1.26-6.28-4.13l-24.4-59.74c-.72-1.62-2.15-1.26-2.15.54v57.95c0,3.41-1.79,5.38-5.38,5.38h-20.09c-3.41,0-5.38-1.97-5.38-5.38V18.44c0-3.59,1.97-5.38,5.38-5.38h26.37Z"/>
  </g>
  <g>
    <path class="cls-1" d="M67.58,169.73c22.22,0,30.73,8.98,30.73,28.37,0,4.02-1.18,11.82-6.03,17.14,4.85,2.25,8.39,8.16,8.39,15.48,0,14.66-6.5,21.75-28.72,21.75h-29.19c-2.25,0-3.55-1.3-3.55-3.55v-75.53c0-2.36,1.18-3.55,3.55-3.66h24.82ZM70.42,235.68c5.67,0,8.51-.59,8.51-6.15s-2.6-6.38-8.27-6.38h-7.68c-2.25,0-3.55,1.18-3.55,3.55v5.44c0,2.36,1.3,3.55,3.55,3.55h7.45ZM69.47,206.13c5.67,0,8.51-.71,8.51-8.04s-2.84-8.04-8.51-8.04h-6.38c-2.25,0-3.55,1.18-3.55,3.55v8.98c0,2.36,1.3,3.55,3.55,3.55h6.38Z"/>
    <path class="cls-1" d="M170.76,246.08c1.65,3.07-.24,6.38-3.9,6.38h-13.47c-1.18,0-2.25-.59-2.72-1.65l-12.29-23.76c-.24-.35-.59-.59-.95-.59h-4.73c-2.13,0-3.66,1.54-3.66,3.66v18.67c0,2.13-1.54,3.66-3.66,3.66h-13.24c-2.13,0-3.66-1.54-3.66-3.66v-75.41c0-2.13,1.54-3.66,3.66-3.66h25.88c21.04,0,29.55,8.98,29.55,28.37,0,10.99-2.72,18.67-8.98,23.17-.47.35-.59.95-.36,1.54l12.53,23.28ZM132.7,190.06c-2.13,0-3.66,1.54-3.66,3.66v8.75c0,2.13,1.54,3.66,3.66,3.66h6.03c5.67,0,8.51-.71,8.51-8.04s-2.84-8.04-8.51-8.04h-6.03Z"/>
    <path class="cls-1" d="M235.88,248.45c0,2.6-1.18,4.02-3.54,4.02h-13.24c-2.25,0-3.55-1.18-3.55-3.55v-10.28c0-2.36-1.18-3.55-3.55-3.55h-10.17c-2.25,0-3.54,1.18-3.54,3.55v10.28c0,2.36-1.18,3.55-3.55,3.55h-13.24c-2.25,0-3.55-1.42-3.55-4.02v-50.11c0-14.89,2.36-30.73,28.96-30.73s28.96,15.84,28.96,30.73v50.11ZM215.55,198.33c0-5.67-.83-8.51-8.63-8.51s-8.63,2.84-8.63,8.51v12.88c0,2.25,1.3,3.55,3.54,3.55h10.17c2.36-.12,3.55-1.3,3.55-3.66v-12.76Z"/>
    <path class="cls-1" d="M263.65,169.73c2.36,0,3.55,1.18,3.55,3.55v75.64c0,2.25-1.18,3.55-3.55,3.55h-13c-2.25,0-3.55-1.3-3.55-3.55v-75.64c0-2.36,1.3-3.55,3.55-3.55h13Z"/>
    <path class="cls-1" d="M299.94,169.73c2.01,0,3.31.83,4.14,2.72l16.08,39.36c.47,1.06,1.42.83,1.42-.35v-38.18c0-2.36,1.3-3.55,3.55-3.55h13.24c2.36,0,3.54,1.18,3.54,3.55v75.64c0,2.25-1.18,3.55-3.54,3.55h-17.38c-2.01,0-3.31-.83-4.14-2.72l-16.07-39.36c-.47-1.06-1.42-.83-1.42.35v38.18c0,2.25-1.18,3.55-3.55,3.55h-13.24c-2.25,0-3.55-1.3-3.55-3.55v-75.64c0-2.36,1.3-3.55,3.55-3.55h17.37Z"/>
  </g>
</svg>