<?xml version="1.0" encoding="UTF-8"?>
<svg id="Game_Over" data-name="Game Over" xmlns="http://www.w3.org/2000/svg" viewBox="0 0 197.92 71.44">
  <defs>
    <style>
      .cls-1 {
        fill: #fbb040;
      }

      .cls-1, .cls-2 {
        stroke-width: 0px;
      }

      .cls-2 {
        fill: #fff;
      }
    </style>
  </defs>
  <rect class="cls-1" x="0" y="0" width="197.92" height="71.44" rx="35.72" ry="35.72"/>
  <g>
    <path class="cls-2" d="M77.75,50.62c-.57.57-1.14.57-1.71,0l-1.54-1.54c-.16-.16-.32-.2-.57-.12-1.22.45-2.72.69-4.51.69-9.62,0-10.19-7.19-10.19-9.87v-10.15c0-2.68.57-9.87,10.19-9.87s10.19,7.19,10.19,9.87v10.15c0,.81-.08,2.11-.45,3.45-.04.24,0,.41.12.57l1.83,1.95c.53.57.49,1.18-.08,1.75l-3.29,3.13ZM66.22,37.63c0,3.13.2,5.04,3.21,5.04s3.21-1.91,3.21-5.04v-5.85c0-3.13-.2-5.04-3.21-5.04s-3.21,1.91-3.21,5.04v5.85Z"/>
    <path class="cls-2" d="M88.91,20.49c.81,0,1.22.41,1.22,1.22v15.92c0,3.13.2,5.04,3.21,5.04s3.21-1.91,3.21-5.04v-15.92c0-.81.45-1.22,1.22-1.22h4.55c.81,0,1.22.41,1.22,1.22v18.07c0,2.68-.57,9.87-10.19,9.87s-10.19-7.19-10.19-9.87v-18.07c0-.81.45-1.22,1.22-1.22h4.55Z"/>
    <path class="cls-2" d="M113.03,20.49c.81,0,1.22.41,1.22,1.22v25.99c0,.77-.41,1.22-1.22,1.22h-4.47c-.77,0-1.22-.45-1.22-1.22v-25.99c0-.81.45-1.22,1.22-1.22h4.47Z"/>
    <path class="cls-2" d="M124.8,28.7c0-.81-.41-1.22-1.22-1.22h-5.68c-.77,0-1.22-.45-1.22-1.22v-4.55c0-.81.45-1.22,1.22-1.22h20.79c.81,0,1.22.41,1.22,1.22v4.55c0,.77-.41,1.22-1.22,1.22h-5.68c-.77,0-1.22.41-1.22,1.22v19c0,.77-.41,1.22-1.22,1.22h-4.55c-.77,0-1.22-.45-1.22-1.22v-19Z"/>
  </g>
</svg>