<?xml version="1.0" encoding="UTF-8"?>
<svg id="Start_Screen" data-name="Start Screen" xmlns="http://www.w3.org/2000/svg" xmlns:xlink="http://www.w3.org/1999/xlink" viewBox="0 0 1600 900">
  <defs>
    <style>
      .cls-1 {
        stroke: #58595b;
      }

      .cls-1, .cls-2 {
        stroke-width: 7.76px;
      }

      .cls-1, .cls-2, .cls-3, .cls-4, .cls-5 {
        fill: none;
      }

      .cls-1, .cls-2, .cls-4, .cls-5 {
        stroke-linecap: round;
        stroke-miterlimit: 10;
      }

      .cls-6 {
        fill: #a978b4;
      }

      .cls-6, .cls-7, .cls-8, .cls-9, .cls-10, .cls-3, .cls-11, .cls-12, .cls-13, .cls-14, .cls-15, .cls-16, .cls-17, .cls-18, .cls-19, .cls-20, .cls-21, .cls-22, .cls-23, .cls-24, .cls-25, .cls-26, .cls-27, .cls-28, .cls-29, .cls-30, .cls-31, .cls-32, .cls-33, .cls-34, .cls-35, .cls-36, .cls-37 {
        stroke-width: 0px;
      }

      .cls-7 {
        fill: #3a3a3a;
      }

      .cls-2, .cls-4 {
        stroke: #589da0;
      }

      .cls-8 {
        fill: #3e5c45;
      }

      .cls-9 {
        fill: #725e94;
      }

      .cls-38 {
        clip-path: url(#clippath);
      }

      .cls-10 {
        fill: #c69189;
      }

      .cls-11 {
        fill: #c22d40;
      }

      .cls-12 {
        fill: #589da0;
      }

      .cls-13 {
        fill: url(#linear-gradient);
      }

      .cls-14 {
        fill: #1a6c81;
        opacity: 0;
      }

      .cls-15 {
        fill: url(#linear-gradient-11);
      }

      .cls-16 {
        fill: url(#linear-gradient-12);
      }

      .cls-17 {
        fill: url(#linear-gradient-13);
      }

      .cls-18 {
        fill: url(#linear-gradient-10);
      }

      .cls-19 {
        fill: url(#linear-gradient-15);
      }

      .cls-20 {
        fill: url(#linear-gradient-14);
      }

      .cls-21 {
        fill: #5f9490;
      }

      .cls-22 {
        fill: #9bd2d2;
      }

      .cls-23 {
        fill: #8a73b4;
      }

      .cls-39 {
        clip-path: url(#clippath-1);
      }

      .cls-40 {
        clip-path: url(#clippath-2);
      }

      .cls-24 {
        fill: #e26d7b;
      }

      .cls-4 {
        stroke-width: 5.17px;
      }

      .cls-25 {
        fill: #2a284c;
      }

      .cls-26 {
        fill: #478797;
      }

      .cls-27 {
        fill: #655385;
      }

      .cls-28 {
        fill: url(#linear-gradient-4);
      }

      .cls-29 {
        fill: url(#linear-gradient-2);
      }

      .cls-30 {
        fill: url(#linear-gradient-3);
      }

      .cls-31 {
        fill: url(#linear-gradient-8);
      }

      .cls-32 {
        fill: url(#linear-gradient-9);
      }

      .cls-33 {
        fill: url(#linear-gradient-7);
      }

      .cls-34 {
        fill: url(#linear-gradient-5);
      }

      .cls-35 {
        fill: url(#linear-gradient-6);
      }

      .cls-36 {
        fill: #487c7c;
      }

      .cls-37 {
        fill: #fff;
      }

      .cls-5 {
        stroke: #c22d40;
        stroke-width: 4.14px;
      }
    </style>
    <linearGradient id="linear-gradient" x1="1916.34" y1="-2254.66" x2="2025.83" y2="-2254.66" gradientTransform="translate(-295.57 2856.49) rotate(-17.97)" gradientUnits="userSpaceOnUse">
      <stop offset="0" stop-color="#fbb040"/>
      <stop offset="1" stop-color="#ec008c"/>
    </linearGradient>
    <linearGradient id="linear-gradient-2" y1="-2282.04" y2="-2282.04" xlink:href="#linear-gradient"/>
    <linearGradient id="linear-gradient-3" x1="4074.23" y1="-2868.72" x2="4152.47" y2="-2868.72" gradientTransform="translate(588.7 5171.63) rotate(-45.31)" gradientUnits="userSpaceOnUse">
      <stop offset="0" stop-color="#004f79"/>
      <stop offset="1" stop-color="#00a79d"/>
    </linearGradient>
    <linearGradient id="linear-gradient-4" y1="-2888.28" y2="-2888.28" xlink:href="#linear-gradient-3"/>
    <linearGradient id="linear-gradient-5" x1="-3663.88" y1="-4351.97" x2="-3663.88" y2="-4240.6" gradientTransform="translate(5913.55 2910.6) rotate(78.41) scale(1 -1)" gradientUnits="userSpaceOnUse">
      <stop offset="0" stop-color="#587d61"/>
      <stop offset="1" stop-color="#82783d"/>
    </linearGradient>
    <clipPath id="clippath">
      <path class="cls-3" d="M1116.82,432.15v88.82c0,8.43,48.64,15.27,108.65,15.27s108.65-6.84,108.65-15.27v-88.82h-217.3Z"/>
    </clipPath>
    <clipPath id="clippath-1">
      <path class="cls-3" d="M1278.69,503.01s-10.12,13.17-22.59,13.17-22.59-13.17-22.59-13.17c0,0,10.12-12.52,22.59-12.52s22.59,12.52,22.59,12.52Z"/>
    </clipPath>
    <clipPath id="clippath-2">
      <path class="cls-3" d="M1215.51,502.13s-10.12,13.17-22.59,13.17-22.59-13.17-22.59-13.17c0,0,10.12-12.52,22.59-12.52s22.59,12.52,22.59,12.52Z"/>
    </clipPath>
    <linearGradient id="linear-gradient-6" x1="12438.35" y1="3396.34" x2="12438.35" y2="3473.25" gradientTransform="translate(14198.1 2694.39) rotate(-155.96) scale(1 -1)" gradientUnits="userSpaceOnUse">
      <stop offset="0" stop-color="#478797"/>
      <stop offset="1" stop-color="#2e5e63"/>
    </linearGradient>
    <linearGradient id="linear-gradient-7" x1="3764.04" y1="9907.42" x2="3764.04" y2="10021.3" gradientTransform="translate(12080.82 1524.64) rotate(-107.33) scale(1 -1)" xlink:href="#linear-gradient-6"/>
    <linearGradient id="linear-gradient-8" x1="-1243.99" y1="560.34" x2="-1243.99" y2="674.22" gradientTransform="translate(1651.36 -476.05) rotate(-50.94)" xlink:href="#linear-gradient-6"/>
    <linearGradient id="linear-gradient-9" x1="-10627.62" y1="-7332.44" x2="-10627.62" y2="-7251.55" gradientTransform="translate(14232.83 -139.3) rotate(-38.66)" xlink:href="#linear-gradient-6"/>
    <linearGradient id="linear-gradient-10" x1="-4636.02" y1="1533.21" x2="-4636.02" y2="1614.1" gradientTransform="translate(1632.04 -4063.91) rotate(-106.64) scale(1 -1)" xlink:href="#linear-gradient-6"/>
    <linearGradient id="linear-gradient-11" x1="2716.6" y1="-2116.08" x2="2716.6" y2="-2025.19" gradientTransform="translate(-129.91 3958.66) rotate(-34)" xlink:href="#linear-gradient-6"/>
    <linearGradient id="linear-gradient-12" x1="1446.51" y1="-1031.43" x2="1446.51" y2="-896.85" gradientTransform="translate(1753.18 2440.38) rotate(-82.63)" xlink:href="#linear-gradient-6"/>
    <linearGradient id="linear-gradient-13" x1="6565.14" y1="8513.72" x2="6565.14" y2="8648.3" gradientTransform="translate(11679.49 -1333.83) rotate(-139.02) scale(1 -1)" xlink:href="#linear-gradient-6"/>
    <linearGradient id="linear-gradient-14" x1="-1290.93" y1="-1225.34" x2="-1290.93" y2="-1129.75" gradientTransform="translate(-654.17 1173.67) rotate(-151.29) scale(1 -1)" xlink:href="#linear-gradient-6"/>
    <linearGradient id="linear-gradient-15" x1="-6810.22" y1="-9434.02" x2="-6810.22" y2="-9338.43" gradientTransform="translate(11078.03 -4870.98) rotate(-83.32)" xlink:href="#linear-gradient-6"/>
  </defs>
  <rect class="cls-25" y="-4.29" width="1606.07" height="906.08"/>
  <path class="cls-27" d="M1890.64-196.34c-75.49-81.05-88.35-51.11-199.1-50.05-110.76,1.07-110.16,63.13-220.92,64.19-110.76,1.07-111.36-60.99-222.11-59.93-110.76,1.07-110.16,63.13-220.92,64.19s-111.36-60.99-222.12-59.93-121.68-24.49-199.01,54.83c-55.72,57.15-1.04,61.32,45.38,126.25,46.42,64.93,96.91,28.84,143.33,93.77,46.42,64.93-4.06,101.03,42.36,165.96,46.42,64.93,96.91,28.84,143.33,93.77,46.42,64.94-4.06,101.03,42.36,165.97s86.39,32.27,140.8,90.67c9.59,10.29-8.64,52.18,5.43,52.18s14.07-62.06,28.13-62.06,14.07,62.06,28.14,62.06,14.07-62.06,28.14-62.06,14.07,62.06,28.14,62.06-3.9-42.62,5.92-52.69c57.91-59.41,97.17-25.54,147.44-91.53,50.27-66,.89-103.6,51.16-169.6,50.27-66,99.64-28.4,149.91-94.4,50.27-66,.89-103.6,51.16-169.6,50.27-66,78.67-37.84,144.24-88.68s115.37-74.67,58.82-135.38Z"/>
  <g>
    <circle class="cls-13" cx="883.58" cy="103.62" r="54.75"/>
    <path class="cls-6" d="M878.93,89.26c-53.77,17.44-95.01,38.84-92.11,47.79,2.9,8.95,48.85,2.06,102.62-15.38,53.77-17.44,95.01-38.84,92.11-47.79-2.9-8.95-48.85-2.06-102.62,15.38ZM888.08,117.48c-40.66,13.19-75.32,18.66-77.41,12.22s29.18-22.36,69.84-35.55c40.66-13.19,75.32-18.66,77.41-12.22,2.09,6.44-29.18,22.36-69.84,35.55Z"/>
    <path class="cls-29" d="M831.51,120.52c-9.33-28.76,6.42-59.64,35.18-68.97,28.76-9.33,59.64,6.42,68.97,35.18"/>
  </g>
  <path class="cls-9" d="M1701.24-216.67c-46.87-66.36-55.9-48.93-137.15-48.93-81.25,0-81.25,62.06-162.49,62.06-81.25,0-81.25-62.06-162.5-62.06-81.25,0-81.25,62.06-162.49,62.06-81.25,0-81.25-62.06-162.5-62.06-81.25,0-89.29-15.92-137.53,49.46-43.69,59.21-20.25,61.3,12.3,127.3,32.55,66,88.21,38.55,120.76,104.55,32.55,66-23.11,93.45,9.44,159.45,32.55,66,88.21,38.55,120.76,104.55,32.55,66-23.11,93.45,9.44,159.46,32.55,66,75.82,40.27,118.28,100.38,8.12,11.49-11.28,48.93,2.79,48.93s14.07-62.06,28.13-62.06,14.07,62.06,28.14,62.06,14.07-62.06,28.14-62.06,14.07,62.06,28.14,62.06-5.18-38.13,3.17-49.46c44.25-59.97,87.08-33.16,121.71-99.15,34.63-66-20.33-94.84,14.3-160.83,34.63-66,89.59-37.16,124.22-103.16,34.63-66-20.33-94.84,14.3-160.84,34.63-66,72.42-40.6,120.47-97.58,44.54-52.83,63.19-73.22,20.19-134.11Z"/>
  <g id="Plant_2" data-name="Plant 2">
    <path class="cls-26" d="M1483.26,352.98c-11.11,5.2-32.27,2.06-32.55-1.47-.42-5.27,25.47-10.89,26.87-11.18,14.62-3.11,32.92-3.49,31.83-.93-.34.8-5.85,4.08-26.16,13.59Z"/>
    <path class="cls-26" d="M1461.62,373.53c-12.27.24-30.32-11.21-29.14-14.56,1.76-4.99,27.69.39,29.09.69,14.63,3.1,31.51,10.18,29.47,12.08-.64.59-7.01,1.35-29.42,1.8Z"/>
    <path class="cls-26" d="M1441.41,387.4c-12.21-1.26-28.72-14.84-27.14-18.02,2.36-4.74,27.44,3.78,28.79,4.24,14.14,4.86,30.02,13.96,27.77,15.59-.71.51-7.12.49-29.42-1.82Z"/>
    <path class="cls-26" d="M1420.41,393.98c-9.19-.95-21.64-11.18-20.45-13.57,1.78-3.57,20.67,2.85,21.69,3.2,10.65,3.66,22.62,10.51,20.92,11.75-.53.39-5.36.37-22.16-1.37Z"/>
    <path class="cls-26" d="M1399.32,399.21c-7.67-.31-17.66-7.41-16.56-9.25,1.65-2.74,17.21,1.22,18.05,1.44,8.77,2.27,18.51,6.87,17.03,7.86-.46.31-4.51.51-18.53-.06Z"/>
    <path class="cls-26" d="M1458.18,336.78c-5.55,10.94-24.15,21.5-26.55,18.88-3.58-3.9,13.36-24.26,14.28-25.36,9.61-11.46,23.79-23.03,24.51-20.34.23.84-2.1,6.82-12.24,26.81Z"/>
    <path class="cls-26" d="M1421.22,332.05c-6,10.7-4.41,32.03-.9,32.57,5.23.8,12.71-24.61,13.11-25.98,4.17-14.36,5.88-32.58,3.25-31.68-.82.28-4.5,5.54-15.45,25.1Z"/>
    <path class="cls-26" d="M1403.41,347.18c-3.19,9.43,1.24,26.2,4.12,26.11,4.29-.14,6.48-21.51,6.6-22.67,1.19-12.07-.15-26.86-2.12-25.75-.62.35-2.76,5.09-8.6,22.31Z"/>
    <path class="cls-26" d="M1388.58,366.33c-1.86,6.9,2.39,19.75,4.53,19.84,3.19.13,3.63-15.8,3.65-16.66.21-9-1.61-20.18-3.02-19.46-.44.23-1.78,3.67-5.17,16.28Z"/>
    <path class="cls-26" d="M1377.59,391.52c30.33-6.34,31.65-32.06,80.16-41.52"/>
  </g>
  <g>
    <circle class="cls-30" cx="1442.35" cy="229.92" r="39.12"/>
    <path class="cls-14" d="M1434.69,222.34c-28.41,28.72-47.57,55.83-42.79,60.56,4.78,4.73,31.69-14.72,60.1-43.43,28.41-28.72,47.57-55.83,42.79-60.56-4.78-4.73-31.69,14.72-60.1,43.43ZM1449.75,237.24c-21.48,21.72-41.69,36.56-45.13,33.16s11.19-23.77,32.67-45.48,41.69-36.56,45.13-33.16c3.44,3.4-11.19,23.77-32.67,45.48Z"/>
    <path class="cls-28" d="M1414.84,257.73c-15.36-15.2-15.49-39.97-.3-55.32,15.2-15.36,39.97-15.49,55.32-.3"/>
  </g>
  <g id="Plant_1" data-name="Plant 1">
    <path class="cls-34" d="M1023.34,173.11c-2.76-13.45-35.7-32.7-50.15-29.16-18.39,4.5-62.72,33.16-58.92,51.71,3.8,18.54,55.91,27.83,74.52,24.35,11.81-2.21,37.31-33.45,34.55-46.89Z"/>
    <path class="cls-8" d="M914.28,195.65c17.67-5.93,35.71-10.33,53.87-14.34,18.19-3.89,36.43-7.37,54.97-9.29-17.67,5.94-35.71,10.34-53.87,14.34-18.19,3.88-36.43,7.36-54.97,9.29h0Z"/>
    <path class="cls-8" d="M953.63,187.11c-2.88,9.79-7.47,19.05-13.54,27.25,2.87-9.79,7.48-19.04,13.54-27.25h0Z"/>
    <path class="cls-8" d="M975.33,182.66c-2.04,6.43-4.84,12.51-7.78,18.55-3.01,5.92-6.24,11.98-10.09,17.4,1.99-6.34,4.88-12.58,7.78-18.55,3.04-5.99,6.2-11.89,10.09-17.4h0Z"/>
    <path class="cls-8" d="M999.57,177.69c-2.71,7.77-6.17,15.19-9.77,22.56-3.66,7.23-7.57,14.67-12.08,21.41,2.65-7.66,6.21-15.27,9.77-22.56,3.7-7.32,7.52-14.56,12.08-21.41h0Z"/>
    <path class="cls-8" d="M976.22,182.8c-5.75-3.53-10.98-7.72-16.13-12.03-5.02-4.35-10.12-8.94-14.45-13.99,5.67,3.46,11.03,7.77,16.13,12.03,5.08,4.39,10.04,8.89,14.45,13.99h0Z"/>
    <path class="cls-8" d="M1000.03,177.04c-6.54-4.22-12.56-9.08-18.5-14.07-5.8-5.02-11.71-10.32-16.83-16.04,6.46,4.14,12.63,9.15,18.5,14.07,5.87,5.07,11.63,10.25,16.83,16.04h0Z"/>
    <path class="cls-8" d="M954.3,187.85c-8.8-5.16-16.68-11.85-23.17-19.72,8.81,5.15,16.67,11.86,23.17,19.72h0Z"/>
  </g>
  <path class="cls-23" d="M1508.58-219.94c-24.58-45.95-25.59-44.21-77.67-42.77-52.09,1.44-50.37,63.48-102.46,64.92-52.09,1.44-53.81-60.6-105.89-59.15-52.09,1.44-50.37,63.48-102.46,64.92-52.09,1.44-53.81-60.6-105.9-59.15s-52.43.92-75.5,47.64c-29.52,59.79-37.46,59.17-17.49,122.79,19.97,63.62,79.18,45.03,99.15,108.65s-39.24,82.21-19.27,145.83c19.97,63.62,79.18,45.03,99.15,108.65,19.97,63.62-39.24,82.21-19.27,145.83,19.97,63.62,65.45,44.51,96.91,103.31,6.64,12.4-13.29,45.67.77,45.67s14.07-62.06,28.13-62.06,14.07,62.06,28.14,62.06,14.07-62.06,28.14-62.06,14.07,62.06,28.14,62.06-5.91-32.15.31-44.77c29.89-60.54,75.78-43.03,93.83-108.09,18.05-65.06-41.75-81.65-23.7-146.72s77.85-48.47,95.91-113.53-41.75-81.65-23.7-146.72c18.05-65.06,68.96-47.58,94.7-110.01,23.19-56.26,11.9-67.78-19.95-127.32Z"/>
  <g id="Body">
    <path class="cls-22" d="M1423.6,908.05c0-110.57-89.64-200.21-200.21-200.21s-200.21,89.64-200.21,200.21,400.41,110.57,400.41,0Z"/>
    <path class="cls-12" d="M1143.51,724.43c56.41,70.8,135.8,17.84,163.51,1.67-106.13,130.54-163.51-1.67-163.51-1.67Z"/>
    <path class="cls-22" d="M1334.85,519.75c-8.77,7.22-54.07,12.72-108.65,12.72s-99.88-5.5-108.65-12.72c-11.2,21.58-17.63,48.09-17.63,78.94,0,91.49,56.54,165.66,126.28,165.66s126.28-74.17,126.28-165.66c0-30.85-6.44-57.35-17.63-78.94Z"/>
    <path class="cls-2" d="M1155.9,599.91c12.11,12.11,31.7,12.11,43.81,0"/>
    <path class="cls-2" d="M1249.48,599.91c12.11,12.11,31.7,12.11,43.81,0"/>
    <path class="cls-1" d="M1199.71,557.72c-24.18-8.86-49.71.23-57.08,20.33"/>
    <path class="cls-1" d="M1248.79,557.72c24.18-8.86,49.71.23,57.08,20.33"/>
    <path class="cls-2" d="M1182.38,670.17c19.55,19.55,68.08,19.55,87.63,0"/>
    <line class="cls-2" x1="1221.48" y1="604.45" x2="1211.91" y2="653.71"/>
    <line class="cls-2" x1="1234.89" y1="654.35" x2="1211.91" y2="653.71"/>
    <path class="cls-22" d="M1389.76,620.43c-5.24,20.67-23.09,33.98-39.86,29.73-16.78-4.25-26.13-24.46-20.89-45.13,5.24-20.67,23.09-33.98,39.86-29.73,16.78,4.25,26.13,24.46,20.89,45.13"/>
    <path class="cls-22" d="M1062.64,626.67c5.24,20.67,23.09,33.98,39.86,29.73,16.78-4.25,26.13-24.46,20.89-45.13s-23.09-33.98-39.86-29.73c-16.78,4.25-26.13,24.46-20.89,45.13"/>
    <path class="cls-4" d="M1371.1,622.05c.93,7.62-4.5,14.55-12.12,15.48"/>
    <path class="cls-4" d="M1355.62,609.93c7.62-.93,14.55,4.5,15.48,12.12"/>
    <path class="cls-4" d="M1355.46,618.97c-7.27-11.55-4.38-29.15,2.28-32.21,4.73-2.18,11.64.04,16.97,5.03"/>
    <path class="cls-4" d="M1081.25,629.3c-.93,7.62,4.5,14.55,12.12,15.48"/>
    <path class="cls-4" d="M1096.73,617.18c-7.62-.93-14.55,4.5-15.48,12.12"/>
    <path class="cls-4" d="M1096.89,626.21c7.27-11.55,4.38-29.15-2.28-32.21-4.73-2.18-11.64.04-16.97,5.03"/>
    <ellipse class="cls-36" cx="1226.2" cy="520.85" rx="108.65" ry="15.27"/>
  </g>
  <g id="Brain">
    <g class="cls-38">
      <g>
        <g>
          <circle class="cls-11" cx="1226.43" cy="524.15" r="58.55"/>
          <g>
            <path class="cls-24" d="M1321.55,547.46c.62-7.05,1.1-12.81-4.19-16.74,3.83-3.23,3.85-8.73,4.32-14.11.95-10.8-4.44-19.52-15.24-20.48-.17-.01-.34-.02-.5-.03.45-1.38.76-2.84.89-4.35.95-10.8-7.03-20.34-17.83-21.29-2.3-.2-4.53,0-6.64.55-1.56-8.47-8.59-15.2-17.58-16-10.8-.95-28.74-1.12-29.69,9.68,0,0-.24,1.29-.24,1.29-.04.5.24,2.73-.25,2.86-7.79,2.04-5.81,13.87-6.56,22.36-.5,5.62,1.43,10.89,4.91,14.79-4.11,3.23-4.33,8.06-4.83,13.68-.52,5.87-.98,11.39,2.8,15.34-4.42,3.22-3.83,9.01-4.34,14.89-.95,10.8,3.38,19.58,14.18,20.54.17.01.33.02.5.03-.44,1.38-.75,2.82-.88,4.32-.95,10.8,7.79,15.83,18.59,16.79,8.04.71,14.62.97,18.24-5.7,3.45,5.25,6,4.93,12.91,4.99,9.57.09,16.73-7.21,19.5-16.37,1.07-3.53,2.58-3.91,1.12-9.03,7.76-2.06,10.1-9.55,10.85-18.01Z"/>
            <path class="cls-5" d="M1242.96,479.43c0,8.17,6.61,14.78,14.78,14.78"/>
            <path class="cls-5" d="M1243.81,534.63c-2.73,7.7,1.29,16.14,9,18.87"/>
            <path class="cls-5" d="M1303.88,548.54c0-8.17-6.61-14.78-14.78-14.78"/>
            <path class="cls-5" d="M1250.35,523.05c6.29,5.21,15.6,4.34,20.81-1.95"/>
            <path class="cls-5" d="M1271.65,563.06c-8.11.99-13.87,8.36-12.88,16.47"/>
            <path class="cls-5" d="M1285.69,544.07c5.23-6.27,4.39-15.59-1.88-20.82"/>
            <path class="cls-5" d="M1274.31,495.51c8.17,0,14.78,6.61,14.78,14.78"/>
            <path class="cls-5" d="M1257.74,479.37c8.2,0,14.84,6.65,14.84,14.84s-6.65,14.84-14.84,14.84"/>
            <path class="cls-5" d="M1291.18,560.35c-5.39,6.18-14.77,6.81-20.94,1.42-6.18-5.39-6.81-14.77-1.42-20.94"/>
          </g>
          <g>
            <path class="cls-24" d="M1129.38,547.46c-.62-7.05-1.1-12.81,4.19-16.74-3.83-3.23-3.85-8.73-4.32-14.11-.95-10.8,4.44-19.52,15.24-20.48.17-.01.34-.02.5-.03-.45-1.38-.76-2.84-.89-4.35-.95-10.8,7.03-20.34,17.83-21.29,2.3-.2,4.53,0,6.64.55,1.56-8.47,8.59-15.2,17.58-16,10.8-.95,28.74-1.12,29.69,9.68,0,0,.24,1.29.24,1.29.04.5-.24,2.73.25,2.86,7.79,2.04,5.81,13.87,6.56,22.36.5,5.62-1.43,10.89-4.91,14.79,4.11,3.23,4.33,8.06,4.83,13.68s.98,11.39-2.8,15.34c4.42,3.22,3.83,9.01,4.34,14.89.95,10.8-3.38,19.58-14.18,20.54-.17.01-.33.02-.5.03.44,1.38.75,2.82.88,4.32.95,10.8-7.79,15.83-18.59,16.79-8.04.71-14.62.97-18.24-5.7-3.45,5.25-6,4.93-12.91,4.99-9.57.09-16.73-7.21-19.5-16.37-1.07-3.53-2.58-3.91-1.12-9.03-7.76-2.06-10.1-9.55-10.85-18.01Z"/>
            <path class="cls-5" d="M1207.98,479.43c0,8.17-6.61,14.78-14.78,14.78"/>
            <path class="cls-5" d="M1207.12,534.63c2.73,7.7-1.29,16.14-9,18.87"/>
            <path class="cls-5" d="M1147.06,548.54c0-8.17,6.61-14.78,14.78-14.78"/>
            <path class="cls-5" d="M1200.59,523.05c-6.29,5.21-15.6,4.34-20.81-1.95"/>
            <path class="cls-5" d="M1179.28,563.06c8.11.99,13.87,8.36,12.88,16.47"/>
            <path class="cls-5" d="M1165.25,544.07c-5.23-6.27-4.39-15.59,1.88-20.82"/>
            <path class="cls-5" d="M1176.62,495.51c-8.17,0-14.78,6.61-14.78,14.78"/>
            <path class="cls-5" d="M1193.2,479.37c-8.2,0-14.84,6.65-14.84,14.84s6.65,14.84,14.84,14.84"/>
            <path class="cls-5" d="M1159.75,560.35c5.39,6.18,14.77,6.81,20.94,1.42,6.18-5.39,6.81-14.77,1.42-20.94"/>
          </g>
        </g>
        <g>
          <g class="cls-39">
            <path class="cls-37" d="M1278.69,503.01s-10.12,13.17-22.59,13.17-22.59-13.17-22.59-13.17c0,0,10.12-12.52,22.59-12.52s22.59,12.52,22.59,12.52Z"/>
            <circle class="cls-7" cx="1256.1" cy="503.6" r="8.78"/>
          </g>
          <g class="cls-40">
            <path class="cls-37" d="M1215.51,502.13s-10.12,13.17-22.59,13.17-22.59-13.17-22.59-13.17c0,0,10.12-12.52,22.59-12.52s22.59,12.52,22.59,12.52Z"/>
            <circle class="cls-7" cx="1192.92" cy="502.72" r="8.78"/>
          </g>
        </g>
      </g>
    </g>
  </g>
  <path class="cls-37" d="M1364.29,441.76c3.56,3.56,18.87,6.98,18.87,6.98,0,0-15.32,3.43-18.87,6.98-3.56,3.56-6.98,18.87-6.98,18.87,0,0-3.43-15.32-6.98-18.87s-18.87-6.98-18.87-6.98c0,0,15.32-3.43,18.87-6.98,3.56-3.56,6.98-18.87,6.98-18.87,0,0,3.43,15.32,6.98,18.87Z"/>
  <path class="cls-37" d="M1489.18,116.55c1.78,1.78,9.44,3.49,9.44,3.49,0,0-7.66,1.71-9.44,3.49s-3.49,9.44-3.49,9.44c0,0-1.71-7.66-3.49-9.44s-9.44-3.49-9.44-3.49c0,0,7.66-1.71,9.44-3.49,1.78-1.78,3.49-9.44,3.49-9.44,0,0,1.71,7.66,3.49,9.44Z"/>
  <path class="cls-37" d="M1046.29,227.54c1.8,1.8,9.56,3.54,9.56,3.54,0,0-7.75,1.73-9.56,3.54s-3.54,9.56-3.54,9.56c0,0-1.73-7.75-3.54-9.56s-9.56-3.54-9.56-3.54c0,0,7.75-1.73,9.56-3.54s3.54-9.56,3.54-9.56c0,0,1.73,7.75,3.54,9.56Z"/>
  <path class="cls-37" d="M1453.93,73.89c3.56,3.56,18.62,5.93,18.62,5.93,0,0-15.32,3.43-18.87,6.98-3.56,3.56-6.98,27.52-6.98,27.52,0,0-3.43-23.97-6.98-27.52s-18.87-6.98-18.87-6.98c0,0,15.32-3.43,18.87-6.98,3.56-3.56,6.98-28.71,6.98-28.71,0,0,3.68,26.21,7.24,29.76Z"/>
  <path class="cls-37" d="M970.55,38.79c3.56,3.56,18.62,5.93,18.62,5.93,0,0-15.32,3.43-18.87,6.98-3.56,3.56-6.98,27.52-6.98,27.52,0,0-3.43-23.97-6.98-27.52s-18.87-6.98-18.87-6.98c0,0,15.32-3.43,18.87-6.98,3.56-3.56,6.98-28.71,6.98-28.71,0,0,3.68,26.21,7.24,29.76Z"/>
  <path class="cls-37" d="M1014.79,273.77c3.56,3.56,18.62,5.93,18.62,5.93,0,0-15.32,3.43-18.87,6.98-3.56,3.56-6.98,27.52-6.98,27.52,0,0-3.43-23.97-6.98-27.52-3.56-3.56-18.87-6.98-18.87-6.98,0,0,15.32-3.43,18.87-6.98s6.98-28.71,6.98-28.71c0,0,3.68,26.21,7.24,29.76Z"/>
  <path class="cls-37" d="M1275.19,41.5c1.75,1.75,9.15,2.91,9.15,2.91,0,0-7.53,1.68-9.28,3.43s-3.43,13.53-3.43,13.53c0,0-1.68-11.78-3.43-13.53-1.75-1.75-9.28-3.43-9.28-3.43,0,0,7.53-1.68,9.28-3.43s3.43-14.11,3.43-14.11c0,0,1.81,12.88,3.56,14.63Z"/>
  <circle class="cls-37" cx="1226.2" cy="79.23" r="9.63"/>
  <circle class="cls-37" cx="1539.49" cy="48.86" r="13.62"/>
  <circle class="cls-37" cx="1114.06" cy="422.9" r="7.74"/>
  <g>
    <path class="cls-10" d="M1521.53,772.44c-5.11,15.18,2.07,42.16,6.7,42,6.9-.24,10.38-34.64,10.56-36.5,1.88-19.43-.31-43.23-3.48-41.44-.99.56-4.43,8.19-13.78,35.93Z"/>
    <path class="cls-10" d="M1498.05,803.55c1.49,15.95,19.01,37.69,23.18,35.67,6.21-3.02-4.58-35.87-5.17-37.64-6.17-18.52-17.84-39.38-20-36.45-.68.91-.72,9.29,2,38.43Z"/>
    <path class="cls-10" d="M1483.03,831.8c3.43,15.65,23.48,35.08,27.37,32.56,5.8-3.76-8.94-35.04-9.74-36.73-8.39-17.63-22.52-36.9-24.31-33.73-.56.99.42,9.31,6.69,37.9Z"/>
    <path class="cls-10" d="M1477.58,860.02c2.59,11.79,17.69,26.43,20.62,24.53,4.37-2.83-6.73-26.39-7.34-27.67-6.32-13.28-16.97-27.8-18.32-25.41-.42.75.31,7.01,5.04,28.55Z"/>
    <path class="cls-10" d="M1473.9,888.14c1.53,9.91,12.21,21.82,14.43,20.12,3.32-2.54-4.12-22.15-4.53-23.21-4.24-11.05-11.63-23.01-12.71-20.94-.34.65,0,5.93,2.8,24.03Z"/>
    <path class="cls-10" d="M1546.23,802.6c-13.38,8.81-24.34,34.49-20.59,37.22,5.58,4.07,29.51-20.9,30.8-22.25,13.45-14.15,26.38-34.25,22.78-34.79-1.13-.17-8.54,3.72-32.98,19.82Z"/>
    <path class="cls-10" d="M1557.81,849.84c-13,9.36-40.9,10.43-42.12,5.96-1.81-6.67,30.05-20.11,31.78-20.83,18.01-7.52,41.4-12.42,40.62-8.87-.24,1.11-6.53,6.65-30.29,23.74Z"/>
    <path class="cls-10" d="M1540.79,875.18c-11.76,5.53-34.17,2.24-34.48-1.5-.45-5.59,26.96-11.58,28.44-11.89,15.49-3.32,34.87-3.76,33.72-1.04-.36.85-6.19,4.33-27.68,14.44Z"/>
    <path class="cls-10" d="M1518.14,897.23c-8.68,3.42-25.97-.19-26.4-2.96-.64-4.12,19.96-7.04,21.07-7.19,11.64-1.6,26.42-.88,25.69,1.05-.23.6-4.49,2.84-20.36,9.1Z"/>
    <path class="cls-10" d="M1487.07,915.21c3.76-40.28,36.93-45.77,42.07-110.11"/>
  </g>
  <g>
    <path class="cls-26" d="M1421.95,795.05c-6.78,16.84-12.65,34.04-17.55,51.51s-8.89,35.37-11.87,53.35c-1.7,10.23-3.08,20.52-4.15,30.84-.18,1.71,1.59,3.17,3.17,3.17,1.86,0,3-1.46,3.17-3.17,1.86-17.85,4.7-35.59,8.5-53.13s8.6-35.12,14.32-52.26c3.22-9.65,6.73-19.19,10.53-28.63.64-1.59-.7-3.49-2.22-3.9-1.81-.5-3.26.62-3.9,2.22h0Z"/>
    <g>
      <path class="cls-35" d="M1423.96,798.54c8.66,3.86,32.71-6.88,36.54-16.41,4.87-12.13,6.62-48.55-5.32-53.87s-38.12,20.18-43.65,32.03c-3.51,7.52,3.76,34.4,12.42,38.26Z"/>
      <path class="cls-21" d="M1455.19,728.26c-9.13,23.86-19.39,47.6-30.53,70.6,9.12-23.87,19.4-47.6,30.53-70.6h0Z"/>
      <path class="cls-21" d="M1444.15,753.78c-4.23-5.62-7.57-11.9-9.85-18.56,4.24,5.62,7.56,11.91,9.85,18.56h0Z"/>
      <path class="cls-21" d="M1437.91,767.76c-5.28-7.61-9.66-15.85-12.99-24.49,5.29,7.61,9.65,15.85,12.99,24.49h0Z"/>
      <path class="cls-21" d="M1430.95,783.36c-6.25-9.44-11.59-19.48-15.89-29.95,6.26,9.43,11.58,19.48,15.89,29.95h0Z"/>
      <path class="cls-21" d="M1437.48,768.2c8.66-3.29,17.71-5.55,26.91-6.69-8.66,3.3-17.71,5.54-26.91,6.69h0Z"/>
      <path class="cls-21" d="M1431.13,783.88c10.07-3.63,20.51-6.23,31.12-7.72-10.07,3.64-20.51,6.22-31.12,7.72h0Z"/>
      <path class="cls-21" d="M1443.46,753.86c6.48-2.75,13.38-4.47,20.39-5.07-6.48,2.75-13.38,4.46-20.39,5.07h0Z"/>
    </g>
    <g>
      <path class="cls-33" d="M1393.32,915.95c4.18,13.4,39.66,29.62,54,24.55,18.25-6.45,60.43-40.15,54.66-58.63-5.76-18.48-59.73-22.6-78.3-17.16-11.79,3.45-34.54,37.84-30.36,51.24Z"/>
      <path class="cls-21" d="M1501.98,881.87c-35.63,12.71-72.02,24.53-108.33,35.16,35.63-12.72,72.02-24.52,108.33-35.16h0Z"/>
      <path class="cls-21" d="M1462.82,894.58c2.62-10.06,6.3-19.83,10.99-29.11-2.61,10.06-6.31,19.83-10.99,29.11h0Z"/>
      <path class="cls-21" d="M1441.19,901.33c3.79-13.17,8.64-26.02,14.5-38.41-3.79,13.17-8.65,26.02-14.5,38.41h0Z"/>
      <path class="cls-21" d="M1417.04,908.86c4.88-16.04,10.79-31.71,17.74-46.97-4.87,16.04-10.8,31.7-17.74,46.97h0Z"/>
      <path class="cls-21" d="M1462.06,893.89c9.13,4.97,17.72,10.9,25.59,17.69-9.13-4.96-17.72-10.91-25.59-17.69h0Z"/>
    </g>
    <g>
      <path class="cls-31" d="M1390.94,914.89c-8.84,10.9-47.81,12.83-59.25,2.81-14.56-12.75-41.26-59.67-29.07-74.7,12.2-15.03,63.85,1.12,79.09,13.06,9.67,7.57,18.07,47.94,9.23,58.84Z"/>
      <path class="cls-21" d="M1302.62,842.99c29.79,23.32,59.22,47.77,87.61,72.77-29.79-23.32-59.22-47.77-87.61-72.77h0Z"/>
      <path class="cls-21" d="M1334.29,869.3c-.91-10.35-.73-20.8.57-31.11.92,10.35.72,20.8-.57,31.11h0Z"/>
      <path class="cls-21" d="M1351.89,883.58c-.85-13.67-.61-27.41.75-41.05.86,13.67.6,27.41-.75,41.05h0Z"/>
      <path class="cls-21" d="M1371.53,899.52c-.8-16.75-.5-33.49.91-50.2.8,16.75.49,33.49-.91,50.2h0Z"/>
      <path class="cls-21" d="M1352.76,883.87c-13.06,4.13-26.46,7.21-40.01,9.19,13.06-4.14,26.46-7.2,40.01-9.19h0Z"/>
      <path class="cls-21" d="M1335.25,868.95c-9.83,3.39-20.01,5.73-30.33,6.96,9.82-3.39,20.01-5.72,30.33-6.96h0Z"/>
    </g>
    <g>
      <path class="cls-32" d="M1404.03,838.36c-7.78,6.23-35.12,1.68-41.55-7-8.18-11.05-19.63-47.65-8.89-56.24,10.73-8.59,44.15,10.42,52.92,21.01,5.57,6.72,5.3,36-2.48,42.23Z"/>
      <path class="cls-21" d="M1353.59,775.12c17.39,20.49,34.14,41.91,49.81,63.74-17.4-20.48-34.14-41.91-49.81-63.74h0Z"/>
      <path class="cls-21" d="M1371.6,798.17c1.16-7.28,2.86-14.48,5.09-21.51-1.16,7.28-2.87,14.47-5.09,21.51h0Z"/>
      <path class="cls-21" d="M1381.65,810.73c1.71-9.57,3.95-19.05,6.72-28.38-1.71,9.57-3.96,19.05-6.72,28.38h0Z"/>
      <path class="cls-21" d="M1392.88,824.76c2.21-11.68,4.95-23.27,8.22-34.7-2.21,11.68-4.95,23.26-8.22,34.7h0Z"/>
      <path class="cls-21" d="M1382.22,811.06c-9.7.65-19.44.76-29.16.33,9.7-.65,19.44-.76,29.16-.33h0Z"/>
      <path class="cls-21" d="M1392.84,825.34c-11.22.67-22.48.82-33.72.41,11.22-.68,22.48-.81,33.72-.41h0Z"/>
      <path class="cls-21" d="M1372.32,798.07c-7.35.63-14.74.72-22.1.25,7.35-.63,14.74-.71,22.1-.25h0Z"/>
    </g>
    <g>
      <path class="cls-18" d="M1412.98,840.28c2.85,9.55,27.92,21.37,38.14,17.89,13.02-4.43,43.26-28,39.32-41.17-3.94-13.17-42.23-16.56-55.47-12.85-8.4,2.35-24.85,26.58-22,36.13Z"/>
      <path class="cls-21" d="M1490.45,817c-25.31,9.02-51.27,17.12-77.24,24.05,25.31-9.03,51.28-17.11,77.24-24.05h0Z"/>
      <path class="cls-21" d="M1462.53,825.7c1.64-7.21,4.36-14.17,8.05-20.58-1.63,7.22-4.36,14.17-8.05,20.58h0Z"/>
      <path class="cls-21" d="M1447.11,830.31c2.5-9.42,6.07-18.54,10.63-27.15-2.49,9.42-6.07,18.54-10.63,27.15h0Z"/>
      <path class="cls-21" d="M1429.89,835.45c3.3-11.44,7.64-22.57,13-33.21-3.29,11.44-7.65,22.57-13,33.21h0Z"/>
      <path class="cls-21" d="M1446.46,830.26c8.53,4.7,16.53,10.37,23.79,16.87-8.54-4.7-16.53-10.37-23.79-16.87h0Z"/>
      <path class="cls-21" d="M1429.6,835.95c9.77,5.59,19,12.13,27.49,19.53-9.78-5.58-18.99-12.14-27.49-19.53h0Z"/>
      <path class="cls-21" d="M1461.99,825.21c6.6,3.33,12.7,7.65,18.03,12.79-6.61-3.33-12.7-7.66-18.03-12.79h0Z"/>
    </g>
  </g>
  <g>
    <path class="cls-10" d="M882.74,800.33c11.65,10.99,18,38.18,13.84,40.22-6.2,3.04-25.44-25.69-26.48-27.25-10.8-16.26-20.05-38.3-16.41-38.2,1.14.03,7.77,5.15,29.05,25.23Z"/>
    <path class="cls-10" d="M918.08,816.73c6.18,14.78.95,42.2-3.68,42.38-6.9.26-12.82-33.81-13.13-35.65-3.26-19.25-2.77-43.14.51-41.58,1.03.49,5.01,7.86,16.31,34.86Z"/>
    <path class="cls-10" d="M944.63,834.6c4.33,15.42-4.23,42-8.84,41.61-6.88-.59-8.59-35.12-8.67-36.99-.88-19.5,2.53-43.15,5.6-41.2.96.61,4.01,8.41,11.92,36.59Z"/>
    <path class="cls-10" d="M962.7,856.95c3.26,11.62-3.18,31.64-6.66,31.34-5.18-.44-6.47-26.46-6.53-27.87-.67-14.69,1.9-32.51,4.22-31.04.72.46,3.02,6.34,8.98,27.56Z"/>
    <path class="cls-10" d="M979.18,880.04c3.31,9.46-.51,25-3.28,24.54-4.12-.68-6.78-21.48-6.92-22.61-1.45-11.74-.55-25.77,1.37-24.46.6.41,2.78,5.24,8.83,22.52Z"/>
    <path class="cls-10" d="M875.12,838.55c15.95,1.49,37.7,19,35.67,23.17-3.02,6.21-35.87-4.57-37.64-5.16-18.52-6.16-39.38-17.82-36.46-19.99.91-.68,9.29-.73,38.43,1.99Z"/>
    <path class="cls-10" d="M887.12,885.69c15.88,2.14,41.01-10.03,39.97-14.54-1.54-6.73-35.98-3.62-37.84-3.44-19.43,1.84-42.38,8.5-40.02,11.27.74.87,8.89,2.8,37.89,6.71Z"/>
    <path class="cls-10" d="M914.05,900.05c12.98-.65,31.22-14.09,29.72-17.54-2.23-5.14-29.23,2.46-30.69,2.88-15.23,4.35-32.54,13.08-30.25,14.94.72.58,7.5.91,31.22-.28Z"/>
    <path class="cls-10" d="M944.41,908.86c9.27-1.06,22.83-12.38,21.91-15.02-1.37-3.94-20.92,3.17-21.98,3.56-11.03,4.06-23.73,11.65-22.18,13.01.49.43,5.3.4,22.24-1.54Z"/>
    <path class="cls-10" d="M980.28,910.12c-22.26-33.78-54.12-23.03-88.9-77.39"/>
  </g>
  <g>
    <path class="cls-26" d="M984.52,759.65c11.3,18.16,21.62,36.93,30.88,56.21,9.23,19.22,17.28,38.62,24.36,58.76,3.98,11.3,7.6,22.73,10.89,34.26.55,1.95,2.65,3.16,4.61,2.62s3.18-2.66,2.62-4.61c-5.9-20.72-12.93-41.11-21.06-61.06-8.14-19.97-17.31-39.51-27.56-58.48-5.76-10.68-11.86-21.18-18.27-31.48-1.07-1.72-3.35-2.39-5.13-1.35s-2.42,3.4-1.35,5.13h0Z"/>
    <g>
      <path class="cls-15" d="M989.53,760.63c-9.29,6.26-39.48-1.32-45.89-11.63-8.15-13.12-17.63-55.15-4.82-63.79,12.81-8.64,48.49,15.7,57.35,28.36,5.62,8.03,2.65,40.8-6.64,47.07Z"/>
      <path class="cls-21" d="M938.82,685.2c17.74,24.59,34.41,49.91,49.96,75.93-17.74-24.58-34.4-49.91-49.96-75.93h0Z"/>
      <path class="cls-21" d="M956.88,712.65c1.3-8.21,3.88-16.21,7.67-23.62-1.29,8.22-3.89,16.21-7.67,23.62h0Z"/>
      <path class="cls-21" d="M966.99,727.64c2.12-10.74,5.51-21.23,10.12-31.17-2.11,10.75-5.52,21.22-10.12,31.17h0Z"/>
      <path class="cls-21" d="M978.28,744.38c2.87-13.07,7.01-25.85,12.37-38.11-2.86,13.07-7.02,25.85-12.37,38.11h0Z"/>
      <path class="cls-21" d="M967.59,728.07c-10.94.54-21.93-.22-32.69-2.29,10.94-.55,21.93.23,32.69,2.29h0Z"/>
      <path class="cls-21" d="M978.18,745.03c-12.65.43-25.33-.44-37.8-2.62,12.65-.44,25.33.45,37.8,2.62h0Z"/>
      <path class="cls-21" d="M957.7,712.6c-8.28.72-16.67.15-24.77-1.74,8.28-.73,16.67-.14,24.77,1.74h0Z"/>
    </g>
    <g>
      <path class="cls-16" d="M1049.18,891.02c-2.13,16.45-40.11,42.58-57.84,39.61-22.56-3.78-78.54-34.38-75.6-57.07,2.93-22.68,64.9-38.51,87.63-35.97,14.43,1.61,47.93,36.99,45.81,53.44Z"/>
      <path class="cls-21" d="M915.74,873.55c44.6,4.97,89.04,11.23,133.27,18.79-44.6-4.96-89.03-11.24-133.27-18.79h0Z"/>
      <path class="cls-21" d="M963.92,880.35c-7.34-9.84-13.65-20.46-18.74-31.63,7.35,9.84,13.64,20.46,18.74,31.63h0Z"/>
      <path class="cls-21" d="M990.47,883.78c-9.35-13.22-17.63-27.19-24.73-41.74,9.35,13.22,17.62,27.19,24.73,41.74h0Z"/>
      <path class="cls-21" d="M1020.12,887.61c-11.19-16.34-21.3-33.38-30.24-51.04,11.2,16.33,21.29,33.37,30.24,51.04h0Z"/>
      <path class="cls-21" d="M991.53,883.53c-10.57,12.26-22.12,23.68-34.53,34.08,10.57-12.27,22.13-23.67,34.53-34.08h0Z"/>
      <path class="cls-21" d="M1020.74,888.36c-12.38,14.06-25.7,27.23-39.9,39.43,12.36-14.06,25.69-27.22,39.9-39.43h0Z"/>
      <path class="cls-21" d="M964.67,879.39c-7.78,9.5-16.56,18.18-26.17,25.83,7.77-9.51,16.56-18.17,26.17-25.83h0Z"/>
    </g>
    <g>
      <path class="cls-17" d="M1051.74,889.29c12.52,10.88,58.27,5.16,69.54-8.84,14.34-17.82,35.83-77.89,18.57-92.89-17.27-15-74.09,14.36-89.39,31.36-9.71,10.79-11.24,59.49,1.28,70.37Z"/>
      <path class="cls-21" d="M1139.84,787.56c-28.04,35.04-57.07,69.26-87.1,102.61,28.03-35.04,57.07-69.25,87.1-102.61h0Z"/>
      <path class="cls-21" d="M1108.35,824.66c-3.61-11.74-5.97-23.85-7.02-36.09,3.62,11.74,5.96,23.86,7.02,36.09h0Z"/>
      <path class="cls-21" d="M1090.79,844.87c-4.36-15.59-7.47-31.53-9.26-47.62,4.37,15.59,7.46,31.53,9.26,47.62h0Z"/>
      <path class="cls-21" d="M1071.19,867.44c-5.05-19.15-8.84-38.59-11.32-58.24,5.06,19.14,8.83,38.59,11.32,58.24h0Z"/>
      <path class="cls-21" d="M1089.84,845.39c16.18-.46,32.4.37,48.45,2.51-16.18.47-32.4-.38-48.45-2.51h0Z"/>
      <path class="cls-21" d="M1071.22,868.41c18.73-.32,37.44.66,56.02,2.95-18.72.33-37.43-.67-56.02-2.95h0Z"/>
      <path class="cls-21" d="M1107.16,824.44c12.26-.67,24.59-.04,36.72,1.9-12.26.68-24.59.03-36.72-1.9h0Z"/>
    </g>
    <g>
      <path class="cls-20" d="M1020.86,802.9c10.33,5.66,41.22-5.22,46.93-16.64,7.26-14.53,13.11-59.47-1.14-67.27-14.25-7.8-49.25,21.15-57.3,35.27-5.11,8.96,1.19,42.99,11.52,48.65Z"/>
      <path class="cls-21" d="M1066.64,718.98c-13.83,28.73-28.82,56.87-44.95,84.37,13.82-28.73,28.82-56.86,44.95-84.37h0Z"/>
      <path class="cls-21" d="M1050.39,749.49c-4.03-7.73-7.49-15.75-10.32-23.99,4.03,7.73,7.48,15.75,10.32,23.99h0Z"/>
      <path class="cls-21" d="M1041.26,766.17c-5.13-10.29-9.68-20.86-13.62-31.65,5.13,10.28,9.68,20.86,13.62,31.65h0Z"/>
      <path class="cls-21" d="M1031.06,784.79c-6.13-12.64-11.7-25.56-16.65-38.71,6.14,12.64,11.69,25.56,16.65,38.71h0Z"/>
      <path class="cls-21" d="M1040.67,766.67c11.22-2.49,22.58-4.36,34.01-5.57-11.22,2.5-22.58,4.36-34.01,5.57h0Z"/>
      <path class="cls-21" d="M1031.23,785.46c13-2.76,26.12-4.91,39.33-6.41-13,2.77-26.12,4.91-39.33,6.41h0Z"/>
      <path class="cls-21" d="M1049.53,749.52c8.47-2.04,17.09-3.46,25.77-4.22-8.47,2.05-17.09,3.46-25.77,4.22h0Z"/>
    </g>
    <g>
      <path class="cls-19" d="M1010.83,806.97c-1.37,11.7-28.12,30.58-40.74,28.62-16.05-2.5-56.07-23.75-54.18-39.89,1.89-16.14,45.77-27.91,61.93-26.3,10.26,1.02,34.36,25.86,32.99,37.56Z"/>
      <path class="cls-21" d="M915.91,795.7c31.76,2.78,63.39,6.84,94.81,12.21-31.76-2.77-63.38-6.85-94.81-12.21h0Z"/>
      <path class="cls-21" d="M950.19,800.11c-5.61-6.71-10.21-14.24-13.58-22.31,5.61,6.7,10.2,14.25,13.58,22.31h0Z"/>
      <path class="cls-21" d="M969.07,802.33c-7.06-9.09-13.09-18.98-17.92-29.43,7.07,9.09,13.08,18.99,17.92,29.43h0Z"/>
      <path class="cls-21" d="M990.17,804.8c-8.4-11.29-15.75-23.35-21.91-35.99,8.4,11.28,15.74,23.35,21.91,35.99h0Z"/>
      <path class="cls-21" d="M969.82,802.14c-7.12,9.05-15.26,17.29-24.24,24.5,7.11-9.05,15.27-17.28,24.24-24.5h0Z"/>
      <path class="cls-21" d="M990.61,805.32c-8.38,10.33-17.76,19.85-28,28.35,8.37-10.34,17.77-19.84,28-28.35h0Z"/>
      <path class="cls-21" d="M950.71,799.43c-5.15,7.06-11.36,13.34-18.37,18.57,5.15-7.07,11.36-13.33,18.37-18.57h0Z"/>
    </g>
  </g>
  <g>
    <g>
      <path class="cls-37" d="M1157.83,238.27c3.59,0,5.38,1.79,5.38,5.38v20.09c0,3.41-1.79,5.38-5.38,5.38h-89.16c-4.31,0-5.92-2.69-3.77-6.46l48.98-86.11c.72-1.26.18-2.15-1.26-2.15h-34.26c-3.41,0-5.38-1.97-5.38-5.38v-20.09c0-3.59,1.97-5.38,5.38-5.38h86.47c4.31,0,5.92,2.69,3.77,6.46l-49.87,86.11c-.72,1.26-.18,2.15,1.26,2.15h37.85Z"/>
      <path class="cls-37" d="M1259.37,143.55c3.59,0,5.38,1.79,5.38,5.38v20.09c0,3.41-1.79,5.38-5.38,5.38h-43.41c-3.41,0-5.38,1.79-5.38,5.38v5.74c0,3.41,1.97,5.38,5.38,5.38h27.81c3.59,0,5.38,1.79,5.38,5.38v20.09c0,3.41-1.79,5.38-5.38,5.38h-27.81c-3.41,0-5.38,1.79-5.38,5.38v5.74c0,3.41,1.97,5.38,5.38,5.38h43.41c3.59,0,5.38,1.79,5.38,5.38v20.09c0,3.59-1.79,5.38-5.38,5.38h-75.35c-3.41,0-5.38-1.97-5.38-5.38v-114.81c0-3.59,1.97-5.38,5.38-5.38h75.35Z"/>
      <path class="cls-37" d="M1310.32,143.55c3.05,0,5.02,1.26,6.28,4.13l24.4,59.74c.72,1.61,2.15,1.26,2.15-.54v-57.95c0-3.59,1.97-5.38,5.38-5.38h20.09c3.59,0,5.38,1.79,5.38,5.38v114.81c0,3.41-1.79,5.38-5.38,5.38h-26.37c-3.05,0-5.02-1.26-6.28-4.13l-24.4-59.74c-.72-1.62-2.15-1.26-2.15.54v57.95c0,3.41-1.79,5.38-5.38,5.38h-20.09c-3.41,0-5.38-1.97-5.38-5.38v-114.81c0-3.59,1.97-5.38,5.38-5.38h26.37Z"/>
    </g>
    <g>
      <path class="cls-37" d="M1100.43,300.22c22.22,0,30.73,8.98,30.73,28.37,0,4.02-1.18,11.82-6.03,17.14,4.85,2.25,8.39,8.16,8.39,15.48,0,14.66-6.5,21.75-28.72,21.75h-29.19c-2.25,0-3.55-1.3-3.55-3.55v-75.53c0-2.36,1.18-3.55,3.55-3.66h24.82ZM1103.26,366.17c5.67,0,8.51-.59,8.51-6.15s-2.6-6.38-8.27-6.38h-7.68c-2.25,0-3.55,1.18-3.55,3.55v5.44c0,2.36,1.3,3.55,3.55,3.55h7.45ZM1102.32,336.62c5.67,0,8.51-.71,8.51-8.04s-2.84-8.04-8.51-8.04h-6.38c-2.25,0-3.55,1.18-3.55,3.55v8.98c0,2.36,1.3,3.55,3.55,3.55h6.38Z"/>
      <path class="cls-37" d="M1203.61,376.57c1.65,3.07-.24,6.38-3.9,6.38h-13.47c-1.18,0-2.25-.59-2.72-1.65l-12.29-23.76c-.24-.35-.59-.59-.95-.59h-4.73c-2.13,0-3.66,1.54-3.66,3.66v18.67c0,2.13-1.54,3.66-3.66,3.66h-13.24c-2.13,0-3.66-1.54-3.66-3.66v-75.41c0-2.13,1.54-3.66,3.66-3.66h25.88c21.04,0,29.55,8.98,29.55,28.37,0,10.99-2.72,18.67-8.98,23.17-.47.35-.59.95-.36,1.54l12.53,23.28ZM1165.55,320.55c-2.13,0-3.66,1.54-3.66,3.66v8.75c0,2.13,1.54,3.66,3.66,3.66h6.03c5.67,0,8.51-.71,8.51-8.04s-2.84-8.04-8.51-8.04h-6.03Z"/>
      <path class="cls-37" d="M1268.73,378.94c0,2.6-1.18,4.02-3.54,4.02h-13.24c-2.25,0-3.55-1.18-3.55-3.55v-10.28c0-2.36-1.18-3.55-3.55-3.55h-10.17c-2.25,0-3.54,1.18-3.54,3.55v10.28c0,2.36-1.18,3.55-3.55,3.55h-13.24c-2.25,0-3.55-1.42-3.55-4.02v-50.11c0-14.89,2.36-30.73,28.96-30.73s28.96,15.84,28.96,30.73v50.11ZM1248.4,328.82c0-5.67-.83-8.51-8.63-8.51s-8.63,2.84-8.63,8.51v12.88c0,2.25,1.3,3.55,3.54,3.55h10.17c2.36-.12,3.55-1.3,3.55-3.66v-12.76Z"/>
      <path class="cls-37" d="M1296.5,300.22c2.36,0,3.55,1.18,3.55,3.55v75.64c0,2.25-1.18,3.55-3.55,3.55h-13c-2.25,0-3.55-1.3-3.55-3.55v-75.64c0-2.36,1.3-3.55,3.55-3.55h13Z"/>
      <path class="cls-37" d="M1332.78,300.22c2.01,0,3.31.83,4.14,2.72l16.08,39.36c.47,1.06,1.42.83,1.42-.35v-38.18c0-2.36,1.3-3.55,3.55-3.55h13.24c2.36,0,3.54,1.18,3.54,3.55v75.64c0,2.25-1.18,3.55-3.54,3.55h-17.38c-2.01,0-3.31-.83-4.14-2.72l-16.07-39.36c-.47-1.06-1.42-.83-1.42.35v38.18c0,2.25-1.18,3.55-3.55,3.55h-13.24c-2.25,0-3.55-1.3-3.55-3.55v-75.64c0-2.36,1.3-3.55,3.55-3.55h17.37Z"/>
    </g>
  </g>
  <circle class="cls-27" cx="1558.77" cy="267.37" r="11.49"/>
  <circle class="cls-27" cx="759.07" cy="172.53" r="11.49"/>
  <circle class="cls-27" cx="745.05" cy="114.59" r="23.84"/>
  <circle class="cls-27" cx="949.18" cy="295.42" r="6.66"/>
  <path class="cls-27" d="M979.76,329.72c-5.02-12.17-13.25-20.32-18.39-18.2-5.14,2.12,2.43,10.54,7.45,22.71,5.02,12.17,5.58,23.48,10.72,21.36,5.14-2.12,5.24-13.7.22-25.87Z"/>
  <path class="cls-27" d="M1508.26,291.03c9.25-9.37,19.96-13.79,23.91-9.88s-6.24,8.84-15.49,18.2c-9.25,9.37-14.06,19.62-18.01,15.71-3.96-3.91.34-14.67,9.59-24.03Z"/>
  <path class="cls-27" d="M1476.67,455.2c-11.1,25.19-28.53,41.37-33.62,39.12-5.09-2.24,11.6-20.39,22.7-45.58s12.4-47.87,17.49-45.63c5.09,2.24,4.53,26.9-6.57,52.09Z"/>
  <circle class="cls-27" cx="984.47" cy="414.87" r="8.03"/>
  <circle class="cls-27" cx="1583.64" cy="254.05" r="6.13"/>
</svg>