<?xml version="1.0" encoding="UTF-8"?>
<svg id="Game_Over" data-name="Game Over" xmlns="http://www.w3.org/2000/svg" viewBox="0 0 197.92 71.44">
  <defs>
    <style>
      .cls-1 {
        fill: #fbb040;
      }

      .cls-1, .cls-2 {
        stroke-width: 0px;
      }

      .cls-2 {
        fill: #fff;
      }
    </style>
  </defs>
  <rect class="cls-1" x="0" y="0" width="197.92" height="71.44" rx="35.72" ry="35.72"/>
  <g>
    <path class="cls-2" d="M31.09,30.21c0-.64-.32-.96-.96-.96h-4.46c-.61,0-.96-.35-.96-.96v-3.57c0-.64.35-.96.96-.96h16.32c.64,0,.96.32.96.96v3.57c0,.61-.32.96-.96.96h-4.46c-.61,0-.96.32-.96.96v14.92c0,.61-.32.96-.96.96h-3.57c-.61,0-.96-.35-.96-.96v-14.92Z"/>
    <path class="cls-2" d="M61.66,44.36c.45.83-.06,1.72-1.05,1.72h-3.63c-.32,0-.61-.16-.73-.45l-3.32-6.41c-.06-.1-.16-.16-.25-.16h-1.28c-.57,0-.99.41-.99.99v5.04c0,.57-.42.99-.99.99h-3.57c-.57,0-.99-.41-.99-.99v-20.34c0-.57.41-.99.99-.99h6.98c5.67,0,7.97,2.42,7.97,7.65,0,2.96-.73,5.04-2.42,6.25-.13.1-.16.25-.1.41l3.38,6.28ZM51.39,29.25c-.57,0-.99.41-.99.99v2.36c0,.57.41.99.99.99h1.63c1.53,0,2.29-.19,2.29-2.17s-.76-2.17-2.29-2.17h-1.63Z"/>
    <path class="cls-2" d="M66.5,23.77c.54,0,.89.22,1.08.73l2.36,5.93c.13.29.32.29.45,0l2.36-5.93c.19-.51.54-.73,1.08-.73h4.56c.73,0,1.05.45.73,1.12l-5.71,12.75c-.06.13-.06.25-.06.38v7.11c0,.61-.32.96-.96.96h-4.46c-.61,0-.96-.35-.96-.96v-7.11c0-.13,0-.25-.06-.38l-5.74-12.75c-.32-.67,0-1.12.73-1.12h4.59Z"/>
    <path class="cls-2" d="M106.35,45c0,.7-.32,1.08-.96,1.08h-3.57c-.61,0-.96-.32-.96-.96v-2.77c0-.64-.32-.96-.96-.96h-2.74c-.61,0-.96.32-.96.96v2.77c0,.64-.32.96-.96.96h-3.57c-.61,0-.96-.38-.96-1.08v-13.51c0-4.02.64-8.29,7.81-8.29s7.81,4.27,7.81,8.29v13.51ZM100.87,31.48c0-1.53-.22-2.3-2.33-2.3s-2.33.77-2.33,2.3v3.47c0,.61.35.96.96.96h2.74c.64-.03.96-.35.96-.99v-3.44Z"/>
    <path class="cls-2" d="M109.06,30.94c0-2.1.45-7.75,8-7.75,6.69,0,7.81,4.4,7.97,6.88.03.57-.26.92-.83,1.05l-3.6.8c-.64.13-.99-.16-1.05-.83-.13-1.53-.67-2.42-2.49-2.42-2.36,0-2.52,1.5-2.52,3.95v4.59c0,2.45.16,3.95,2.52,3.95s2.52-1.5,2.52-3.06h-1.85c-.61,0-.96-.35-.96-.96v-2.55c0-.64.35-.96.96-.96h6.38c.64,0,.96.32.96.96v4.3c0,2.1-.45,7.75-8,7.75s-8-5.64-8-7.75v-7.97Z"/>
    <path class="cls-2" d="M143.33,45c0,.7-.32,1.08-.96,1.08h-3.57c-.61,0-.96-.32-.96-.96v-2.77c0-.64-.32-.96-.96-.96h-2.74c-.61,0-.96.32-.96.96v2.77c0,.64-.32.96-.96.96h-3.57c-.61,0-.96-.38-.96-1.08v-13.51c0-4.02.64-8.29,7.81-8.29s7.81,4.27,7.81,8.29v13.51ZM137.85,31.48c0-1.53-.22-2.3-2.33-2.3s-2.33.77-2.33,2.3v3.47c0,.61.35.96.96.96h2.74c.64-.03.96-.35.96-.99v-3.44Z"/>
    <path class="cls-2" d="M150.83,23.77c.64,0,.96.32.96.96v20.4c0,.61-.32.96-.96.96h-3.51c-.61,0-.96-.35-.96-.96v-20.4c0-.64.35-.96.96-.96h3.51Z"/>
    <path class="cls-2" d="M160.61,23.77c.54,0,.89.22,1.12.73l4.33,10.62c.13.29.38.22.38-.1v-10.3c0-.64.35-.96.96-.96h3.57c.64,0,.96.32.96.96v20.4c0,.61-.32.96-.96.96h-4.69c-.54,0-.89-.22-1.12-.73l-4.33-10.61c-.13-.29-.38-.22-.38.1v10.3c0,.61-.32.96-.96.96h-3.57c-.61,0-.96-.35-.96-.96v-20.4c0-.64.35-.96.96-.96h4.69Z"/>
  </g>
</svg>