<?xml version="1.0" encoding="UTF-8"?>
<svg id="Bad_guy" data-name="Bad guy" xmlns="http://www.w3.org/2000/svg" xmlns:xlink="http://www.w3.org/1999/xlink" viewBox="0 0 570.79 535.76">
  <defs>
    <style>
      .cls-1 {
        fill: #3a3a3a;
      }

      .cls-1, .cls-2, .cls-3, .cls-4, .cls-5 {
        stroke-width: 0px;
      }

      .cls-6 {
        stroke: #000;
      }

      .cls-6, .cls-2, .cls-7, .cls-8 {
        fill: none;
      }

      .cls-6, .cls-7, .cls-8, .cls-9 {
        stroke-miterlimit: 10;
      }

      .cls-6, .cls-8, .cls-9 {
        stroke-width: 5px;
      }

      .cls-10 {
        clip-path: url(#clippath);
      }

      .cls-7 {
        stroke: #ed0677;
        stroke-width: 30px;
      }

      .cls-11, .cls-9, .cls-5 {
        fill: #fff;
      }

      .cls-12 {
        clip-path: url(#clippath-1);
      }

      .cls-13 {
        clip-path: url(#clippath-3);
      }

      .cls-14 {
        clip-path: url(#clippath-2);
      }

      .cls-3 {
        fill: #6d2c91;
      }

      .cls-8, .cls-9 {
        stroke: #e6e7e8;
      }

      .cls-4 {
        fill: #ed0677;
      }
    </style>
    <clipPath id="clippath">
      <path class="cls-2" d="M236.55,324.96c-25.16,0-50.32-9.58-69.47-28.73-9.44-9.44-9.44-24.75,0-34.19,9.44-9.44,24.75-9.44,34.19,0,19.46,19.46,51.12,19.46,70.57,0,9.44-9.44,24.75-9.44,34.19,0,9.44,9.44,9.44,24.75,0,34.19-19.15,19.15-44.31,28.73-69.47,28.73Z"/>
    </clipPath>
    <clipPath id="clippath-1">
      <path class="cls-5" d="M236.55,324.96c-25.16,0-50.32-9.58-69.47-28.73-9.44-9.44-9.44-24.75,0-34.19,9.44-9.44,24.75-9.44,34.19,0,19.46,19.46,51.12,19.46,70.57,0,9.44-9.44,24.75-9.44,34.19,0,9.44,9.44,9.44,24.75,0,34.19-19.15,19.15-44.31,28.73-69.47,28.73Z"/>
    </clipPath>
    <clipPath id="clippath-2">
      <path class="cls-2" d="M312.66,167.02s4.17,31.83-12.89,48.89-48.89,12.89-48.89,12.89c0,0-3.28-30.94,13.78-48,17.06-17.06,48-13.78,48-13.78Z"/>
    </clipPath>
    <clipPath id="clippath-3">
      <path class="cls-2" d="M211.72,228.8s-31.83,4.17-48.89-12.89c-17.06-17.06-12.89-48.89-12.89-48.89,0,0,30.94-3.28,48,13.78s13.78,48,13.78,48Z"/>
    </clipPath>
  </defs>
  <circle class="cls-4" cx="279.65" cy="228.86" r="153.72"/>
  <path class="cls-7" d="M236.6,345.57c-60.85,6.05-151.66,62.39-49.68,124.79"/>
  <g>
    <path class="cls-7" d="M410.58,218.21c15.87-119.63,100.07-130.42,115.26,7.48"/>
    <circle class="cls-4" cx="525.84" cy="225.69" r="44.94"/>
  </g>
  <g>
    <path class="cls-7" d="M160.21,170.26c-15.87,119.63-100.07,130.42-115.26-7.48"/>
    <circle class="cls-4" cx="44.95" cy="162.78" r="44.94"/>
  </g>
  <path class="cls-7" d="M337.5,327.28c-11.28,91.77,30.3,145.86,95.87,55.31"/>
  <ellipse class="cls-4" cx="452.49" cy="395.92" rx="27.19" ry="41.66" transform="translate(-116.63 589.83) rotate(-60)"/>
  <ellipse class="cls-4" cx="180.73" cy="495.27" rx="41.66" ry="27.19" transform="translate(-346.19 512.9) rotate(-71.87)"/>
  <polygon class="cls-4" points="351.24 0 283.45 104.7 367.96 123.6 351.24 0"/>
  <polygon class="cls-4" points="207.52 3.83 168.7 122.37 255.24 119.07 207.52 3.83"/>
  <g class="cls-10">
    <line class="cls-6" x1="236.55" y1="271.02" x2="236.55" y2="334.51"/>
    <line class="cls-6" x1="257.37" y1="264.67" x2="286.29" y2="334.51"/>
    <line class="cls-6" x1="215.74" y1="261.85" x2="179.76" y2="337.33"/>
    <g>
      <path class="cls-11" d="M236.55,324.96c-25.16,0-50.32-9.58-69.47-28.73-9.44-9.44-9.44-24.75,0-34.19,9.44-9.44,24.75-9.44,34.19,0,19.46,19.46,51.12,19.46,70.57,0,9.44-9.44,24.75-9.44,34.19,0,9.44,9.44,9.44,24.75,0,34.19-19.15,19.15-44.31,28.73-69.47,28.73Z"/>
      <g class="cls-12">
        <line class="cls-9" x1="236.55" y1="271.02" x2="236.55" y2="334.51"/>
        <line class="cls-9" x1="257.37" y1="264.67" x2="286.29" y2="334.51"/>
        <path class="cls-8" d="M166.5,252.98c10.11,55.23,110.69,63.22,143.51,10.11"/>
        <line class="cls-9" x1="215.74" y1="261.85" x2="179.76" y2="337.33"/>
      </g>
    </g>
    <ellipse class="cls-3" cx="307.56" cy="263.1" rx="9.74" ry="22.33" transform="translate(-95.29 224.01) rotate(-35)"/>
    <ellipse class="cls-3" cx="163.21" cy="266.66" rx="22.33" ry="9.74" transform="translate(-148.84 247.39) rotate(-55)"/>
  </g>
  <g class="cls-14">
    <path class="cls-5" d="M312.66,167.02s4.17,31.83-12.89,48.89-48.89,12.89-48.89,12.89c0,0-3.28-30.94,13.78-48,17.06-17.06,48-13.78,48-13.78Z"/>
    <path class="cls-1" d="M286.6,193.96c6.63,6.63,14.24,9.76,7.61,16.39-6.63,6.63-8.93-1.82-15.55-8.45-6.63-6.63-15.07-8.93-8.45-15.55s9.76.98,16.39,7.61Z"/>
  </g>
  <g class="cls-13">
    <path class="cls-5" d="M211.72,228.8s-31.83,4.17-48.89-12.89c-17.06-17.06-12.89-48.89-12.89-48.89,0,0,30.94-3.28,48,13.78s13.78,48,13.78,48Z"/>
    <path class="cls-1" d="M184.55,202.52c-6.63,6.63-8.65,15.35-15.27,8.73-6.63-6.63,1.42-9.32,8.05-15.95,6.63-6.63,9.32-14.68,15.95-8.05s-2.1,8.65-8.73,15.27Z"/>
  </g>
</svg>