<?xml version="1.0" encoding="UTF-8"?>
<svg id="Good_Guy" data-name="Good Guy" xmlns="http://www.w3.org/2000/svg" xmlns:xlink="http://www.w3.org/1999/xlink" viewBox="0 0 1600 900">
  <defs>
    <style>
      .cls-1 {
        stroke: #fff;
        stroke-width: 10px;
      }

      .cls-1, .cls-2, .cls-3 {
        fill: none;
      }

      .cls-1, .cls-3 {
        stroke-miterlimit: 10;
      }

      .cls-4 {
        fill: #725e94;
      }

      .cls-4, .cls-2, .cls-5, .cls-6, .cls-7, .cls-8, .cls-9, .cls-10, .cls-11 {
        stroke-width: 0px;
      }

      .cls-12 {
        clip-path: url(#clippath);
      }

      .cls-5 {
        fill: #c22d40;
      }

      .cls-3 {
        stroke: #c22d40;
        stroke-linecap: round;
        stroke-width: 20px;
      }

      .cls-6 {
        fill: #8a73b4;
      }

      .cls-7 {
        fill: #e26d7b;
      }

      .cls-8 {
        fill: #655385;
      }

      .cls-13 {
        opacity: .3;
      }

      .cls-14 {
        opacity: .8;
      }

      .cls-9 {
        opacity: .95;
      }

      .cls-9, .cls-11 {
        fill: #fff;
      }

      .cls-10 {
        fill: url(#linear-gradient);
        opacity: .5;
      }
    </style>
    <linearGradient id="linear-gradient" x1="800" y1="900" x2="800" y2="0" gradientUnits="userSpaceOnUse">
      <stop offset="0" stop-color="#fdb515"/>
      <stop offset="1" stop-color="#f15a29"/>
    </linearGradient>
    <clipPath id="clippath">
      <rect class="cls-2" x="0" width="1600" height="900"/>
    </clipPath>
  </defs>
  <rect class="cls-10" x="0" width="1600" height="900"/>
  <g class="cls-12">
    <rect class="cls-8" x="0" width="1600" height="2227.13"/>
    <path class="cls-4" d="M1739.45,368.45c-95.92-259.94-173.46-165.93-452.87-52.11-231.01,94.1-371.52-298.34-695.05-90.38-341.11,219.26-502.46-76.25-641.82,1C-357.42,397.19-3.52,900-3.52,900h1600s184.34-419.42,142.97-531.55Z"/>
    <path class="cls-6" d="M-59.91,689.42C36.01,508.99,243.9,393.58,491.38,478.39c225.03,77.12,423.84,166.53,587.93,190.48,325.08,47.45,451.55-177.46,566.08-95.24,76.11,54.64-45.39,326.37-45.39,326.37H0s-101.29-132.75-59.91-210.58Z"/>
    <g class="cls-13">
      <g>
        <g id="Decorations">
          <path class="cls-11" d="M1425.64,347.17c3.52,3.52,18.7,6.92,18.7,6.92,0,0-15.17,3.39-18.7,6.92-3.52,3.52-6.92,18.7-6.92,18.7,0,0-3.39-15.17-6.92-18.7-3.52-3.52-18.7-6.92-18.7-6.92,0,0,15.17-3.39,18.7-6.92s6.92-18.7,6.92-18.7c0,0,3.39,15.17,6.92,18.7Z"/>
          <path class="cls-11" d="M936.89,169.13c1.76,1.76,9.35,3.46,9.35,3.46,0,0-7.59,1.7-9.35,3.46s-3.46,9.35-3.46,9.35c0,0-1.7-7.59-3.46-9.35s-9.35-3.46-9.35-3.46c0,0,7.59-1.7,9.35-3.46s3.46-9.35,3.46-9.35c0,0,1.7,7.59,3.46,9.35Z"/>
          <path class="cls-11" d="M841.29,18.7c3.52,3.52,18.7,6.92,18.7,6.92,0,0-15.17,3.39-18.7,6.92s-6.92,18.7-6.92,18.7c0,0-3.39-15.17-6.92-18.7s-18.7-6.92-18.7-6.92c0,0,15.17-3.39,18.7-6.92s6.92-18.7,6.92-18.7c0,0,3.39,15.17,6.92,18.7Z"/>
          <path class="cls-11" d="M1313.32,47.32c3.52,3.52,18.45,5.87,18.45,5.87,0,0-15.17,3.39-18.7,6.92-3.52,3.52-6.92,27.26-6.92,27.26,0,0-3.39-23.74-6.92-27.26-3.52-3.52-18.7-6.92-18.7-6.92,0,0,15.17-3.39,18.7-6.92,3.52-3.52,6.92-28.44,6.92-28.44,0,0,3.65,25.96,7.17,29.48Z"/>
          <path class="cls-11" d="M1233.57,191c3.52,3.52,18.45,5.87,18.45,5.87,0,0-15.17,3.39-18.7,6.92-3.52,3.52-6.92,27.26-6.92,27.26,0,0-3.39-23.74-6.92-27.26s-18.7-6.92-18.7-6.92c0,0,15.17-3.39,18.7-6.92s6.92-28.44,6.92-28.44c0,0,3.65,25.96,7.17,29.48Z"/>
          <path class="cls-11" d="M1067.9,336.52c1.73,1.73,9.07,2.89,9.07,2.89,0,0-7.46,1.67-9.19,3.4-1.73,1.73-3.4,13.4-3.4,13.4,0,0-1.67-11.67-3.4-13.4s-9.19-3.4-9.19-3.4c0,0,7.46-1.67,9.19-3.4s3.4-13.98,3.4-13.98c0,0,1.79,12.76,3.52,14.49Z"/>
          <circle class="cls-11" cx="1292.88" cy="371.93" r="13.5"/>
          <circle class="cls-11" cx="1143.99" cy="82.14" r="13.5"/>
          <circle class="cls-11" cx="1586.5" cy="39.11" r="13.5"/>
          <circle class="cls-1" cx="1338.5" cy="148.55" r="13.5"/>
          <circle class="cls-1" cx="1043.3" cy="240.69" r="13.5"/>
        </g>
        <g id="Decorations-2" data-name="Decorations">
          <path class="cls-11" d="M248.53,38.26c-3.52-3.52-18.7-6.92-18.7-6.92,0,0,15.17-3.39,18.7-6.92,3.52-3.52,6.92-18.7,6.92-18.7,0,0,3.39,15.17,6.92,18.7,3.52,3.52,18.7,6.92,18.7,6.92,0,0-15.17,3.39-18.7,6.92s-6.92,18.7-6.92,18.7c0,0-3.39-15.17-6.92-18.7Z"/>
          <path class="cls-11" d="M737.28,216.29c-1.76-1.76-9.35-3.46-9.35-3.46,0,0,7.59-1.7,9.35-3.46s3.46-9.35,3.46-9.35c0,0,1.7,7.59,3.46,9.35s9.35,3.46,9.35,3.46c0,0-7.59,1.7-9.35,3.46s-3.46,9.35-3.46,9.35c0,0-1.7-7.59-3.46-9.35Z"/>
          <path class="cls-11" d="M832.89,366.73c-3.52-3.52-18.7-6.92-18.7-6.92,0,0,15.17-3.39,18.7-6.92s6.92-18.7,6.92-18.7c0,0,3.39,15.17,6.92,18.7s18.7,6.92,18.7,6.92c0,0-15.17,3.39-18.7,6.92s-6.92,18.7-6.92,18.7c0,0-3.39-15.17-6.92-18.7Z"/>
          <path class="cls-11" d="M360.85,338.11c-3.52-3.52-18.45-5.87-18.45-5.87,0,0,15.17-3.39,18.7-6.92,3.52-3.52,6.92-27.26,6.92-27.26,0,0,3.39,23.74,6.92,27.26,3.52,3.52,18.7,6.92,18.7,6.92,0,0-15.17,3.39-18.7,6.92-3.52,3.52-6.92,28.44-6.92,28.44,0,0-3.65-25.96-7.17-29.48Z"/>
          <path class="cls-11" d="M440.6,194.43c-3.52-3.52-18.45-5.87-18.45-5.87,0,0,15.17-3.39,18.7-6.92,3.52-3.52,6.92-27.26,6.92-27.26,0,0,3.39,23.74,6.92,27.26s18.7,6.92,18.7,6.92c0,0-15.17,3.39-18.7,6.92s-6.92,28.44-6.92,28.44c0,0-3.65-25.96-7.17-29.48Z"/>
          <path class="cls-11" d="M606.27,48.9c-1.73-1.73-9.07-2.89-9.07-2.89,0,0,7.46-1.67,9.19-3.4s3.4-13.4,3.4-13.4c0,0,1.67,11.67,3.4,13.4s9.19,3.4,9.19,3.4c0,0-7.46,1.67-9.19,3.4s-3.4,13.98-3.4,13.98c0,0-1.79-12.76-3.52-14.49Z"/>
          <circle class="cls-11" cx="381.29" cy="13.5" r="13.5"/>
          <circle class="cls-11" cx="530.18" cy="303.29" r="13.5"/>
          <circle class="cls-11" cx="87.67" cy="346.32" r="13.5"/>
          <circle class="cls-1" cx="335.67" cy="236.88" r="13.5"/>
          <circle class="cls-1" cx="630.87" cy="144.74" r="13.5"/>
        </g>
      </g>
      <g>
        <g id="Decorations-3" data-name="Decorations">
          <path class="cls-11" d="M174.36,844.56c-3.52,3.52-18.7,6.92-18.7,6.92,0,0,15.17,3.39,18.7,6.92,3.52,3.52,6.92,18.7,6.92,18.7,0,0,3.39-15.17,6.92-18.7,3.52-3.52,18.7-6.92,18.7-6.92,0,0-15.17-3.39-18.7-6.92s-6.92-18.7-6.92-18.7c0,0-3.39,15.17-6.92,18.7Z"/>
          <path class="cls-11" d="M663.11,666.53c-1.76,1.76-9.35,3.46-9.35,3.46,0,0,7.59,1.7,9.35,3.46s3.46,9.35,3.46,9.35c0,0,1.7-7.59,3.46-9.35s9.35-3.46,9.35-3.46c0,0-7.59-1.7-9.35-3.46s-3.46-9.35-3.46-9.35c0,0-1.7,7.59-3.46,9.35Z"/>
          <path class="cls-11" d="M758.71,516.09c-3.52,3.52-18.7,6.92-18.7,6.92,0,0,15.17,3.39,18.7,6.92s6.92,18.7,6.92,18.7c0,0,3.39-15.17,6.92-18.7s18.7-6.92,18.7-6.92c0,0-15.17-3.39-18.7-6.92s-6.92-18.7-6.92-18.7c0,0-3.39,15.17-6.92,18.7Z"/>
          <path class="cls-11" d="M286.68,544.71c-3.52,3.52-18.45,5.87-18.45,5.87,0,0,15.17,3.39,18.7,6.92,3.52,3.52,6.92,27.26,6.92,27.26,0,0,3.39-23.74,6.92-27.26,3.52-3.52,18.7-6.92,18.7-6.92,0,0-15.17-3.39-18.7-6.92s-6.92-28.44-6.92-28.44c0,0-3.65,25.96-7.17,29.48Z"/>
          <path class="cls-11" d="M366.43,688.39c-3.52,3.52-18.45,5.87-18.45,5.87,0,0,15.17,3.39,18.7,6.92,3.52,3.52,6.92,27.26,6.92,27.26,0,0,3.39-23.74,6.92-27.26s18.7-6.92,18.7-6.92c0,0-15.17-3.39-18.7-6.92s-6.92-28.44-6.92-28.44c0,0-3.65,25.96-7.17,29.48Z"/>
          <path class="cls-11" d="M532.1,833.92c-1.73,1.73-9.07,2.89-9.07,2.89,0,0,7.46,1.67,9.19,3.4s3.4,13.4,3.4,13.4c0,0,1.67-11.67,3.4-13.4s9.19-3.4,9.19-3.4c0,0-7.46-1.67-9.19-3.4s-3.4-13.98-3.4-13.98c0,0-1.79,12.76-3.52,14.49Z"/>
          <circle class="cls-11" cx="307.12" cy="869.33" r="13.5"/>
          <circle class="cls-11" cx="456.01" cy="579.53" r="13.5"/>
          <circle class="cls-11" cx="13.5" cy="536.5" r="13.5"/>
          <circle class="cls-1" cx="261.5" cy="645.94" r="13.5"/>
          <circle class="cls-1" cx="556.7" cy="738.08" r="13.5"/>
        </g>
        <g id="Decorations-4" data-name="Decorations">
          <path class="cls-11" d="M1351.47,535.66c3.52-3.52,18.7-6.92,18.7-6.92,0,0-15.17-3.39-18.7-6.92s-6.92-18.7-6.92-18.7c0,0-3.39,15.17-6.92,18.7-3.52,3.52-18.7,6.92-18.7,6.92,0,0,15.17,3.39,18.7,6.92s6.92,18.7,6.92,18.7c0,0,3.39-15.17,6.92-18.7Z"/>
          <path class="cls-11" d="M862.72,713.69c1.76-1.76,9.35-3.46,9.35-3.46,0,0-7.59-1.7-9.35-3.46s-3.46-9.35-3.46-9.35c0,0-1.7,7.59-3.46,9.35s-9.35,3.46-9.35,3.46c0,0,7.59,1.7,9.35,3.46s3.46,9.35,3.46,9.35c0,0,1.7-7.59,3.46-9.35Z"/>
          <path class="cls-11" d="M767.11,864.12c3.52-3.52,18.7-6.92,18.7-6.92,0,0-15.17-3.39-18.7-6.92-3.52-3.52-6.92-18.7-6.92-18.7,0,0-3.39,15.17-6.92,18.7-3.52,3.52-18.7,6.92-18.7,6.92,0,0,15.17,3.39,18.7,6.92s6.92,18.7,6.92,18.7c0,0,3.39-15.17,6.92-18.7Z"/>
          <path class="cls-11" d="M1239.15,835.5c3.52-3.52,18.45-5.87,18.45-5.87,0,0-15.17-3.39-18.7-6.92-3.52-3.52-6.92-27.26-6.92-27.26,0,0-3.39,23.74-6.92,27.26-3.52,3.52-18.7,6.92-18.7,6.92,0,0,15.17,3.39,18.7,6.92,3.52,3.52,6.92,28.44,6.92,28.44,0,0,3.65-25.96,7.17-29.48Z"/>
          <path class="cls-11" d="M1159.4,691.82c3.52-3.52,18.45-5.87,18.45-5.87,0,0-15.17-3.39-18.7-6.92-3.52-3.52-6.92-27.26-6.92-27.26,0,0-3.39,23.74-6.92,27.26s-18.7,6.92-18.7,6.92c0,0,15.17,3.39,18.7,6.92s6.92,28.44,6.92,28.44c0,0,3.65-25.96,7.17-29.48Z"/>
          <path class="cls-11" d="M993.73,546.3c1.73-1.73,9.07-2.89,9.07-2.89,0,0-7.46-1.67-9.19-3.4s-3.4-13.4-3.4-13.4c0,0-1.67,11.67-3.4,13.4s-9.19,3.4-9.19,3.4c0,0,7.46,1.67,9.19,3.4s3.4,13.98,3.4,13.98c0,0,1.79-12.76,3.52-14.49Z"/>
          <circle class="cls-11" cx="1218.71" cy="510.89" r="13.5"/>
          <circle class="cls-11" cx="1069.82" cy="800.68" r="13.5"/>
          <circle class="cls-11" cx="1512.33" cy="843.71" r="13.5"/>
          <circle class="cls-1" cx="1264.33" cy="734.27" r="13.5"/>
          <circle class="cls-1" cx="969.13" cy="642.13" r="13.5"/>
        </g>
      </g>
    </g>
    <g>
      <path class="cls-5" d="M957.48,1057.64h-314.96s-48.35-225.18,0-273.53c55.68-55.68,259.28-55.68,314.96,0,48.35,48.35,0,273.53,0,273.53Z"/>
      <g>
        <path class="cls-7" d="M1226.99,919.75c-2.83-32.08-26.87-57.17-57.07-62.73,1.95-7.53,2.68-15.51,1.95-23.7-3.4-38.54-37.41-67.03-75.95-63.62-5.39.48-10.58,1.57-15.51,3.17-.04-.6-.06-1.19-.11-1.79-3.4-38.54-34.51-57.77-73.05-54.37-19.21,1.7-38.83,1.75-50.34,15.42-14.04-18.88-34.57-17.16-59.73-14.94-30.18,2.67-56.87,11.02-64.24,38.69-.42,1.23-.73,2.34-.96,3.36-8.74,1.72-20.9,5.41-24.92,15.75-2.3,5.91,0,25.38,0,25.38v156.99s-1.09,25.38,3.23,34.29c2.7,5.57-1.58,11.05,4.85,12.63-4.11-.26,1.24.37,0,0,.02.4.04.8.08,1.2,3.4,38.54,34.73,54.01,73.27,50.6,20.96-1.85,41.61.26,53.11-15.5,14.08,13.5,33.76,11.84,54.72,9.98,20.04-1.77,37.28-2.58,48.81-17.23,13.92,12.41,32.73,19.28,52.77,17.51,30.27-2.67,72.47,4.39,79.75-23.41.46-1.74,8.4-.74,10.2-.9.01,0,4.58-.87,4.59-.87,38.54-3.4,37.94-67.38,34.54-105.92Z"/>
        <path class="cls-3" d="M882.12,790.34c29.15,0,52.73,23.59,52.73,52.73"/>
        <path class="cls-3" d="M973.06,981.31c-18.6-22.44-15.5-55.65,6.94-74.25"/>
        <path class="cls-3" d="M898.07,855.23c22.38-18.67,55.6-15.67,74.27,6.71"/>
        <path class="cls-3" d="M1071.32,895.81c0-29.15-23.59-52.73-52.73-52.73"/>
        <path class="cls-3" d="M1128.89,954.94c0-29.24-23.71-52.95-52.95-52.95s-52.95,23.71-52.95,52.95"/>
        <path class="cls-3" d="M853.98,834.69c-22.03,19.23-24.3,52.68-5.07,74.71,19.23,22.03,52.68,24.3,74.71,5.07"/>
      </g>
      <g>
        <path class="cls-7" d="M373.01,920.24c2.83-32.08,26.87-57.17,57.07-62.73-1.95-7.53-2.68-15.51-1.95-23.7,3.4-38.54,37.41-67.03,75.95-63.62,5.39.48,10.58,1.57,15.51,3.17.04-.6.06-1.19.11-1.79,3.4-38.54,34.51-57.77,73.05-54.37,19.21,1.7,38.83,1.75,50.34,15.42,14.04-18.88,34.57-17.16,59.73-14.94,30.18,2.67,56.87,11.02,64.24,38.69.42,1.23.73,2.34.96,3.36,8.74,1.72,20.9,5.41,24.92,15.75,2.3,5.91,0,25.38,0,25.38v156.99s1.09,25.38-3.23,34.29c-2.7,5.57,1.58,11.05-4.85,12.63,4.11-.26-1.24.37,0,0-.02.4-.04.8-.08,1.2-3.4,38.54-34.73,54.01-73.27,50.6-20.96-1.85-41.61.26-53.11-15.5-14.08,13.5-33.76,11.84-54.72,9.98-20.04-1.77-37.28-2.58-48.81-17.23-13.92,12.41-32.73,19.28-52.77,17.51-30.27-2.67-72.47,4.39-79.75-23.41-.46-1.74-8.4-.74-10.2-.9-.01,0-4.58-.87-4.59-.87-38.54-3.4-37.94-67.38-34.54-105.92Z"/>
        <path class="cls-3" d="M706.68,780.74c-29.15,0-52.73,23.59-52.73,52.73"/>
        <path class="cls-3" d="M615.74,971.7c18.6-22.44,15.5-55.65-6.94-74.25"/>
        <path class="cls-3" d="M690.72,845.63c-22.38-18.67-55.6-15.67-74.27,6.71"/>
        <path class="cls-3" d="M517.48,886.21c0-29.15,23.59-52.73,52.73-52.73"/>
        <path class="cls-3" d="M459.91,945.34c0-29.24,23.71-52.95,52.95-52.95s52.95,23.71,52.95,52.95"/>
        <path class="cls-3" d="M734.81,825.09c22.03,19.23,24.3,52.68,5.07,74.71-19.23,22.03-52.68,24.3-74.71,5.07"/>
      </g>
    </g>
  </g>
  <g class="cls-14">
    <path class="cls-9" d="M1237.15,477.23c-.03-.93-.07-1.86-.07-2.8,0-33.91,22.45-62.56,53.29-71.94-2.44-5.73-3.79-12.03-3.79-18.65,0-26.31,21.32-47.63,47.63-47.63,5.23,0,10.26.85,14.96,2.41-2.11-5.38-3.28-11.23-3.28-17.35,0-26.31,21.32-47.63,47.63-47.63,17.49,0,32.77,9.43,41.05,23.48,7.09-2.22,14.63-3.41,22.46-3.41,41.53,0,75.19,33.67,75.19,75.19,0,8.76-1.51,17.17-4.27,24.99,4.85-1.66,10.04-2.58,15.45-2.58.36,0,.71.02,1.07.03,5.98-35.54,36.88-62.63,74.13-62.63,41.53,0,75.19,33.67,75.19,75.19,0,10.91-2.34,21.26-6.52,30.62,5.22-1.97,10.88-3.05,16.79-3.05,25.68,0,46.6,20.32,47.58,45.76h-514.5Z"/>
    <path class="cls-9" d="M315.3,594.67c.02-.66.05-1.32.05-1.99,0-24.09-15.95-44.46-37.87-51.12,1.73-4.07,2.69-8.55,2.69-13.25,0-18.69-15.15-33.84-33.84-33.84-3.72,0-7.29.61-10.63,1.71,1.5-3.82,2.33-7.98,2.33-12.33,0-18.69-15.15-33.84-33.84-33.84-12.43,0-23.28,6.7-29.17,16.68-5.04-1.58-10.4-2.43-15.96-2.43-29.51,0-53.43,23.92-53.43,53.43,0,6.23,1.08,12.2,3.03,17.76-3.44-1.18-7.13-1.83-10.98-1.83-.25,0-.5.01-.76.02-4.25-25.26-26.21-44.5-52.67-44.5-29.51,0-53.43,23.92-53.43,53.43,0,7.75,1.66,15.11,4.63,21.76-3.71-1.4-7.73-2.17-11.93-2.17-18.25,0-33.11,14.44-33.81,32.52h365.59Z"/>
    <path class="cls-9" d="M1775.17,144.67c.02-.66.05-1.32.05-1.99,0-24.09-15.95-44.46-37.87-51.12,1.73-4.07,2.69-8.55,2.69-13.25,0-18.69-15.15-33.84-33.84-33.84-3.72,0-7.29.61-10.63,1.71,1.5-3.82,2.33-7.98,2.33-12.33,0-18.69-15.15-33.84-33.84-33.84-12.43,0-23.28,6.7-29.17,16.68-5.04-1.58-10.4-2.43-15.96-2.43-29.51,0-53.43,23.92-53.43,53.43,0,6.23,1.08,12.2,3.03,17.76-3.44-1.18-7.13-1.83-10.98-1.83-.25,0-.5.01-.76.02-4.25-25.26-26.21-44.5-52.67-44.5-29.51,0-53.43,23.92-53.43,53.43,0,7.75,1.66,15.11,4.63,21.76-3.71-1.4-7.73-2.17-11.93-2.17-18.25,0-33.11,14.44-33.81,32.52h365.59Z"/>
    <path class="cls-9" d="M-68.41,273.63c-.04-1.02-.08-2.03-.08-3.05,0-36.97,24.47-68.2,58.09-78.43-2.66-6.24-4.13-13.11-4.13-20.33,0-28.68,23.25-51.92,51.92-51.92,5.7,0,11.18.93,16.31,2.63-2.3-5.86-3.57-12.24-3.57-18.92,0-28.68,23.25-51.92,51.92-51.92,19.07,0,35.72,10.28,44.75,25.6,7.73-2.42,15.95-3.72,24.48-3.72,45.27,0,81.97,36.7,81.97,81.97,0,9.55-1.65,18.72-4.66,27.24,5.28-1.81,10.95-2.81,16.84-2.81.39,0,.77.02,1.16.03,6.52-38.75,40.21-68.27,80.81-68.27,45.27,0,81.97,36.7,81.97,81.97,0,11.89-2.55,23.18-7.11,33.38,5.69-2.15,11.86-3.33,18.31-3.33,27.99,0,50.8,22.16,51.87,49.89H-68.41Z"/>
  </g>
</svg>