<?xml version="1.0" encoding="UTF-8"?>
<svg id="Good_Guy" data-name="Good Guy" xmlns="http://www.w3.org/2000/svg" viewBox="0 0 1600 900">
  <defs>
    <style>
      .cls-1, .cls-2 {
        opacity: .95;
      }

      .cls-2 {
        fill: #aca5d1;
        stroke-width: 0px;
      }
    </style>
  </defs>
  <g class="cls-1">
    <path class="cls-2" d="M1237.15,477.23c-.03-.93-.07-1.86-.07-2.8,0-33.91,22.45-62.56,53.29-71.94-2.44-5.73-3.79-12.03-3.79-18.65,0-26.31,21.32-47.63,47.63-47.63,5.23,0,10.26.85,14.96,2.41-2.11-5.38-3.28-11.23-3.28-17.35,0-26.31,21.32-47.63,47.63-47.63,17.49,0,32.77,9.43,41.05,23.48,7.09-2.22,14.63-3.41,22.46-3.41,41.53,0,75.19,33.67,75.19,75.19,0,8.76-1.51,17.17-4.27,24.99,4.85-1.66,10.04-2.58,15.45-2.58.36,0,.71.02,1.07.03,5.98-35.54,36.88-62.63,74.13-62.63,41.53,0,75.19,33.67,75.19,75.19,0,10.91-2.34,21.26-6.52,30.62,5.22-1.97,10.88-3.05,16.79-3.05,25.68,0,46.6,20.32,47.58,45.76h-514.5Z"/>
    <path class="cls-2" d="M315.3,594.67c.02-.66.05-1.32.05-1.99,0-24.09-15.95-44.46-37.87-51.12,1.73-4.07,2.69-8.55,2.69-13.25,0-18.69-15.15-33.84-33.84-33.84-3.72,0-7.29.61-10.63,1.71,1.5-3.82,2.33-7.98,2.33-12.33,0-18.69-15.15-33.84-33.84-33.84-12.43,0-23.28,6.7-29.17,16.68-5.04-1.58-10.4-2.43-15.96-2.43-29.51,0-53.43,23.92-53.43,53.43,0,6.23,1.08,12.2,3.03,17.76-3.44-1.18-7.13-1.83-10.98-1.83-.25,0-.5.01-.76.02-4.25-25.26-26.21-44.5-52.67-44.5-29.51,0-53.43,23.92-53.43,53.43,0,7.75,1.66,15.11,4.63,21.76-3.71-1.4-7.73-2.17-11.93-2.17-18.25,0-33.11,14.44-33.81,32.52h365.59Z"/>
    <path class="cls-2" d="M1775.17,144.67c.02-.66.05-1.32.05-1.99,0-24.09-15.95-44.46-37.87-51.12,1.73-4.07,2.69-8.55,2.69-13.25,0-18.69-15.15-33.84-33.84-33.84-3.72,0-7.29.61-10.63,1.71,1.5-3.82,2.33-7.98,2.33-12.33,0-18.69-15.15-33.84-33.84-33.84-12.43,0-23.28,6.7-29.17,16.68-5.04-1.58-10.4-2.43-15.96-2.43-29.51,0-53.43,23.92-53.43,53.43,0,6.23,1.08,12.2,3.03,17.76-3.44-1.18-7.13-1.83-10.98-1.83-.25,0-.5.01-.76.02-4.25-25.26-26.21-44.5-52.67-44.5-29.51,0-53.43,23.92-53.43,53.43,0,7.75,1.66,15.11,4.63,21.76-3.71-1.4-7.73-2.17-11.93-2.17-18.25,0-33.11,14.44-33.81,32.52h365.59Z"/>
    <path class="cls-2" d="M-68.41,273.63c-.04-1.02-.08-2.03-.08-3.05,0-36.97,24.47-68.2,58.09-78.43-2.66-6.24-4.13-13.11-4.13-20.33,0-28.68,23.25-51.92,51.92-51.92,5.7,0,11.18.93,16.31,2.63-2.3-5.86-3.57-12.24-3.57-18.92,0-28.68,23.25-51.92,51.92-51.92,19.07,0,35.72,10.28,44.75,25.6,7.73-2.42,15.95-3.72,24.48-3.72,45.27,0,81.97,36.7,81.97,81.97,0,9.55-1.65,18.72-4.66,27.24,5.28-1.81,10.95-2.81,16.84-2.81.39,0,.77.02,1.16.03,6.52-38.75,40.21-68.27,80.81-68.27,45.27,0,81.97,36.7,81.97,81.97,0,11.89-2.55,23.18-7.11,33.38,5.69-2.15,11.86-3.33,18.31-3.33,27.99,0,50.8,22.16,51.87,49.89H-68.41Z"/>
  </g>
</svg>